<svg xmlns="http://www.w3.org/2000/svg" id="agronomy" width="22" height="22" viewBox="0 0 22 22">
    <defs>
        <style>
            .cls-1{fill:#61a734}
        </style>
    </defs>
    <g id="Group_1350" transform="translate(6.214 2.789)">
        <g id="Group_1349">
            <path id="Path_3272" d="M154.017 73.393a.43.43 0 0 0-.265-.283 3.055 3.055 0 0 0-.567-.133 3.651 3.651 0 0 0 .832-3.584.43.43 0 0 0-.265-.283 3.7 3.7 0 0 0-2.311.024 3.86 3.86 0 0 0 .107-.918 3.65 3.65 0 0 0-1.948-3.252.429.429 0 0 0-.387-.013 3.636 3.636 0 0 0-1.973 3.264 3.86 3.86 0 0 0 .108.919 3.7 3.7 0 0 0-2.316-.026.43.43 0 0 0-.265.283 3.651 3.651 0 0 0 .832 3.584 3.056 3.056 0 0 0-.567.133.43.43 0 0 0-.265.283 3.65 3.65 0 0 0 .922 3.677 3.565 3.565 0 0 0 2.579 1.086 3.843 3.843 0 0 0 .692-.063V80.9a.43.43 0 0 0 .859 0v-2.808a3.849 3.849 0 0 0 .7.064 3.566 3.566 0 0 0 2.581-1.086 3.65 3.65 0 0 0 .917-3.677zm-5.058 3.361a2.864 2.864 0 0 1-.063.477 2.835 2.835 0 0 1-3.366-3.368 2.881 2.881 0 0 1 1.476.07l.123.043a2.817 2.817 0 0 1 1 .655 2.739 2.739 0 0 1 .831 1.836zm0-4a2.863 2.863 0 0 1-.063.477 2.855 2.855 0 0 1-1.447-.058q-.093-.036-.185-.065a2.838 2.838 0 0 1-.968-.645 2.771 2.771 0 0 1-.766-2.6 2.787 2.787 0 0 1 2.6.768l.018.019.113.122a2.721 2.721 0 0 1 .7 1.7zm.441-2.154a2.921 2.921 0 0 1-.526-.434l-.061-.066a2.741 2.741 0 0 1-.709-1.881 2.774 2.774 0 0 1 1.293-2.38 2.771 2.771 0 0 1 1.3 2.38 2.741 2.741 0 0 1-.643 1.809c-.07.07-.135.14-.2.211a2.885 2.885 0 0 1-.454.361zm.426 2.017a2.72 2.72 0 0 1 .664-1.8c.063-.063.127-.131.19-.2a2.773 2.773 0 0 1 2.578-.75 2.771 2.771 0 0 1-.766 2.6 2.838 2.838 0 0 1-.966.644q-.093.03-.188.067a2.854 2.854 0 0 1-1.445.057 2.884 2.884 0 0 1-.067-.605s-.005-.011-.005-.015zm2.666 3.847a2.773 2.773 0 0 1-2.6.769 2.787 2.787 0 0 1 .768-2.6 2.837 2.837 0 0 1 .969-.645q.092-.03.185-.065a2.856 2.856 0 0 1 1.444-.058 2.771 2.771 0 0 1-.77 2.597z" class="cls-1" transform="translate(-144.606 -64.913)"/>
        </g>
    </g>
    <g id="Group_1352">
        <g id="Group_1351">
            <path id="Path_3273" d="M13.293.239A11.074 11.074 0 0 0 11 0a11 11 0 0 0-8.676 17.762 1.631 1.631 0 1 0 .641-.576A10.145 10.145 0 0 1 13.114 1.08a.43.43 0 1 0 .178-.841zM3.151 18.1a.773.773 0 1 1-.227.547.771.771 0 0 1 .227-.547z" class="cls-1"/>
        </g>
    </g>
    <g id="Group_1354" transform="translate(8.704 1.721)">
        <g id="Group_1353">
            <path id="Path_3274" d="M213.528 42.568a1.631 1.631 0 1 0-.641.576 10.145 10.145 0 0 1-9.826 16.169.43.43 0 0 0-.151.846 11.1 11.1 0 0 0 1.942.171 11 11 0 0 0 8.676-17.762zm-.826-.337a.773.773 0 1 1 .227-.547.768.768 0 0 1-.229.547z" class="cls-1" transform="translate(-202.556 -40.051)"/>
        </g>
    </g>
    <g id="Group_1356" transform="translate(6.632 20.383)">
        <g id="Group_1355">
            <path id="Path_3275" d="M154.947 474.392l-.162.4.161-.4a.43.43 0 1 0-.322.8l.013.005a.43.43 0 0 0 .31-.8z" class="cls-1" transform="translate(-154.355 -474.36)"/>
        </g>
    </g>
    <g id="Group_1358" transform="translate(14.52 .763)">
        <g id="Group_1357">
            <path id="Path_3276" d="M338.526 17.788h-.008a.43.43 0 0 0-.319.8.43.43 0 1 0 .322-.8z" class="cls-1" transform="translate(-337.929 -17.754)"/>
        </g>
    </g>
</svg>
