<svg id="analytics" xmlns="http://www.w3.org/2000/svg" width="54" height="54" viewBox="0 0 54 54">
  <g id="Group_1223" data-name="Group 1223">
    <g id="Group_1222" data-name="Group 1222">
      <path id="Path_3250" data-name="Path 3250" d="M52.945,22.016H46.2a1.055,1.055,0,0,0-1.055,1.055V28.4a1.055,1.055,0,1,0,2.109,0V24.126h4.641V51.891H47.25V36.308a1.055,1.055,0,0,0-2.109,0V51.891H43.031V30.059A1.055,1.055,0,0,0,41.977,29h-6.75a1.055,1.055,0,0,0-1.055,1.055V51.891H32.063V37.441a1.055,1.055,0,0,0-1.055-1.055h-6.75A1.055,1.055,0,0,0,23.2,37.441V51.891H21.094v-8.4a1.055,1.055,0,0,0-1.055-1.055h-6.75a1.055,1.055,0,0,0-1.055,1.055v8.4H3.164a1.056,1.056,0,0,1-1.055-1.055V3.164A1.056,1.056,0,0,1,3.164,2.109H30.372V9.071a3.168,3.168,0,0,0,3.164,3.164H40.5V25.207a1.055,1.055,0,0,0,2.109,0V11.18a1.055,1.055,0,0,0-.309-.746L32.173.309A1.055,1.055,0,0,0,31.427,0H3.164A3.168,3.168,0,0,0,0,3.164V50.836A3.168,3.168,0,0,0,3.164,54H52.945A1.055,1.055,0,0,0,54,52.945V23.071A1.055,1.055,0,0,0,52.945,22.016ZM32.482,3.6l6.524,6.524h-5.47a1.056,1.056,0,0,1-1.055-1.055Zm-13.5,48.29H14.344V44.547h4.641Zm10.969,0H25.313V38.5h4.641Zm10.969,0H36.281V31.113h4.641Z" fill="#2f2c2c"/>
    </g>
  </g>
  <g id="Group_1225" data-name="Group 1225" transform="translate(45.141 31.102)">
    <g id="Group_1224" data-name="Group 1224">
      <path id="Path_3251" data-name="Path 3251" d="M429.8,295.2a1.054,1.054,0,1,0,.309.746A1.059,1.059,0,0,0,429.8,295.2Z" transform="translate(-428 -294.89)" fill="#2f2c2c"/>
    </g>
  </g>
  <g id="Group_1227" data-name="Group 1227" transform="translate(5.653 5.772)">
    <g id="Group_1226" data-name="Group 1226">
      <path id="Path_3252" data-name="Path 3252" d="M63.3,54.729a1.055,1.055,0,0,0-1.055,1.055v1.9a9.7,9.7,0,1,0,10.7,10.7h1.9A1.055,1.055,0,0,0,75.9,67.325,12.61,12.61,0,0,0,63.3,54.729Zm0,20.187a7.591,7.591,0,0,1-1.055-15.109v7.518A1.055,1.055,0,0,0,63.3,68.379h7.518A7.6,7.6,0,0,1,63.3,74.916Zm1.055-8.646h0V56.891a10.506,10.506,0,0,1,9.379,9.379Z" transform="translate(-53.602 -54.729)" fill="#2f2c2c"/>
    </g>
  </g>
  <g id="Group_1229" data-name="Group 1229" transform="translate(5.695 31.034)">
    <g id="Group_1228" data-name="Group 1228">
      <path id="Path_3253" data-name="Path 3253" d="M75.2,294.25H55.055a1.055,1.055,0,0,0,0,2.109H75.2a1.055,1.055,0,0,0,0-2.109Z" transform="translate(-54 -294.25)" fill="#2f2c2c"/>
    </g>
  </g>
  <g id="Group_1231" data-name="Group 1231" transform="translate(5.695 36.123)">
    <g id="Group_1230" data-name="Group 1230">
      <path id="Path_3254" data-name="Path 3254" d="M61.8,342.5h-6.75a1.055,1.055,0,0,0,0,2.109H61.8a1.055,1.055,0,0,0,0-2.109Z" transform="translate(-54 -342.5)" fill="#2f2c2c"/>
    </g>
  </g>
  <g id="Group_1233" data-name="Group 1233" transform="translate(17.727 36.123)">
    <g id="Group_1232" data-name="Group 1232">
      <path id="Path_3255" data-name="Path 3255" d="M169.88,342.809a1.054,1.054,0,1,0,.309.746A1.063,1.063,0,0,0,169.88,342.809Z" transform="translate(-168.08 -342.5)" fill="#2f2c2c"/>
    </g>
  </g>
</svg>
