<svg xmlns="http://www.w3.org/2000/svg" width="86.618" height="86.595" viewBox="0 0 86.618 86.595">
    <defs>
        <style>
            .cls-1{fill:#61a734}
        </style>
    </defs>
    <g id="approval" transform="translate(-1 -1)">
        <path id="Path_454" d="M19.084 7.295L17.733 4.85c-.838.464-1.676.963-2.483 1.482l1.513 2.348c.754-.48 1.537-.951 2.321-1.385z" class="cls-1" transform="translate(5.658 1.529)"/>
        <path id="Path_455" d="M15.857 9.331l-1.666-2.244c-.773.574-1.537 1.179-2.263 1.8l1.816 2.128c.676-.581 1.389-1.146 2.113-1.684z" class="cls-1" transform="translate(4.339 2.417)"/>
        <path id="Path_456" d="M12.913 11.769l-1.943-2c-.7.673-1.368 1.375-2.006 2.082l2.072 1.875q.912-1.012 1.877-1.957z" class="cls-1" transform="translate(3.162 3.481)"/>
        <path id="Path_457" d="M22.543 5.7l-1.017-2.6c-.891.346-1.785.729-2.654 1.137l1.185 2.53c.81-.387 1.648-.744 2.486-1.067z" class="cls-1" transform="translate(7.096 0.834)"/>
        <path id="Path_458" d="M26.17 4.572l-.652-2.717c-.933.225-1.872.485-2.794.771l.838 2.666c.858-.263 1.738-.505 2.608-.72z" class="cls-1" transform="translate(8.625 0.339)"/>
        <path id="Path_459" d="M4.115 28.3l-2.77-.365c-.124.949-.219 1.918-.279 2.879L3.859 31c.049-.908.141-1.813.256-2.7z" class="cls-1" transform="translate(0.026 10.696)"/>
        <path id="Path_460" d="M4.959 24.608l-2.7-.732c-.25.925-.474 1.873-.661 2.818l2.738.546c.182-.881.39-1.767.623-2.632z" class="cls-1" transform="translate(0.239 9.083)"/>
        <path id="Path_461" d="M10.312 14.571l-2.2-1.728C7.52 13.6 6.943 14.38 6.4 15.175l2.307 1.579c.509-.743 1.046-1.478 1.605-2.182z" class="cls-1" transform="translate(2.144 4.702)"/>
        <path id="Path_462" d="M3.794 32.06L1 32.068c0 .965.036 1.938.1 2.889l2.794-.19q-.1-1.342-.1-2.707z" class="cls-1" transform="translate(0 12.333)"/>
        <path id="Path_463" d="M6.293 21.046l-2.575-1.084c-.373.887-.721 1.8-1.034 2.7l2.64.911c.294-.846.619-1.697.969-2.527z" class="cls-1" transform="translate(0.669 7.529)"/>
        <path id="Path_464" d="M8.088 17.679l-2.407-1.418c-.49.838-.957 1.686-1.387 2.54l2.5 1.257q.611-1.215 1.3-2.379z" class="cls-1" transform="translate(1.308 6.06)"/>
        <path id="Path_465" d="M49.689 6.229c-.81-.514-1.65-1.009-2.5-1.468l-1.331 2.455c.789.429 1.574.891 2.333 1.373z" class="cls-1" transform="translate(17.811 1.493)"/>
        <path id="Path_466" d="M29.9 3.943l-.279-2.779c-.958.1-1.922.229-2.867.39l.471 2.755C28.1 4.158 29 4.035 29.9 3.943z" class="cls-1" transform="translate(10.226 0.065)"/>
        <path id="Path_467" d="M56.312 16.612l2.3-1.593c-.548-.789-1.129-1.57-1.724-2.319L54.7 14.446q.838 1.054 1.612 2.166z" class="cls-1" transform="translate(21.322 4.646)"/>
        <path id="Path_468" d="M56.045 11.717c-.647-.711-1.326-1.408-2.017-2.072l-1.937 2.015c.647.622 1.283 1.274 1.889 1.939z" class="cls-1" transform="translate(20.286 3.433)"/>
        <path id="Path_469" d="M60.58 27.063l2.737-.559c-.194-.94-.419-1.885-.679-2.812l-2.692.749c.24.859.454 1.745.634 2.622z" class="cls-1" transform="translate(23.405 9.01)"/>
        <path id="Path_470" d="M53.055 8.769c-.736-.619-1.5-1.22-2.276-1.788l-1.653 2.262q1.094.8 2.129 1.676z" class="cls-1" transform="translate(19.109 2.375)"/>
        <path id="Path_471" d="M61.005 30.816l2.794-.2c-.067-.964-.168-1.932-.3-2.877l-2.768.381q.179 1.333.274 2.696z" class="cls-1" transform="translate(23.718 10.618)"/>
        <path id="Path_472" d="M59.644 23.4l2.636-.926c-.317-.9-.669-1.806-1.049-2.691l-2.568 1.1c.355.832.685 1.679.981 2.517z" class="cls-1" transform="translate(22.896 7.46)"/>
        <path id="Path_473" d="M37.947 1.517c-.949-.156-1.914-.279-2.87-.373l-.267 2.782q1.355.13 2.684.348z" class="cls-1" transform="translate(13.425 0.057)"/>
        <path id="Path_474" d="M32.4 3.794c.453 0 .852 0 1.274.018l.087-2.794C33.325 1 32.888 1 32.45 1c-.532 0-1.058.01-1.584.028l.1 2.794q.714-.028 1.434-.028z" class="cls-1" transform="translate(11.859 0)"/>
        <path id="Path_475" d="M4.051 35.926l-2.77.373c.13.951.292 1.911.483 2.851l2.736-.558c-.18-.879-.331-1.777-.451-2.666z" class="cls-1" transform="translate(0.112 13.868)"/>
        <path id="Path_476" d="M46 4.148c-.88-.4-1.777-.782-2.67-1.118l-1 2.61q1.27.485 2.5 1.051z" class="cls-1" transform="translate(16.412 0.806)"/>
        <path id="Path_477" d="M42.06 2.567c-.923-.279-1.862-.535-2.794-.753l-.636 2.72c.869.2 1.748.441 2.612.7z" class="cls-1" transform="translate(14.941 0.323)"/>
        <path id="Path_478" d="M58.213 19.9l2.49-1.269c-.433-.851-.905-1.7-1.4-2.53L56.9 17.539c.468.774.908 1.569 1.313 2.361z" class="cls-1" transform="translate(22.196 5.997)"/>
        <path id="Path_479" d="M53.513 52.036l2.077 1.874c.644-.714 1.273-1.456 1.868-2.21l-2.192-1.732q-.847 1.063-1.753 2.068z" class="cls-1" transform="translate(20.851 19.443)"/>
        <path id="Path_480" d="M47.616 56.877l1.514 2.353c.807-.518 1.609-1.07 2.375-1.639l-1.662-2.248q-1.087.8-2.227 1.534z" class="cls-1" transform="translate(18.509 21.577)"/>
        <path id="Path_481" d="M50.73 54.658l1.805 2.132c.732-.62 1.453-1.273 2.144-1.941l-1.943-2.009q-.972.943-2.006 1.818z" class="cls-1" transform="translate(19.746 20.584)"/>
        <path id="Path_482" d="M44.227 58.647l1.173 2.534c.862-.4 1.73-.838 2.579-1.306l-1.347-2.449c-.789.441-1.605.852-2.405 1.221z" class="cls-1" transform="translate(17.164 22.404)"/>
        <path id="Path_483" d="M33 61.034l.092 2.794c.96-.032 1.932-.1 2.888-.193l-.279-2.78c-.894.088-1.8.148-2.7.179z" class="cls-1" transform="translate(12.706 23.766)"/>
        <path id="Path_484" d="M40.618 59.953l.83 2.667c.918-.279 1.837-.6 2.731-.95l-1.006-2.607c-.837.32-1.7.62-2.555.89z" class="cls-1" transform="translate(15.731 23.054)"/>
        <path id="Path_485" d="M36.854 60.753l.461 2.755c.943-.158 1.9-.352 2.836-.576l-.651-2.717c-.873.204-1.766.385-2.646.538z" class="cls-1" transform="translate(14.236 23.512)"/>
        <path id="Path_486" d="M60.425 38.533l2.74.552c.189-.936.349-1.9.478-2.851l-2.77-.37q-.18 1.35-.447 2.67z" class="cls-1" transform="translate(23.595 13.843)"/>
        <path id="Path_487" d="M61.025 31.874v.176q0 1.362-.088 2.7l2.794.186c.056-.951.088-1.924.088-2.891v-.176z" class="cls-1" transform="translate(23.799 12.259)"/>
        <path id="Path_488" d="M59.406 42.241l2.639.916c.314-.9.6-1.834.856-2.763l-2.695-.736c-.237.868-.507 1.735-.8 2.583z" class="cls-1" transform="translate(23.191 15.349)"/>
        <path id="Path_489" d="M57.892 45.776l2.494 1.257c.436-.862.847-1.746 1.218-2.625l-2.572-1.092c-.349.827-.732 1.654-1.14 2.46z" class="cls-1" transform="translate(22.589 16.802)"/>
        <path id="Path_490" d="M55.915 49.058l2.3 1.581c.545-.792 1.07-1.612 1.559-2.438l-2.4-1.426q-.692 1.168-1.459 2.283z" class="cls-1" transform="translate(21.804 18.175)"/>
        <path id="Path_491" d="M4.8 39.718l-2.69.742c.253.921.543 1.85.861 2.762L5.61 42.3c-.3-.852-.569-1.721-.8-2.582z" class="cls-1" transform="translate(0.441 15.373)"/>
        <path id="Path_492" d="M17.132 59.9c.848.465 1.718.9 2.583 1.3l1.175-2.536c-.81-.374-1.623-.785-2.418-1.22z" class="cls-1" transform="translate(6.405 22.416)"/>
        <path id="Path_493" d="M9.885 50L7.7 51.739c.6.753 1.227 1.493 1.871 2.2l2.07-1.878q-.915-1-1.756-2.066z" class="cls-1" transform="translate(2.66 19.456)"/>
        <path id="Path_494" d="M10.477 54.882c.689.666 1.411 1.317 2.147 1.939l1.8-2.136c-.689-.581-1.365-1.19-2.009-1.816z" class="cls-1" transform="translate(3.763 20.595)"/>
        <path id="Path_495" d="M6.045 43.37l-2.572 1.094c.374.877.785 1.759 1.224 2.619l2.49-1.267c-.41-.803-.794-1.626-1.142-2.446z" class="cls-1" transform="translate(0.982 16.823)"/>
        <path id="Path_496" d="M7.747 46.816l-2.4 1.432c.49.823 1.016 1.642 1.561 2.432l2.3-1.587q-.764-1.11-1.461-2.277z" class="cls-1" transform="translate(1.726 18.192)"/>
        <path id="Path_497" d="M13.639 57.621c.777.571 1.58 1.118 2.388 1.637l1.5-2.355c-.756-.482-1.506-1-2.235-1.537z" class="cls-1" transform="translate(5.018 21.586)"/>
        <path id="Path_498" d="M28.933 63.641c.951.094 1.922.156 2.885.187l.089-2.794q-1.362-.045-2.7-.176z" class="cls-1" transform="translate(11.091 23.767)"/>
        <path id="Path_499" d="M24.85 62.944c.937.222 1.892.419 2.836.57l.458-2.756c-.884-.147-1.776-.326-2.654-.532z" class="cls-1" transform="translate(9.47 23.516)"/>
        <path id="Path_500" d="M20.892 61.691c.9.345 1.816.664 2.74.947l.821-2.67c-.858-.265-1.72-.559-2.561-.886z" class="cls-1" transform="translate(7.898 23.062)"/>
        <path id="Path_501" d="M73.265 41.132a32.132 32.132 0 1 0-32.133 32.133 32.132 32.132 0 0 0 32.133-32.133zM41.132 70.471a29.338 29.338 0 1 1 29.339-29.339 29.338 29.338 0 0 1-29.339 29.339z" class="cls-1" transform="translate(3.176 3.176)"/>
        <path id="Path_502" d="M39.544 13a26.544 26.544 0 1 0 26.544 26.544A26.544 26.544 0 0 0 39.544 13zm0 50.294a23.75 23.75 0 1 1 23.75-23.75 23.75 23.75 0 0 1-23.75 23.75z" class="cls-1" transform="translate(4.765 4.765)"/>
        <path id="Path_503" d="M48.135 24.409a1.4 1.4 0 0 0-1.975 0L33.176 37.392l-4.6-4.6a1.4 1.4 0 0 0-1.975 0l-4.191 4.191a1.4 1.4 0 0 0-.085 1.882l5.56 6.674a6.147 6.147 0 0 0 9.068.411L52.32 30.581a1.4 1.4 0 0 0 0-1.975zM34.977 43.968a3.445 3.445 0 0 1-4.946-.224l-4.75-5.693 2.307-2.3 4.6 4.6a1.4 1.4 0 0 0 1.975 0l12.984-12.979 2.216 2.216z" class="cls-1" transform="translate(8.338 9.132)"/>
    </g>
</svg>
