<svg xmlns="http://www.w3.org/2000/svg" width="15.438" height="13.042" viewBox="0 0 15.438 13.042">
  <path id="bulk_sms" d="M156.649,134.262h-7.313a4.067,4.067,0,0,0-4.063,4.063v7.888a1.09,1.09,0,0,0,1.644.941l2.865-1.446h6.867a4.067,4.067,0,0,0,4.063-4.063v-3.321A4.067,4.067,0,0,0,156.649,134.262Zm-.259,8.005h-2.9a.891.891,0,1,1,0-1.781h2.9a.891.891,0,1,1,0,1.781Zm0-3.041H149.6a.891.891,0,1,1,0-1.781h6.793a.891.891,0,1,1,0,1.781Zm0,0" transform="translate(-145.273 -134.262)" fill="#3c4e71"/>
</svg>
