<svg xmlns="http://www.w3.org/2000/svg" width="11.395" height="14.207" viewBox="0 0 11.395 14.207">
  <g id="buyer-icon-esus" transform="translate(-6347.997 20357.023)">
    <path id="Path_25912" data-name="Path 25912" d="M-233.59,1457.287v1.6l3,1.714a1.963,1.963,0,0,1,.989,1.7v2.559H-241v-2.5a2.059,2.059,0,0,1,1.037-1.787l2.951-1.686v-1.6" transform="translate(6588.994 -21808.186)" fill="#f9bc36" fill-rule="evenodd"/>
    <path id="Path_25913" data-name="Path 25913" d="M-233.59,1459.391l.1.058,2.9,1.656a1.963,1.963,0,0,1,.989,1.7v2.559H-241v-2.5a2.058,2.058,0,0,1,1.037-1.787l2.951-1.686.312,1.1,1.344,1.2,1.318-.938Z" transform="translate(6588.994 -21808.688)" fill="#406b95" fill-rule="evenodd"/>
    <path id="Path_25914" data-name="Path 25914" d="M-234.225,1461.669l-.287.033-1.576-.026c-.236,0-.454-.082-.425-.328l.57-1.958a4.632,4.632,0,0,0,1.081,1.684" transform="translate(6587.924 -21808.688)" fill="#0c5286" fill-rule="evenodd"/>
    <path id="Path_25915" data-name="Path 25915" d="M-233.514,1461.67h.653l1.294.008c.31,0,.509-.083.444-.328a19.761,19.761,0,0,1-.674-1.96,4.8,4.8,0,0,1-1.051,1.66" transform="translate(6587.208 -21808.688)" fill="#0c5286" fill-rule="evenodd"/>
    <path id="Path_25916" data-name="Path 25916" d="M-238.5,1464.631v1.988h.761v-1.988Zm6.846,0v1.988h.761v-1.988Z" transform="translate(6588.399 -21809.938)" fill="#0c5286" fill-rule="evenodd"/>
    <path id="Path_25917" data-name="Path 25917" d="M-235.758,1457.287v.555a2.252,2.252,0,0,0,1.709.792,2.252,2.252,0,0,0,1.709-.793v-.554Z" transform="translate(6587.744 -21808.186)" fill="#f9b036" fill-rule="evenodd"/>
    <path id="Path_25918" data-name="Path 25918" d="M-235.242,1449.847a1.272,1.272,0,0,0-1.266,1.282v1.14c0,.008,0,.01,0,.015s0,.01,0,.015v1.538a2.289,2.289,0,0,0,2.28,2.308,2.289,2.289,0,0,0,2.28-2.308V1452.3c0-.008,0-.01,0-.015s0-.01,0-.015v-1.67c-.1-.794-.486-1.36-1.269-1.357-.024.371-.414.581-.762.6Z" transform="translate(6587.923 -21806.266)" fill="#f9bc36"/>
    <path id="Path_25919" data-name="Path 25919" d="M-233.218,1449.243c-.024.371-.414.581-.761.6h-1.263a1.271,1.271,0,0,0-1.266,1.282v1.14c0,.008,0,.01,0,.015s0,.01,0,.015v.223a.785.785,0,0,0,.139-.067,2.738,2.738,0,0,0,.328-.254,3.161,3.161,0,0,0,.3-.3c.077-.091.121-.19.11-.151a.285.285,0,0,1,.259-.211.282.282,0,0,1,.263.142.925.925,0,0,0,.608.475,3.03,3.03,0,0,0,.89.053,4.537,4.537,0,0,1,1.015.022,1.343,1.343,0,0,1,.65.316v-.248c0-.008,0-.01,0-.014s0-.01,0-.015V1450.6c-.1-.794-.485-1.36-1.269-1.357Z" transform="translate(6587.923 -21806.266)" fill="#ee7581"/>
    <g id="Group_19043" data-name="Group 19043" transform="translate(6352.968 -20347.354)">
      <path id="Path_25920" data-name="Path 25920" d="M-233.323,1463.043l.382,2.891-.764.809-.764-.809.382-2.891" transform="translate(234.468 -1462.206)" fill="#8fb6d7" fill-rule="evenodd"/>
      <path id="Path_25921" data-name="Path 25921" d="M-233.987,1463.042l-.062.473a.571.571,0,0,0,.445.213.571.571,0,0,0,.445-.213l-.062-.473h-.764Z" transform="translate(234.368 -1462.205)" fill="#d2dce9" fill-rule="evenodd"/>
      <path id="Path_25922" data-name="Path 25922" d="M-233.073,1462.514a.571.571,0,0,1-.571.571.571.571,0,0,1-.571-.571.571.571,0,0,1,.571-.571A.571.571,0,0,1-233.073,1462.514Z" transform="translate(234.408 -1461.943)" fill="#8fb6d7"/>
    </g>
  </g>
</svg>
