<svg xmlns="http://www.w3.org/2000/svg" width="14.107" height="16.944" viewBox="0 0 14.107 16.944">
  <g id="buyer-icon" transform="translate(-97.122 -74.642)">
    <path id="Path_2031" data-name="Path 2031" d="M-292.73,1348.307a2.572,2.572,0,0,1,.946-.946l3.6-2.116V1341.8h4.486v3.449l3.59,2.15a2.434,2.434,0,0,1,.617.5,2.47,2.47,0,0,1,.286.4l.446,1.09a19.6,19.6,0,0,1-7.6,2.361l-6.512-2.238Z" transform="translate(389.983 -1260.163)" fill="#a6b7d5" fill-rule="evenodd"/>
    <path id="Path_2035" data-name="Path 2035" d="M-289.555,321.434v3.451l-.006,0,.614.672,1.613,1.436,2.264-2.126v-3.437Z" transform="translate(391.359 -239.801)" fill="#a6b7d5" fill-rule="evenodd"/>
    <path id="Path_2036" data-name="Path 2036" d="M-289.557,321.434v2.947a3.074,3.074,0,0,0,2.206.93,3.066,3.066,0,0,0,2.28-1.024v-2.853Z" transform="translate(391.361 -239.801)" fill="#a6b7d5" stroke="#fff" stroke-width="0.5"/>
    <path id="Path_2037" data-name="Path 2037" d="M-288.468,1337.69a1.738,1.738,0,0,0-1.727,1.755v1.56s0,.018,0,.02,0,.018,0,.02v2.106a3.129,3.129,0,0,0,3.11,3.16,3.129,3.129,0,0,0,3.11-3.16v-2.106s0-.017,0-.02,0-.018,0-.02v-2.286c-.141-1.087-.662-1.862-1.731-1.857a1.029,1.029,0,0,1-1.039.828Z" transform="translate(391.095 -1262.219)" fill="#a6b7d5"/>
    <path id="Path_2038" data-name="Path 2038" d="M-285.707,316.5a1.028,1.028,0,0,1-1.038.827h-1.724a1.736,1.736,0,0,0-1.727,1.754v1.561s0,.018,0,.019,0,.018,0,.019v.183c.019,0,.039-.006.058-.009-.037,0,0,0,.069-.047a3.213,3.213,0,0,0,.385-.3,3.888,3.888,0,0,0,.357-.363c.087-.1.122-.24.078-.072a.709.709,0,0,1,.648-.526.709.709,0,0,1,.65.357.845.845,0,0,0,.595.468,3.645,3.645,0,0,0,1.063.061,6.066,6.066,0,0,1,1.4.036,2.16,2.16,0,0,1,.916.421v-.208s0-.017,0-.019,0-.018,0-.019v-2.286c-.141-1.087-.664-1.862-1.732-1.857Z" transform="translate(391.095 -241.858)" fill="#a6b7d5"/>
  </g>
</svg>
