<svg xmlns="http://www.w3.org/2000/svg" width="21.764" height="21.846" viewBox="0 0 21.764 21.846">
  <g id="telephone" transform="translate(-0.911 0)">
    <path id="Path_162" data-name="Path 162" d="M5.322,14.522a23.176,23.176,0,0,0,7.709,6.039,12,12,0,0,0,4.314,1.277c.1,0,.2.009.308.009a3.572,3.572,0,0,0,2.77-1.191.1.1,0,0,0,.018-.023,11.664,11.664,0,0,1,.874-.905c.213-.2.43-.416.638-.634a2.186,2.186,0,0,0-.009-3.255l-2.721-2.721a2.2,2.2,0,0,0-1.593-.733,2.276,2.276,0,0,0-1.611.729L14.4,14.734c-.149-.086-.3-.163-.448-.235a5.6,5.6,0,0,1-.5-.272,17.151,17.151,0,0,1-4.1-3.73A9.877,9.877,0,0,1,7.97,8.288C8.4,7.9,8.794,7.5,9.179,7.107c.136-.14.276-.281.416-.421a2.321,2.321,0,0,0,.751-1.63,2.3,2.3,0,0,0-.751-1.63L8.246,2.078c-.158-.158-.308-.312-.462-.471C7.486,1.3,7.173.982,6.865.7A2.257,2.257,0,0,0,5.272,0,2.323,2.323,0,0,0,3.661.7L1.968,2.395A3.478,3.478,0,0,0,.931,4.622,8.378,8.378,0,0,0,1.56,8.243,21.068,21.068,0,0,0,5.322,14.522Zm-3.286-9.8a2.394,2.394,0,0,1,.72-1.539L4.439,1.494a1.219,1.219,0,0,1,.833-.385,1.157,1.157,0,0,1,.815.394c.3.281.588.575.9.887.154.158.312.317.471.48L8.8,4.219a1.229,1.229,0,0,1,.426.846,1.229,1.229,0,0,1-.426.846c-.14.14-.281.285-.421.426-.421.426-.815.828-1.249,1.213l-.023.023a.885.885,0,0,0-.226,1c0,.014.009.023.014.036A10.654,10.654,0,0,0,8.486,11.2a18.1,18.1,0,0,0,4.364,3.974,6.479,6.479,0,0,0,.6.326,5.6,5.6,0,0,1,.5.272l.05.027a.946.946,0,0,0,.439.113.96.96,0,0,0,.674-.308L16.8,13.91a1.2,1.2,0,0,1,.828-.4,1.137,1.137,0,0,1,.8.4l2.73,2.725a1.092,1.092,0,0,1-.014,1.707c-.19.2-.389.4-.6.6a13.036,13.036,0,0,0-.946.982,2.485,2.485,0,0,1-1.942.824c-.077,0-.158,0-.235-.009a10.9,10.9,0,0,1-3.9-1.168,22.017,22.017,0,0,1-7.338-5.749A20.166,20.166,0,0,1,2.606,7.872,7.3,7.3,0,0,1,2.035,4.717Z" transform="translate(0 0)" fill="#1a1b3a"/>
  </g>
</svg>
