<svg xmlns="http://www.w3.org/2000/svg" width="120" height="120" viewBox="0 0 120 120">
    <defs>
        <style>
            .cls-2{fill:#61a734}
        </style>
    </defs>
    <g id="Group_1308" transform="translate(-310 -1196)">
        <g id="Ellipse_13" fill="#fff" stroke="#c2c9d8" transform="translate(310 1196)">
            <circle cx="60" cy="60" r="60" stroke="none"/>
            <circle cx="60" cy="60" r="59.5" fill="none"/>
        </g>
        <g id="support" transform="translate(315 1218.496)">
            <g id="Group_1217" transform="translate(68.326 50.791)">
                <g id="Group_1216">
                    <path id="Path_3247" d="M357.283 396a1.283 1.283 0 1 0 1.283 1.283 1.283 1.283 0 0 0-1.283-1.283z" class="cls-2" transform="translate(-356 -396)"/>
                </g>
            </g>
            <g id="Group_1219" transform="translate(26)">
                <g id="Group_1218">
                    <path id="Path_3248" d="M72.767 46.644l-6.1-2.032-2.189-4.377a14.048 14.048 0 0 0 3.8-7.432l.273-1.636h2.334a3.852 3.852 0 0 0 3.848-3.848v-8.08a19.239 19.239 0 1 0-38.478 0v8.08a3.854 3.854 0 0 0 2.565 3.627v1.5a3.852 3.852 0 0 0 3.854 3.854H43.8a13.915 13.915 0 0 0 2.151 3.331c.182.209.371.411.565.608l-2.186 4.373-6.1 2.032C31.145 49.007 26 56.47 26 64.387a1.283 1.283 0 0 0 1.283 1.283h56.434A1.283 1.283 0 0 0 85 64.387c0-7.917-5.145-15.38-12.233-17.743zm-.593-19.324a1.284 1.284 0 0 1-1.283 1.28h-1.957c.326-2.525.543-5.213.631-7.86 0-.075 0-.147.007-.221h2.6zM40.109 28.6a1.284 1.284 0 0 1-1.283-1.283v-6.8h2.6l.014.4v.014c.09 2.574.3 5.192.623 7.662h-1.954zm2.565 5.13a1.284 1.284 0 0 1-1.283-1.283v-1.28h1.051l.273 1.636c.052.311.116.621.19.929zm-1.28-15.776h-2.519a16.675 16.675 0 0 1 33.25 0h-2.518A12.991 12.991 0 0 0 56.648 5.13h-2.3a12.991 12.991 0 0 0-12.955 12.827zM54.352 7.7h2.3a10.429 10.429 0 0 1 10.4 10.442c0 .4 0 .755-.01 1.075v.013L65.429 19a20.61 20.61 0 0 1-11.587-5.8 1.283 1.283 0 0 0-.907-.376 11.6 11.6 0 0 0-8.922 4.221A10.426 10.426 0 0 1 54.352 7.7zm-8.787 26.033a73.313 73.313 0 0 1-1.539-12.448l1.726-2.3a9.028 9.028 0 0 1 6.676-3.577 23.2 23.2 0 0 0 12.638 6.129l1.888.27c-.126 2.679-.384 5.367-.754 7.839-.117.795-.21 1.306-.447 2.735a10.894 10.894 0 0 1-7.732 8.762A10.091 10.091 0 0 1 46.693 36.3h2.615a3.854 3.854 0 0 0 3.627 2.565H55.5a3.848 3.848 0 0 0 0-7.7h-2.565a3.85 3.85 0 0 0-3.629 2.565zm7.262 10.006a12.865 12.865 0 0 0 4.771.107l-2.266 2.4zm.741 4.369L49.5 52.41a48.87 48.87 0 0 1-2.872-6.659l1.528-3.051zm9.059-5.847l1.745 3.49a48.857 48.857 0 0 1-2.872 6.661l-4.354-4.354zm-10.975-7.246a1.283 1.283 0 0 1 1.283-1.283H55.5a1.283 1.283 0 1 1 0 2.565h-2.565a1.284 1.284 0 0 1-1.283-1.282zM28.617 63.1c.508-6.354 4.737-12.129 10.428-14.027l5.4-1.8a51.417 51.417 0 0 0 3.649 7.927l.007.013a51.428 51.428 0 0 0 3.511 5.361L53.19 63.1zM55.5 61.961l-1.739-2.793q-.029-.047-.062-.091a48.9 48.9 0 0 1-2.89-4.318l4.574-4.837 4.82 4.82a48.85 48.85 0 0 1-2.9 4.335c-.064.084.025-.048-1.803 2.884zm2.31 1.139l1.578-2.533a51.411 51.411 0 0 0 3.535-5.4l.019-.034a51.375 51.375 0 0 0 3.612-7.851l5.4 1.8c5.691 1.9 9.92 7.673 10.428 14.027z" class="cls-2" transform="translate(-26)"/>
                </g>
            </g>
            <g id="Group_1221" transform="translate(72.833 53.24)">
                <g id="Group_1220">
                    <path id="Path_3249" d="M396.835 419.763a12.825 12.825 0 0 0-3.631-4.408 1.283 1.283 0 0 0-1.564 2.033 10.243 10.243 0 0 1 2.9 3.521 1.283 1.283 0 0 0 2.295-1.146z" class="cls-2" transform="translate(-391.139 -415.088)"/>
                </g>
            </g>
        </g>
    </g>
</svg>
