<svg xmlns="http://www.w3.org/2000/svg" width="74.802" height="75.429" viewBox="0 0 74.802 75.429">
    <defs>
        <style>
            .cls-1{fill:#2f9d7c}.cls-2{fill:#ffdc64}.cls-3{fill:#a0d755}.cls-4{fill:#8cc355}.cls-5{fill:#ffc850}.cls-6{fill:#9b735a}.cls-7{fill:#8c5f50}.cls-8{fill:#f5af73}.cls-11{fill:#fff082}.cls-12{fill:#e1a546}
        </style>
    </defs>
    <g id="Group_472" transform="translate(-1005 -355)">
        <g id="field" transform="translate(1005 354.999)">
            <path id="Path_73" d="M307.478 400.957a46.684 46.684 0 0 0-32.856 13.731 1.461 1.461 0 0 0 2.072 2.061 43.742 43.742 0 0 1 30.784-12.87 1.461 1.461 0 1 0 0-2.922zm0 0" class="cls-1" transform="translate(-234.138 -342.378)"/>
            <path id="Path_74" d="M188.5 387.935a1.46 1.46 0 0 0-2.028-.393 57.664 57.664 0 0 0-15.683 15.693 1.461 1.461 0 1 0 2.426 1.629 54.743 54.743 0 0 1 14.892-14.9 1.461 1.461 0 0 0 .393-2.029zm0 0" class="cls-1" transform="translate(-145.627 -330.709)"/>
            <path id="Path_75" d="M384 320.457a57.456 57.456 0 0 0-19.215 3.316 1.461 1.461 0 1 0 .975 2.754 54.546 54.546 0 0 1 18.24-3.148 1.461 1.461 0 1 0 0-2.922zm0 0" class="cls-1" transform="translate(-310.662 -273.639)"/>
            <path id="Path_76" d="M20.932 64.777A66.589 66.589 0 0 1 59.81 40.283h.008a65.115 65.115 0 0 1 13.522-1.426 1.461 1.461 0 1 0 0-2.922 68.75 68.75 0 0 0-12.36 1.124V33.9c5.281-4.47 8.179-10.328 8.179-16.565 0-6.449-3.1-12.492-8.725-17.016a1.462 1.462 0 0 0-1.831 0c-5.625 4.528-8.724 10.571-8.724 17.021 0 6.238 2.9 12.1 8.179 16.565v3.751a69.176 69.176 0 0 0-8.191 2.407v-8.554a1.456 1.456 0 0 0-.425-1.03l-8.181-8.23a1.462 1.462 0 0 0-1.036-.431h-16.7a1.461 1.461 0 0 0-1.036.431L14.3 30.478a1.457 1.457 0 0 0-.425 1.03v5.579q-1.527-.28-3.068-.491v-5.207A16.674 16.674 0 0 0 17 18.7a16.828 16.828 0 0 0-6.73-13.143 1.461 1.461 0 0 0-1.831 0A16.827 16.827 0 0 0 1.705 18.7a16.674 16.674 0 0 0 6.184 12.688v4.873q-3.2-.3-6.428-.3a1.461 1.461 0 0 0 0 2.922 65.894 65.894 0 0 1 33.182 8.955 68.966 68.966 0 0 0-6.9 5.36 58.123 58.123 0 0 0-26.282-6.355 1.461 1.461 0 1 0 0 2.922 55.154 55.154 0 0 1 23.985 5.552 69.047 69.047 0 0 0-6.213 6.877A45.7 45.7 0 0 0 1.461 58.6a1.461 1.461 0 0 0 0 2.922 42.757 42.757 0 0 1 15.952 3.088q-1.514 2.1-2.871 4.323l-2.227 3.647a1.461 1.461 0 1 0 2.494 1.52l2.226-3.647a64.857 64.857 0 0 1 3.752-5.489 1.383 1.383 0 0 0 .145-.187zM52.8 17.34a18.643 18.643 0 0 1 6.719-13.966 18.643 18.643 0 0 1 6.719 13.966 18.187 18.187 0 0 1-5.258 12.549V18.7a1.461 1.461 0 1 0-2.922 0v11.189A18.185 18.185 0 0 1 52.8 17.34zM4.627 18.7A13.671 13.671 0 0 1 9.35 8.623 13.67 13.67 0 0 1 14.073 18.7a13.208 13.208 0 0 1-3.262 8.553v-9.721a1.461 1.461 0 0 0-2.922 0v9.722A13.208 13.208 0 0 1 4.627 18.7zm40.267 11.348H32.311l-5.277-5.308h12.584zm-21.373-4.7l4.669 4.7h-9.337zM16.8 32.97h13.442v9.29q-1.016-.467-2.045-.9v-4.909a1.461 1.461 0 0 0-1.461-1.461h-6.429a1.462 1.462 0 0 0-1.461 1.461v1.737q-1.019-.265-2.045-.5zm8.474 7.236q-1.738-.64-3.506-1.186v-1.108h3.506zm7.889 3.485V32.97h13.783v8.23a68.569 68.569 0 0 0-7.319 3.551q-1.137.638-2.247 1.32-2.071-1.271-4.216-2.381zm0 0" class="cls-1"/>
            <path id="Path_77" d="M398.859 82.922a1.463 1.463 0 1 0-1.032-.429 1.471 1.471 0 0 0 1.032.429zm0 0" class="cls-1" transform="translate(-339.34 -68.311)"/>
            <path id="Path_78" d="M318.1 362.764a1.459 1.459 0 1 0 1.033-.429 1.474 1.474 0 0 0-1.033.429zm0 0" class="cls-1" transform="translate(-271.258 -309.399)"/>
        </g>
        <g id="farmer_1_" transform="translate(952.027 373)">
            <path id="Path_266" d="M130.494 340.092l-4.536-1.512h-18.525l-4.536 1.512a5.558 5.558 0 0 0-3.8 5.272v10.815a1.853 1.853 0 0 0 1.853 1.853h31.494a1.853 1.853 0 0 0 1.853-1.853v-10.814a5.558 5.558 0 0 0-3.803-5.273z" class="cls-2" transform="translate(-15.722 -300.603)"/>
            <g id="Group_245" transform="translate(89.858 37.977)">
                <path id="Path_267" d="M160.607 338.581h-1.852l-1.853.617v13.277h3.705z" class="cls-3" transform="translate(-156.902 -338.581)"/>
                <path id="Path_268" d="M322.064 338.581h1.853l1.853.617v13.277h-3.705z" class="cls-3" transform="translate(-303.538 -338.581)"/>
            </g>
            <path id="Rectangle_573" d="M0 0H1.853V13.894H0z" class="cls-4" transform="translate(108.383 37.977)"/>
            <path id="Path_269" d="M174.881 0h-14.536a1.852 1.852 0 0 0-1.831 1.571L156.9 12.042h22.231l-2.445-10.606A1.853 1.853 0 0 0 174.881 0z" class="cls-2" transform="translate(-67.045)"/>
            <path id="Path_270" d="M163.55 8.2l1.261-8.2h-4.467a1.853 1.853 0 0 0-1.831 1.571L156.9 12.042h22.231l-.641-2.779h-14.024a.926.926 0 0 1-.916-1.063z" class="cls-5" transform="translate(-67.044)"/>
            <path id="Path_271" d="M144.458 123.871h-25.935a88.786 88.786 0 0 0-2.762 18.162 1.838 1.838 0 0 0 1.222 1.768 61.8 61.8 0 0 0 14.507 3.227A61.8 61.8 0 0 0 146 143.8a1.838 1.838 0 0 0 1.222-1.768 88.794 88.794 0 0 0-2.764-18.161z" class="cls-6" transform="translate(-30.517 -109.977)"/>
            <g id="Group_246" transform="translate(85.243 13.894)">
                <path id="Path_272" d="M140.818 126.65h16.5a24.025 24.025 0 0 0 5.259-.583c-.319-1.379-.541-2.2-.541-2.2H136.1s-.223.816-.541 2.2a24.024 24.024 0 0 0 5.259.583z" class="cls-7" transform="translate(-133.338 -123.871)"/>
                <path id="Path_273" d="M145.29 144.05c-1.4-13.975-11.946-19.253-11.946-19.253l-14.82-.926a88.786 88.786 0 0 0-2.762 18.162 1.838 1.838 0 0 0 1.222 1.768 61.8 61.8 0 0 0 14.507 3.227 62.362 62.362 0 0 0 13.8-2.977z" class="cls-7" transform="translate(-115.761 -123.871)"/>
            </g>
            <path id="Rectangle_574" d="M0 0H11.116V11.116H0z" class="cls-8" transform="translate(95.415 28.715)"/>
            <path id="Path_274" fill="#f5965f" d="M212.008 262.484a11.9 11.9 0 0 0 5.558-1.382V256H206.45v5.1a11.905 11.905 0 0 0 5.558 1.384z" transform="translate(-111.035 -227.285)"/>
            <path id="Path_275" d="M245.465 355.175h-.926a.926.926 0 0 1-.926-.926v-7.41h2.779v7.41a.926.926 0 0 1-.927.926z" class="cls-5" transform="translate(-144.028 -307.934)"/>
            <path id="Path_276" fill="#f5c882" d="M186.464 135.834h-.926a1.853 1.853 0 0 1-1.853-1.853v-1.853H165.16v8.337a10.183 10.183 0 0 0 20.345.652 1.82 1.82 0 0 0 1.331.236 1.944 1.944 0 0 0 1.48-1.934v-1.733a1.853 1.853 0 0 0-1.852-1.852z" transform="translate(-74.376 -117.309)"/>
            <path id="Path_277" d="M175.349 126.65h8.337v-2.779H165.16v9.263c.011-.006.023.658.033.651a10.16 10.16 0 0 0 12.018 9.363 10.186 10.186 0 0 1-8.346-10.014 6.484 6.484 0 0 1 6.484-6.484z" class="cls-8" transform="translate(-74.376 -109.977)"/>
            <g id="Group_248" transform="translate(91.71 34.979)">
                <path id="Path_281" d="M177.672 312.2l5.011 3.579-3.337 2.669a1.853 1.853 0 0 1-2.467-.137l-3.459-3.459 1.693-2.257a1.852 1.852 0 0 1 2.559-.395z" class="cls-11" transform="translate(-173.42 -311.85)"/>
                <path id="Path_282" d="M261.01 312.2l-5.01 3.575 3.337 2.669a1.853 1.853 0 0 0 2.467-.137l3.459-3.459-1.693-2.257a1.853 1.853 0 0 0-2.56-.391z" class="cls-11" transform="translate(-246.736 -311.85)"/>
            </g>
            <path id="Path_283" d="M130.564 123.871h-12.041a88.8 88.8 0 0 0-2.762 18.161 1.836 1.836 0 0 0 1.219 1.767q.318.116.712.252a27.1 27.1 0 0 1 12.872-20.18z" class="cls-6" transform="translate(-30.517 -109.977)"/>
            <path id="Path_284" d="M135.559 126.066a24.023 24.023 0 0 0 5.259.583h3.533a23.035 23.035 0 0 1 3.791-2.779H136.1s-.222.817-.541 2.196z" class="cls-7" transform="translate(-48.095 -109.977)"/>
            <path id="Path_285" d="M109.223 102.8h-16.5a22.23 22.23 0 0 1-9.029-1.916l-2.031-.9a.463.463 0 0 1 .188-.886H120.1a.463.463 0 0 1 .188.886l-2.031.9a22.231 22.231 0 0 1-9.034 1.916z" class="cls-12" transform="translate(0 -87.982)"/>
            <g id="Group_249" transform="translate(83.374 38.595)">
                <path id="Path_286" d="M105.58 344.086l-2.684.895a5.558 5.558 0 0 0-3.8 5.272v10.815a1.853 1.853 0 0 0 1.853 1.853h4.631z" class="cls-5" transform="translate(-99.096 -344.086)"/>
                <path id="Path_287" d="M355.1 344.086l2.684.895a5.558 5.558 0 0 1 3.8 5.272v10.815a1.853 1.853 0 0 1-1.853 1.853H355.1z" class="cls-5" transform="translate(-326.381 -344.086)"/>
            </g>
            <g id="Group_250" transform="translate(88.005 47.24)">
                <path id="Path_288" d="M142.239 431.35h-1.853v-9.263a.926.926 0 0 1 .926-.926.926.926 0 0 1 .926.926v9.263z" class="cls-12" transform="translate(-140.386 -421.161)"/>
                <path id="Path_289" d="M356.949 431.35H355.1v-9.263a.926.926 0 0 1 .926-.926.926.926 0 0 1 .926.926z" class="cls-12" transform="translate(-331.013 -421.161)"/>
            </g>
            <path id="Path_290" d="M156.9 352.475h1.853v-13.894l-1.853.617z" class="cls-4" transform="translate(-67.044 -300.604)"/>
            <path id="Path_291" fill="#b4e66e" d="M177.281 445.935h-18.525a1.853 1.853 0 0 0-1.853 1.853v5.558h22.231v-5.558a1.853 1.853 0 0 0-1.853-1.853z" transform="translate(-67.045 -395.916)"/>
            <g id="Group_251" transform="translate(92.174 52.335)">
                <circle id="Ellipse_255" cx="1.389" cy="1.389" r="1.389" class="cls-11"/>
                <circle id="Ellipse_256" cx="1.389" cy="1.389" r="1.389" class="cls-11" transform="translate(14.819)"/>
            </g>
        </g>
    </g>
</svg>
