<svg xmlns="http://www.w3.org/2000/svg" width="16.336" height="16.336" viewBox="0 0 16.336 16.336">
    <defs>
        <style>
            .cls-1{fill:#3c4e71}
        </style>
    </defs>
    <g id="farmercrops">
        <g id="Group_490">
            <g id="Group_488">
                <path id="Path_367" d="M8.044 3.364A4.068 4.068 0 0 0 5.9.751 5 5 0 0 0 1.506.32a3.122 3.122 0 0 0-1.33.986L0 1.535l.147.249A6.591 6.591 0 0 0 1 2.962a7.006 7.006 0 0 0 5.78 2.565 1.638 1.638 0 0 0-.124-.22A6.467 6.467 0 0 0 3.554 2.8l.364-.89A7.4 7.4 0 0 1 7.46 4.79l.172.287a2.291 2.291 0 0 0 .412-1.713z" class="cls-1"/>
            </g>
            <g id="Group_489" transform="translate(8.263 .002)">
                <path id="Path_368" d="M266.9 1.356c-1.073-1.283-3.322-1.89-5.77-.546A4.044 4.044 0 0 0 259 3.414a2.292 2.292 0 0 0 .412 1.713l.172-.287a7.4 7.4 0 0 1 3.542-2.881l.364.89a6.434 6.434 0 0 0-3.092 2.5c-.048.077-.1.153-.134.23a7.005 7.005 0 0 0 5.781-2.565 8.081 8.081 0 0 0 .884-1.177l.115-.249z" class="cls-1" transform="translate(-258.966 -.052)"/>
            </g>
        </g>
        <g id="Agriculture" transform="translate(0 10.561)">
            <g id="Group_491">
                <path id="Path_369" d="M16.336 336.775H0v-.51a3.372 3.372 0 0 1 4.474-3.158 4.291 4.291 0 0 1 7.387 0 3.372 3.372 0 0 1 4.474 3.158z" class="cls-1" transform="translate(0 -331)"/>
            </g>
        </g>
        <path id="Path_370" d="M215.276 159.572a7.538 7.538 0 0 0-.909 3.676v.392a4.009 4.009 0 0 0-.957 0v-.392a7.483 7.483 0 0 0-.909-3.676 5.333 5.333 0 0 0 .852-.45 7.02 7.02 0 0 1 .536 1.187 6.694 6.694 0 0 1 .536-1.187 5.334 5.334 0 0 0 .851.45z" class="cls-1" transform="translate(-205.72 -154.045)"/>
    </g>
</svg>
