<svg xmlns="http://www.w3.org/2000/svg" width="61.155" height="64.634" viewBox="0 0 61.155 64.634">
  <g id="farmer" transform="translate(-28.927 -34.634)">
    <path id="Path_3221" data-name="Path 3221" d="M87.8,83.935l-8.792-3.889V78.305A16.844,16.844,0,0,0,86.8,68.4a3.68,3.68,0,0,0,2.117-.606A4,4,0,0,0,90.8,64.961a3.882,3.882,0,0,0-1.7-3.745c5.626-1.228,8.483-2.972,8.483-5.194,0-2.7-4.244-4.4-9.57-5.416V44.764a1.126,1.126,0,0,0-.69-1.038c-10.7-4.5-20.219-4.485-29.093.035a1.126,1.126,0,0,0-.615,1V50.4c-5.841.988-10.7,2.727-10.7,5.618,0,2.345,3.151,4.149,9.352,5.375a4.068,4.068,0,0,0-.366.332,3.913,3.913,0,0,0-1.1,2.88,4,4,0,0,0,1.828,3.111,3.655,3.655,0,0,0,2.153.686,16.8,16.8,0,0,0,7.845,10.106c0,.012-.007.021-.007.033v1.5l-8.791,3.889a11.688,11.688,0,0,0-6.97,10.675v9.261A1.126,1.126,0,0,0,51.992,105H93.649a1.126,1.126,0,0,0,1.126-1.126V94.61A11.687,11.687,0,0,0,87.8,83.935ZM59.942,59.4a1.194,1.194,0,0,1,.793-1.154c.127-.039.259-.073.387-.111.338-.1.681-.184,1.021-.276A12.966,12.966,0,0,1,59.942,59.4Zm25.739,1.086c-7.428,4.108-15.348-1-18.379-3.706a43.378,43.378,0,0,1,16.577.7,2.391,2.391,0,0,1,1.808,2.379C85.684,60.093,85.682,60.3,85.681,60.487ZM59.874,45.462c7.885-3.8,16.37-3.782,25.894.055v4.707a96.534,96.534,0,0,0-13.51-.957,98.541,98.541,0,0,0-12.384.8Zm-10.7,10.56c0-1.528,8.146-4.5,23.08-4.5s23.08,2.975,23.08,4.5c0,.442-1.4,1.929-7.449,3.147a4.615,4.615,0,0,0-3.47-3.872,45.835,45.835,0,0,0-18.947-.5h-.005l-.082.017c-.916.167-1.827.355-2.73.576-.086.021-.166.047-.252.068-.771.193-1.542.389-2.3.622-.023.007-.043.019-.065.026l-.1.026a3.236,3.236,0,0,0-2.255,3.195c0,.014,0,.028,0,.042C51.288,58.221,49.178,56.635,49.178,56.022ZM60.743,66.9a1.125,1.125,0,0,0-1.462-.841,1.4,1.4,0,0,1-1.384-.2,1.779,1.779,0,0,1-.837-1.325,1.689,1.689,0,0,1,1.688-1.752,1.162,1.162,0,0,0,.82-.347,1.066,1.066,0,0,0,.3-.54,16.037,16.037,0,0,0,5.42-3.908c2.276,2.21,7.924,6.336,14.384,6.336a14.4,14.4,0,0,0,6.738-1.66,1.134,1.134,0,0,0,.483.118,1.689,1.689,0,0,1,1.675,1.909,1.732,1.732,0,0,1-.846,1.2,1.45,1.45,0,0,1-1.387.162,1.125,1.125,0,0,0-1.474.822A14.577,14.577,0,0,1,75.153,77.6l-.5.162a6.789,6.789,0,0,1-4.132.051A14.554,14.554,0,0,1,60.743,66.9ZM69.83,79.958a8.6,8.6,0,0,0,2.639.411,9.34,9.34,0,0,0,2.876-.463l.5-.162c.314-.1.609-.242.915-.361v5.912a3.94,3.94,0,0,1-7.881,0v-5.71C69.2,79.708,69.5,79.853,69.83,79.958Zm2.991,11.528a6.2,6.2,0,0,0,6.192-6.192V82.508L84.642,85v9.866H61V85l5.629-2.49v2.785A6.2,6.2,0,0,0,72.821,91.486Zm-19.7,3.124a9.434,9.434,0,0,1,5.629-8.615h0v16.75H53.118ZM61,97.115H84.642v5.629H61Zm31.524,5.629H86.894V85.994h0a9.435,9.435,0,0,1,5.629,8.615Z" transform="translate(-12.933 -5.728)" fill="#2f2c2c"/>
    <ellipse id="Ellipse_6" data-name="Ellipse 6" cx="1.5" cy="1" rx="1.5" ry="1" transform="translate(63.931 59.634)" fill="#2f2c2c"/>
    <circle id="Ellipse_7" data-name="Ellipse 7" cx="1" cy="1" r="1" transform="translate(52.931 59.634)" fill="#2f2c2c"/>
    <path id="Path_3222" data-name="Path 3222" d="M233.608,133.793a1.119,1.119,0,0,0-.985-1.043,8.463,8.463,0,0,0,.985-4.231,1.126,1.126,0,0,0-1.062-1.062,8.911,8.911,0,0,0-3.031.446,4.894,4.894,0,0,0,.056-.557c0-2.8-2.383-4.967-2.485-5.058a1.126,1.126,0,0,0-1.5,0c-.1.091-2.484,2.257-2.484,5.058,0,0,0,0,0,.007a9.17,9.17,0,0,0-3.094-.458,1.126,1.126,0,0,0-1.062,1.062,8.6,8.6,0,0,0,1.017,4.329,1.122,1.122,0,0,0-1.017,1.051,8.6,8.6,0,0,0,1.017,4.329,1.122,1.122,0,0,0-1.017,1.051,8.6,8.6,0,0,0,1.017,4.329,1.122,1.122,0,0,0-1.017,1.051c-.008.138-.163,3.409,1.85,5.423a7.093,7.093,0,0,0,4.333,1.813v11.2a1.126,1.126,0,1,0,2.252,0V151.469a7.051,7.051,0,0,0,4.408-1.795c1.981-1.981,1.828-5.2,1.82-5.333a1.119,1.119,0,0,0-.985-1.043,8.463,8.463,0,0,0,.985-4.231,1.119,1.119,0,0,0-.985-1.043A8.47,8.47,0,0,0,233.608,133.793Zm-2.323,1.261a3.73,3.73,0,0,1-3.57,3.57,3.73,3.73,0,0,1,3.57-3.57Zm-7.447.662a4.584,4.584,0,0,1,1.121,2.573,3.837,3.837,0,0,1-3.694-3.693,4.593,4.593,0,0,1,2.573,1.12Zm0,5.38a4.584,4.584,0,0,1,1.121,2.571,3.835,3.835,0,0,1-3.694-3.691A4.589,4.589,0,0,1,223.839,141.1Zm6.357,1.714a4.45,4.45,0,0,1-2.479,1.089,3.727,3.727,0,0,1,3.569-3.57A4.447,4.447,0,0,1,230.2,142.809Zm0-10.548a4.451,4.451,0,0,1-2.48,1.089,3.73,3.73,0,0,1,3.57-3.57A4.45,4.45,0,0,1,230.2,132.261Zm-3.86-7.44a3.73,3.73,0,0,1,0,5.049,3.732,3.732,0,0,1,0-5.049Zm-2.5,5.515a4.584,4.584,0,0,1,1.121,2.572,3.835,3.835,0,0,1-3.694-3.692A4.6,4.6,0,0,1,223.839,130.336Zm-1.452,17.59a4.589,4.589,0,0,1-1.121-2.571,3.835,3.835,0,0,1,3.694,3.691A4.589,4.589,0,0,1,222.387,147.926Zm7.808.157a4.446,4.446,0,0,1-2.479,1.089,3.726,3.726,0,0,1,3.567-3.569A4.451,4.451,0,0,1,230.2,148.082Z" transform="translate(-143.532 -64.388)" fill="#2f2c2c"/>
    <path id="Path_3223" data-name="Path 3223" d="M40.185,151.629v-4.5a1.126,1.126,0,0,0-2.252,0v4.5a3.376,3.376,0,0,1-2.157,3.141v-7.081a1.126,1.126,0,0,0-2.252,0v7.14a3.37,3.37,0,0,1-2.346-3.2v-4.5a1.126,1.126,0,0,0-2.252,0v4.5a5.632,5.632,0,0,0,4.6,5.525v22.621a1.126,1.126,0,0,0,2.252,0V157.117A5.633,5.633,0,0,0,40.185,151.629Z" transform="translate(0 -81.633)" fill="#2f2c2c"/>
  </g>
</svg>
