<svg xmlns="http://www.w3.org/2000/svg" width="74.802" height="74.801" viewBox="0 0 74.802 74.801">
    <defs>
        <style>
            .cls-1{fill:#f76737}.cls-2{fill:#ffcc9e}.cls-3{fill:#ffae7b}.cls-4{fill:#ffe9c0}.cls-5{fill:#ffb654}.cls-6{fill:#ff9812}
        </style>
    </defs>
    <g id="Group_471" transform="translate(-1004.199 -175.199)">
        <g id="field" transform="translate(1004.199 175.198)">
            <path id="Path_73" d="M307.478 400.957a46.684 46.684 0 0 0-32.856 13.731 1.461 1.461 0 0 0 2.072 2.061 43.742 43.742 0 0 1 30.784-12.87 1.461 1.461 0 1 0 0-2.922zm0 0" class="cls-1" transform="translate(-234.138 -342.378)"/>
            <path id="Path_74" d="M188.5 387.935a1.46 1.46 0 0 0-2.028-.393 57.664 57.664 0 0 0-15.683 15.693 1.461 1.461 0 1 0 2.426 1.629 54.743 54.743 0 0 1 14.892-14.9 1.461 1.461 0 0 0 .393-2.029zm0 0" class="cls-1" transform="translate(-145.627 -330.709)"/>
            <path id="Path_75" d="M384 320.457a57.456 57.456 0 0 0-19.215 3.316 1.461 1.461 0 1 0 .975 2.754 54.546 54.546 0 0 1 18.24-3.148 1.461 1.461 0 1 0 0-2.922zm0 0" class="cls-1" transform="translate(-310.662 -273.639)"/>
            <path id="Path_76" d="M20.932 64.777A66.589 66.589 0 0 1 59.81 40.283h.008a65.115 65.115 0 0 1 13.522-1.426 1.461 1.461 0 1 0 0-2.922 68.75 68.75 0 0 0-12.36 1.124V33.9c5.281-4.47 8.179-10.328 8.179-16.565 0-6.449-3.1-12.492-8.725-17.016a1.462 1.462 0 0 0-1.831 0c-5.625 4.528-8.724 10.571-8.724 17.021 0 6.238 2.9 12.1 8.179 16.565v3.751a69.176 69.176 0 0 0-8.191 2.407v-8.554a1.456 1.456 0 0 0-.425-1.03l-8.181-8.23a1.462 1.462 0 0 0-1.036-.431h-16.7a1.461 1.461 0 0 0-1.036.431L14.3 30.478a1.457 1.457 0 0 0-.425 1.03v5.579q-1.527-.28-3.068-.491v-5.207A16.674 16.674 0 0 0 17 18.7a16.828 16.828 0 0 0-6.73-13.143 1.461 1.461 0 0 0-1.831 0A16.827 16.827 0 0 0 1.705 18.7a16.674 16.674 0 0 0 6.184 12.688v4.873q-3.2-.3-6.428-.3a1.461 1.461 0 0 0 0 2.922 65.894 65.894 0 0 1 33.182 8.955 68.966 68.966 0 0 0-6.9 5.36 58.123 58.123 0 0 0-26.282-6.355 1.461 1.461 0 1 0 0 2.922 55.154 55.154 0 0 1 23.985 5.552 69.047 69.047 0 0 0-6.213 6.877A45.7 45.7 0 0 0 1.461 58.6a1.461 1.461 0 0 0 0 2.922 42.757 42.757 0 0 1 15.952 3.088q-1.514 2.1-2.871 4.323l-2.227 3.647a1.461 1.461 0 1 0 2.494 1.52l2.226-3.647a64.857 64.857 0 0 1 3.752-5.489 1.383 1.383 0 0 0 .145-.187zM52.8 17.34a18.643 18.643 0 0 1 6.719-13.966 18.643 18.643 0 0 1 6.719 13.966 18.187 18.187 0 0 1-5.258 12.549V18.7a1.461 1.461 0 1 0-2.922 0v11.189A18.185 18.185 0 0 1 52.8 17.34zM4.627 18.7A13.671 13.671 0 0 1 9.35 8.623 13.67 13.67 0 0 1 14.073 18.7a13.208 13.208 0 0 1-3.262 8.553v-9.721a1.461 1.461 0 0 0-2.922 0v9.722A13.208 13.208 0 0 1 4.627 18.7zm40.267 11.348H32.311l-5.277-5.308h12.584zm-21.373-4.7l4.669 4.7h-9.337zM16.8 32.97h13.442v9.29q-1.016-.467-2.045-.9v-4.909a1.461 1.461 0 0 0-1.461-1.461h-6.429a1.462 1.462 0 0 0-1.461 1.461v1.737q-1.019-.265-2.045-.5zm8.474 7.236q-1.738-.64-3.506-1.186v-1.108h3.506zm7.889 3.485V32.97h13.783v8.23a68.569 68.569 0 0 0-7.319 3.551q-1.137.638-2.247 1.32-2.071-1.271-4.216-2.381zm0 0" class="cls-1"/>
            <path id="Path_77" d="M398.859 82.922a1.463 1.463 0 1 0-1.032-.429 1.471 1.471 0 0 0 1.032.429zm0 0" class="cls-1" transform="translate(-339.34 -68.311)"/>
            <path id="Path_78" d="M318.1 362.764a1.459 1.459 0 1 0 1.033-.429 1.474 1.474 0 0 0-1.033.429zm0 0" class="cls-1" transform="translate(-271.258 -309.399)"/>
        </g>
        <g id="farmer" transform="translate(951.337 213.599)">
            <path id="Path_59" d="M192.75 264.015a1.059 1.059 0 0 0-1.139.178 5.061 5.061 0 0 1-6.765 0 1.059 1.059 0 0 0-1.766.789v4.4a1.059 1.059 0 0 0 .181.593l4.089 6.055a1.059 1.059 0 0 0 1.755 0l4.089-6.055a1.059 1.059 0 0 0 .181-.593v-4.4a1.059 1.059 0 0 0-.625-.967z" class="cls-2" transform="translate(-117.449 -245.289)"/>
            <path id="Path_60" d="M260.522 264.017a1.059 1.059 0 0 0-1.139.178 5.061 5.061 0 0 1-3.382 1.3V276.5a1.059 1.059 0 0 0 .878-.466l4.089-6.055a1.059 1.059 0 0 0 .181-.593v-4.4a1.059 1.059 0 0 0-.627-.969z" class="cls-3" transform="translate(-185.221 -245.291)"/>
            <path id="Path_61" d="M163.906 131.757l-2.574 6.746a7.2 7.2 0 0 1-7.191-7.191v-5.242a1.059 1.059 0 0 1 1.059-1.059h6.132z" class="cls-4" transform="translate(-90.551 -116.185)"/>
            <path id="Path_62" d="M262.133 125.007H256V138.5a7.2 7.2 0 0 0 7.192-7.192v-5.242a1.059 1.059 0 0 0-1.059-1.059z" class="cls-2" transform="translate(-185.22 -116.181)"/>
            <path id="Path_63" d="M168.455 6.336L166.336.688a1.059 1.059 0 0 0-1.175-.671L161.33.69 157.5.017a1.059 1.059 0 0 0-1.175.671l-2.118 5.648a1.059 1.059 0 0 0 .992 1.431h12.265a1.059 1.059 0 0 0 .992-1.431z" class="cls-5" transform="translate(-90.55)"/>
            <path id="Path_64" d="M128.812 80h-18.62a1.059 1.059 0 0 0-1.059 1.059v1.059a3.181 3.181 0 0 0 3.177 3.182h14.384a3.181 3.181 0 0 0 3.177-3.177v-1.059A1.059 1.059 0 0 0 128.812 80z" class="cls-5" transform="translate(-48.722 -74.356)"/>
            <path id="Path_65" d="M263.124 6.336L261.006.688a1.059 1.059 0 0 0-1.175-.671L256 .69v7.077h6.133a1.059 1.059 0 0 0 .992-1.431z" class="cls-5" transform="translate(-185.22)"/>
            <path id="Path_66" d="M265.31 80H256v5.3h7.192a3.181 3.181 0 0 0 3.177-3.177v-1.059A1.059 1.059 0 0 0 265.31 80z" class="cls-5" transform="translate(-185.22 -74.356)"/>
            <path id="Path_67" d="M82.162 332.987l-3.662-1.331-1.062.32-1.056-1.089-.45-.163-5.148 5.738-5.148-5.738-.449.163-1.033 1.081-1.085-.312-3.669 1.331a4.319 4.319 0 0 0-2.688 3.836v5.64a1.059 1.059 0 0 0 1.059 1.059h3.884l9.128-.706 9.128.706h3.884a1.059 1.059 0 0 0 1.059-1.059v-5.64a4.319 4.319 0 0 0-2.692-3.836z" class="cls-6" transform="translate(0 -307.374)"/>
            <path id="Path_68" d="M267.382 332.987l-3.666-1.331-1.062.32-1.056-1.089-.45-.163-5.148 5.738v6.354l9.128.706h3.884a1.059 1.059 0 0 0 1.059-1.059v-5.64a4.319 4.319 0 0 0-2.689-3.836z" class="cls-6" transform="translate(-185.22 -307.374)"/>
            <path id="Path_69" d="M336.342 340.727a1.059 1.059 0 0 0 1.059-1.059V333.8l-2.118-.769v6.634a1.059 1.059 0 0 0 1.059 1.062z" class="cls-5" transform="translate(-258.905 -309.521)"/>
            <path id="Path_70" d="M147.777 340.727a1.059 1.059 0 0 0 1.059-1.059v-6.634l-2.118.769v5.865a1.059 1.059 0 0 0 1.059 1.059z" class="cls-5" transform="translate(-83.653 -309.521)"/>
            <path id="Path_71" d="M143.912 412h-16.137a1.059 1.059 0 0 0-1.059 1.059v6h18.255v-6a1.059 1.059 0 0 0-1.059-1.059z" class="cls-5" transform="translate(-65.063 -382.909)"/>
        </g>
        <g id="farmer-2" transform="translate(970.309 197.787)">
            <path id="Path_59-2" d="M197.02 264.056a1.527 1.527 0 0 0-1.642.257 7.3 7.3 0 0 1-9.752 0 1.527 1.527 0 0 0-2.546 1.137v6.342a1.527 1.527 0 0 0 .261.854l5.9 8.729a1.527 1.527 0 0 0 2.53 0l5.9-8.729a1.526 1.526 0 0 0 .261-.854v-6.342a1.527 1.527 0 0 0-.912-1.394z" class="cls-2" transform="translate(-113.509 -237.06)"/>
            <path id="Path_60-2" d="M262.519 264.057a1.527 1.527 0 0 0-1.642.257 7.3 7.3 0 0 1-4.877 1.869v15.866a1.527 1.527 0 0 0 1.265-.672l5.9-8.729a1.526 1.526 0 0 0 .261-.854v-6.342a1.527 1.527 0 0 0-.907-1.395z" class="cls-3" transform="translate(-179.007 -237.062)"/>
            <path id="Path_61-2" d="M168.218 134.736l-3.711 9.725a10.378 10.378 0 0 1-10.367-10.367v-7.556a1.526 1.526 0 0 1 1.527-1.527h8.841z" class="cls-4" transform="translate(-87.514 -112.287)"/>
            <path id="Path_62-2" d="M264.841 125.007H256v19.451a10.379 10.379 0 0 0 10.368-10.367v-7.557a1.527 1.527 0 0 0-1.527-1.527z" class="cls-2" transform="translate(-179.006 -112.283)"/>
            <path id="Path_63-2" d="M174.777 9.134L171.723.991a1.527 1.527 0 0 0-1.694-.968l-5.523.971-5.523-.97a1.527 1.527 0 0 0-1.694.968l-3.054 8.143a1.527 1.527 0 0 0 1.43 2.063h17.682a1.527 1.527 0 0 0 1.429-2.063z" class="cls-5" transform="translate(-87.512)"/>
            <path id="Path_64-2" d="M137.5 80h-26.84a1.527 1.527 0 0 0-1.527 1.527v1.527a4.585 4.585 0 0 0 4.58 4.58h20.736a4.585 4.585 0 0 0 4.58-4.58v-1.522A1.527 1.527 0 0 0 137.5 80z" class="cls-5" transform="translate(-47.087 -71.862)"/>
            <path id="Path_65-2" d="M266.271 9.134L263.217.991a1.527 1.527 0 0 0-1.694-.968L256 .995V11.2h8.841a1.527 1.527 0 0 0 1.43-2.063z" class="cls-5" transform="translate(-179.006)"/>
            <path id="Path_66-2" d="M269.422 80H256v7.634h10.368a4.585 4.585 0 0 0 4.58-4.58v-1.522A1.527 1.527 0 0 0 269.422 80z" class="cls-5" transform="translate(-179.006 -71.862)"/>
            <path id="Path_67-2" d="M93.4 333.987l-5.286-1.919-1.531.462-1.522-1.57-.648-.235L76.994 339l-7.422-8.272-.648.235-1.489 1.558-1.565-.45-5.286 1.919a6.226 6.226 0 0 0-3.875 5.53v8.131a1.527 1.527 0 0 0 1.527 1.527h5.6l13.158-1.018 13.158 1.018h5.6a1.527 1.527 0 0 0 1.527-1.527v-8.131a6.226 6.226 0 0 0-3.875-5.53z" class="cls-6" transform="translate(0 -297.063)"/>
            <path id="Path_68-2" d="M272.409 333.987l-5.286-1.919-1.531.462-1.522-1.57-.648-.235L256 339v9.16l13.158 1.018h5.6a1.527 1.527 0 0 0 1.527-1.527v-8.131a6.226 6.226 0 0 0-3.876-5.533z" class="cls-6" transform="translate(-179.006 -297.063)"/>
            <path id="Path_69-2" d="M336.81 344.124a1.527 1.527 0 0 0 1.527-1.527v-8.455l-3.053-1.108v9.566a1.527 1.527 0 0 0 1.526 1.524z" class="cls-5" transform="translate(-250.22 -299.137)"/>
            <path id="Path_70-2" d="M148.245 344.124a1.527 1.527 0 0 0 1.527-1.527v-9.564l-3.053 1.108v8.459a1.527 1.527 0 0 0 1.526 1.524z" class="cls-5" transform="translate(-80.847 -299.137)"/>
            <path id="Path_71-2" d="M151.506 412h-23.263a1.527 1.527 0 0 0-1.527 1.527v8.652h26.317v-8.652a1.527 1.527 0 0 0-1.527-1.527z" class="cls-5" transform="translate(-62.881 -370.064)"/>
        </g>
    </g>
</svg>
