<svg xmlns="http://www.w3.org/2000/svg" width="36" height="36" viewBox="0 0 36 36">
    <defs>
        <filter id="y3rauymhxa" width="36" height="36" x="0" y="0" filterUnits="userSpaceOnUse">
            <feOffset dy="1"/>
            <feGaussianBlur result="blur" stdDeviation="1"/>
            <feFlood flood-color="#111d34" flood-opacity=".353"/>
            <feComposite in2="blur" operator="in"/>
            <feComposite in="SourceGraphic"/>
        </filter>
    </defs>
    <g>
        <g filter="url(#y3rauymhxa)" transform="translate(-1332 -3673) matrix(1, 0, 0, 1, 1332, 3673)">
            <path fill="#fff" d="M0 0h27a3 3 0 0 1 3 3v24a3 3 0 0 1-3 3H0V0z" transform="translate(3 2)"/>
        </g>
        <g>
            <path fill="#657eae" d="M7.4 97.141a1.033 1.033 0 0 1 .733.3l6.362 6.362a1.036 1.036 0 1 1-1.465 1.465L7.4 99.642l-5.629 5.63A1.036 1.036 0 1 1 .3 103.806l6.362-6.362a1.033 1.033 0 0 1 .738-.303z" transform="translate(-1332 -3673) translate(1354.615 3682.819) rotate(90) translate(-0.001 -97.141)"/>
        </g>
    </g>
</svg>
