<svg xmlns="http://www.w3.org/2000/svg" width="36" height="36" viewBox="0 0 36 36">
    <defs>
        <filter id="f8z6im8g8a" width="36" height="36" x="0" y="0" filterUnits="userSpaceOnUse">
            <feOffset dy="1"/>
            <feGaussianBlur result="blur" stdDeviation="1"/>
            <feFlood flood-color="#111d34" flood-opacity=".353"/>
            <feComposite in2="blur" operator="in"/>
            <feComposite in="SourceGraphic"/>
        </filter>
    </defs>
    <g>
        <g filter="url(#f8z6im8g8a)" transform="translate(3 2) matrix(1, 0, 0, 1, -3, -2)">
            <path fill="#fff" d="M3 0h27v30H3a3 3 0 0 1-3-3V3a3 3 0 0 1 3-3z" transform="translate(3 2)"/>
        </g>
        <g>
            <path fill="#d0d8e6" d="M7.4 8.435a1.033 1.033 0 0 0 .733-.3l6.362-6.362A1.036 1.036 0 0 0 13.028.3L7.4 5.933 1.769.3A1.036 1.036 0 0 0 .3 1.769l6.366 6.362a1.033 1.033 0 0 0 .734.304z" transform="translate(3 2) translate(18.819 7.819) rotate(90)"/>
        </g>
    </g>
</svg>
