<svg id="linkedin_1_" data-name="linkedin (1)" xmlns="http://www.w3.org/2000/svg" width="15.534" height="15.534" viewBox="0 0 15.534 15.534">
  <path id="Path_27140" data-name="Path 27140" d="M18.525,18.206h0v-5.7c0-2.787-.6-4.934-3.858-4.934a3.382,3.382,0,0,0-3.047,1.674h-.045V7.834H8.489V18.205h3.217V13.07c0-1.352.256-2.66,1.931-2.66,1.65,0,1.674,1.543,1.674,2.746v5.049Z" transform="translate(-2.994 -2.672)"/>
  <path id="Path_27141" data-name="Path 27141" d="M.4,7.977H3.617V18.348H.4Z" transform="translate(-0.14 -2.814)"/>
  <path id="Path_27142" data-name="Path 27142" d="M1.865,0A1.874,1.874,0,1,0,3.731,1.865,1.866,1.866,0,0,0,1.865,0Z"/>
</svg>
