<svg xmlns="http://www.w3.org/2000/svg" width="123.893" height="26.303" viewBox="0 0 123.893 26.303">
    <defs>
        <radialGradient id="radial-gradient" cx=".5" cy=".5" r=".432" gradientTransform="matrix(1.427 0 0 1 -.213 0)" gradientUnits="objectBoundingBox">
            <stop offset="0" stop-color="#623a1d"/>
            <stop offset="1" stop-color="#2d1a10"/>
        </radialGradient>
        <radialGradient id="radial-gradient-2" cx=".5" cy=".5" r=".415" gradientTransform="matrix(1.628 0 0 1 -.314 0)" gradientUnits="objectBoundingBox">
            <stop offset="0" stop-color="#b3c91d"/>
            <stop offset="1" stop-color="#8eae29"/>
        </radialGradient>
        <style>
            .cls-3{fill:#2d1a10}.cls-4{fill:#6a8c2d}
        </style>
    </defs>
    <g id="Group_5" transform="translate(-20 -16)">
        <g id="Group_1" transform="translate(20 16)">
            <path id="Path_1" fill="url(#radial-gradient)" d="M176.19 70.229a65.131 65.131 0 0 0-5.01-7.057.755.755 0 0 0-1.17 0A65.151 65.151 0 0 0 165 70.23c-2.4 3.967-3.622 7.248-3.622 9.749a9.217 9.217 0 0 0 18.434 0c.001-2.502-1.218-5.779-3.622-9.75z" transform="translate(-161.378 -62.894)"/>
            <path id="Path_2" fill="url(#radial-gradient-2)" d="M207.974 133.119l.062.148a2.85 2.85 0 0 1 .236.939 4 4 0 0 1-.173 1.419 13.967 13.967 0 0 1-.8 1.964l-.069.147a15.109 15.109 0 0 0-.973 2.456 5.358 5.358 0 0 0-.119 2.584 7.764 7.764 0 0 0 1.78 3.467c.131.15.272.29.408.426.062.062.124.123.185.186l.257.013.025-.021.055-.213-.023-.058a10.61 10.61 0 0 1-.77-2.576 6.481 6.481 0 0 1-.074-1.608 8.154 8.154 0 0 1 .449-1.985c.117-.328.238-.654.359-.981.164-.445.335-.906.493-1.363l.041-.121c-.041.171-.089.348-.145.533-.08.264-.161.527-.244.791-.142.458-.29.932-.422 1.4a6.716 6.716 0 0 0-.231 2.41 11.234 11.234 0 0 0 .612 2.752 15.739 15.739 0 0 0 1.551 3.081l.279.442.122.193.169.088.376-.019.165-.261a.787.787 0 0 0-.036-.073l-.013-.024a1.361 1.361 0 0 1 .986-1.291c.273-.09.561-.162.839-.231l.323-.081a3.267 3.267 0 0 0 2.334-2.017 4.915 4.915 0 0 0 .339-1.993 3.5 3.5 0 0 0-.266-1.3c-.028-.064-.06-.124-.094-.187l-.051-.095-.348.031a1.556 1.556 0 0 1-.77.929c-.2.112-.416.21-.625.305-.092.042-.185.084-.276.128-.141.067-.283.131-.426.2-.311.141-.633.287-.94.457a2.716 2.716 0 0 0-1.222 1.436 4.271 4.271 0 0 0-.3 1.245c-.011.151-.008.3-.006.447v.192l.178.188h.031l.174-.112q-.09.252-.164.522c-.053.193-.1.386-.142.587-.043-.074-.084-.147-.122-.22a2.6 2.6 0 0 1-.122-2.385 11.232 11.232 0 0 1 .661-1.188c.142-.233.3-.467.444-.693.187-.286.381-.581.558-.882a6.014 6.014 0 0 0 .549-5.131 9.215 9.215 0 0 0-2.7-4.024 5.54 5.54 0 0 0-1.983-1.18c-.034-.011-.069-.02-.11-.031l-.057-.015z" transform="translate(-201.434 -125.663)"/>
        </g>
        <g id="Group_4" transform="translate(43.58 16)">
            <g id="Group_2" transform="translate(.66)">
                <path id="Path_3" d="M65.742 357.272a6.71 6.71 0 0 1 1.452.176 4.126 4.126 0 0 1 1.462.643 3.8 3.8 0 0 1 1.13 1.265 4.083 4.083 0 0 1 .456 2.043c0 .069 0 .145-.01.228a2.2 2.2 0 0 1-.031.228h-6.823a7.714 7.714 0 0 0 .27 2.043 3.841 3.841 0 0 0 .684 1.369 2.54 2.54 0 0 0 1.037.767 3.452 3.452 0 0 0 1.286.239 6.839 6.839 0 0 0 .809-.052 5.268 5.268 0 0 0 .861-.176 4.678 4.678 0 0 0 .778-.3 1.71 1.71 0 0 0 .56-.425l.705.477a5.064 5.064 0 0 1-.581.881 4.616 4.616 0 0 1-.923.861 4.9 4.9 0 0 1-1.275.643 5.041 5.041 0 0 1-1.638.249 6.454 6.454 0 0 1-2.468-.436 4.9 4.9 0 0 1-2.831-2.914 5.976 5.976 0 0 1-.364-2.081 6.359 6.359 0 0 1 .384-2.209 5.412 5.412 0 0 1 1.1-1.825 5.263 5.263 0 0 1 1.721-1.234 5.388 5.388 0 0 1 2.249-.46zm-.116.892a1.566 1.566 0 0 0-.836.249 2.651 2.651 0 0 0-.712.653 3.384 3.384 0 0 0-.495.923 3.558 3.558 0 0 0-.206 1.078h3.507q.35 0 .351-.892a1.915 1.915 0 0 0-.155-.757 2.518 2.518 0 0 0-.392-.643 2.071 2.071 0 0 0-.516-.446 1.063 1.063 0 0 0-.545-.165z" class="cls-3" transform="translate(-60.288 -352.191)"/>
                <path id="Path_4" d="M110.912 337.676a10.4 10.4 0 0 1 1.618.135q.85.135 2.053.425l-.1 2.613h-.684a3.6 3.6 0 0 0-.6-1.275 2.431 2.431 0 0 0-.819-.685 2.789 2.789 0 0 0-.933-.269 8.845 8.845 0 0 0-.923-.052 1.741 1.741 0 0 0-1.348.518 2.4 2.4 0 0 0-.477 1.659 4.564 4.564 0 0 0 .073.881 2 2 0 0 0 .353.757 5.181 5.181 0 0 0 .829.871q.55.478 1.524 1.2.975.747 1.628 1.348a6.768 6.768 0 0 1 1.037 1.172 3.833 3.833 0 0 1 .539 1.161 5.267 5.267 0 0 1 .156 1.338 4.374 4.374 0 0 1-.29 1.514 4.006 4.006 0 0 1-.954 1.452 5.167 5.167 0 0 1-1.732 1.1 7.028 7.028 0 0 1-2.644.436q-.415 0-.788-.031a7.425 7.425 0 0 1-.8-.114 8.382 8.382 0 0 1-.944-.249q-.519-.165-1.2-.456l.332-3.049.767.124a.881.881 0 0 0-.021.166v.166a2.4 2.4 0 0 0 .311 1.286 2.327 2.327 0 0 0 .778.778 3.065 3.065 0 0 0 1.006.383 5.264 5.264 0 0 0 1 .1 2.345 2.345 0 0 0 1.1-.238 2.142 2.142 0 0 0 .736-.612 2.427 2.427 0 0 0 .4-.84 3.644 3.644 0 0 0 .124-.944 3 3 0 0 0-.612-1.9 6.155 6.155 0 0 0-.829-.913q-.508-.466-1.234-1.047-.954-.766-1.607-1.358a7.833 7.833 0 0 1-1.058-1.14 3.876 3.876 0 0 1-.591-1.151 4.774 4.774 0 0 1-.187-1.41 3.454 3.454 0 0 1 .363-1.587 3.551 3.551 0 0 1 1.027-1.224 4.791 4.791 0 0 1 1.587-.778 7.27 7.27 0 0 1 2.034-.261z" class="cls-3" transform="translate(-93.761 -337.676)"/>
                <path id="Path_5" d="M146.831 358.152l4.687-.56v6.492a9.731 9.731 0 0 0 .073 1.234 4.178 4.178 0 0 0 .239 1 1.533 1.533 0 0 0 .466.663 1.213 1.213 0 0 0 .778.239 2.532 2.532 0 0 0 1.089-.228 3.944 3.944 0 0 0 1.027-.746v-6.761q0-.891-1.887-.892v-.664l4.894-.332v8.71q0 .934 1.763.933v.622l-4.521.684a1.641 1.641 0 0 1-.145-.767v-.85a3.689 3.689 0 0 1-.643.715 4.253 4.253 0 0 1-.809.55 4.407 4.407 0 0 1-.892.352 3.445 3.445 0 0 1-.912.125 5.319 5.319 0 0 1-1.462-.187 2.568 2.568 0 0 1-1.11-.633 2.918 2.918 0 0 1-.705-1.213 6.429 6.429 0 0 1-.249-1.95v-5q0-.891-1.68-.892z" class="cls-3" transform="translate(-124.391 -352.428)"/>
                <path id="Path_6" d="M209.561 360.484a3.212 3.212 0 0 0-.964-1.7 2.3 2.3 0 0 0-1.5-.539q-1.307 0-1.307 1.118a1.57 1.57 0 0 0 .145.693 2.252 2.252 0 0 0 .373.549 2.5 2.5 0 0 0 .529.434q.3.186.591.331.622.311 1.255.59a5.229 5.229 0 0 1 1.141.683 3.1 3.1 0 0 1 .819.994 3.254 3.254 0 0 1 .311 1.521 2.54 2.54 0 0 1-.425 1.47 3.591 3.591 0 0 1-1.1 1.035 5.277 5.277 0 0 1-1.514.621 6.972 6.972 0 0 1-1.669.207 5.566 5.566 0 0 1-1.825-.28 4.212 4.212 0 0 1-1.2-.591 8.1 8.1 0 0 1-.249-1.39q-.083-.809-.145-1.659h.747a5.047 5.047 0 0 0 .477 1.151 5.123 5.123 0 0 0 .695.965 3.349 3.349 0 0 0 .829.664 1.764 1.764 0 0 0 .861.249 1.837 1.837 0 0 0 1.275-.373 1.422 1.422 0 0 0 .4-1.1 1.551 1.551 0 0 0-.415-1.078 3.931 3.931 0 0 0-1.016-.788q-.664-.352-1.286-.632a4.613 4.613 0 0 1-1.1-.685 3.1 3.1 0 0 1-.778-1.016 3.72 3.72 0 0 1-.3-1.628 2.327 2.327 0 0 1 .27-1.068 2.946 2.946 0 0 1 .778-.944 4.117 4.117 0 0 1 1.244-.674 5.073 5.073 0 0 1 1.69-.259 6.347 6.347 0 0 1 1.514.159 5.678 5.678 0 0 1 1.12.393 8.811 8.811 0 0 1 .363 1.242 8.923 8.923 0 0 1 .176 1.317z" class="cls-3" transform="translate(-165.864 -352.251)"/>
                <path id="Path_7" d="M239.462 353.684v-.726q1.245 0 1.244-.83v-12.381q0-.933-1.493-.933v-.726h8.835a1.244 1.244 0 0 0 .85-.332l.29.435-.352 2.738h-.643a2.429 2.429 0 0 0-.425-1.3 1.216 1.216 0 0 0-1.006-.425h-2.592q-.311 0-.311.56v4.4q0 .705.332.705h3.028q.56 0 .912-.747h.5l-.332 3.36h-.6q-.311-1.493-1.016-1.493h-2.489q-.332 0-.332.519v5.62q0 .83 1.6.83v.726z" class="cls-4" transform="translate(-192.819 -337.735)"/>
                <path id="Path_8" d="M288.129 357.272a5.188 5.188 0 0 1 1.41.187 3.025 3.025 0 0 1 1.161.612 2.887 2.887 0 0 1 .778 1.078 4.02 4.02 0 0 1 .28 1.587v5.04q0 .975.477.975a2.1 2.1 0 0 0 1.058-.5l.353.954-2.178 1.224a2.351 2.351 0 0 1-2.364-1.369 5.96 5.96 0 0 1-1.411 1 3.313 3.313 0 0 1-1.493.374 3.661 3.661 0 0 1-2.458-.685 2.5 2.5 0 0 1-.342-3.225 3.778 3.778 0 0 1 1.2-1.027 8.244 8.244 0 0 1 1.836-.736 21.38 21.38 0 0 1 2.333-.508v-1.411q0-2.405-1.369-2.406a1.034 1.034 0 0 0-.653.187 1.492 1.492 0 0 0-.394.477 4.284 4.284 0 0 0-.27.622 4.208 4.208 0 0 1-.269.622 1.554 1.554 0 0 1-.384.477.918.918 0 0 1-.6.187q-1.473 0-1.473-1.141a1.247 1.247 0 0 1 .467-.809 5.428 5.428 0 0 1 1.182-.85 8.953 8.953 0 0 1 1.545-.664 5.111 5.111 0 0 1 1.578-.272zm-.892 9.728a2.428 2.428 0 0 0 1.618-.622v-3.464a7.416 7.416 0 0 0-2.188 1.047 1.951 1.951 0 0 0-.695 1.628 1.609 1.609 0 0 0 .311 1 1.113 1.113 0 0 0 .954.411z" class="cls-4" transform="translate(-225.227 -352.191)"/>
                <path id="Path_9" d="M327.1 357.047l4.563-.975v2.8q.186-.331.466-.8a6.678 6.678 0 0 1 .653-.9 3.965 3.965 0 0 1 .83-.736 1.74 1.74 0 0 1 .974-.3 1.644 1.644 0 0 1 .633.124 1.822 1.822 0 0 1 .529.332 1.545 1.545 0 0 1 .363.5 1.414 1.414 0 0 1 .135.6 2.067 2.067 0 0 1-.094.57 2.355 2.355 0 0 1-.27.6 1.654 1.654 0 0 1-.435.467.955.955 0 0 1-.57.187 1.3 1.3 0 0 1-.632-.124 2.794 2.794 0 0 1-.384-.259q-.166-.135-.353-.259a.886.886 0 0 0-.5-.124.994.994 0 0 0-.767.435 2.835 2.835 0 0 0-.519 1.182v4.77q0 1.39 1.97 1.39v.726h-6.657v-.726q1.68 0 1.68-1.493v-5.5a2.259 2.259 0 0 0-.363-1.4 1.5 1.5 0 0 0-1.255-.467z" class="cls-4" transform="translate(-257.871 -351.302)"/>
                <path id="Path_10" d="M370.359 356.152a.838.838 0 0 1 .29.581v1.078a5.567 5.567 0 0 1 1.607-1.037 4.078 4.078 0 0 1 1.524-.332 3.117 3.117 0 0 1 1.753.436 5.192 5.192 0 0 1 1.255 1.244 6.493 6.493 0 0 1 1.825-1.255 4.4 4.4 0 0 1 1.784-.425 3.449 3.449 0 0 1 3.754 3.754v5.1q0 1.286 1.68 1.286v.726h-5.7v-.726q1.119 0 1.12-1.286v-4.6q0-2.862-1.535-2.862a3.286 3.286 0 0 0-1.016.176 3.206 3.206 0 0 0-1.14.736v6.16q0 1.68 1.1 1.68v.726h-5.226v-.726q1.12 0 1.12-1.784v-3.609q0-3.36-1.348-3.36a5.377 5.377 0 0 0-1.265.145 2.863 2.863 0 0 0-1.182.643v6.574q0 1.39 1.2 1.39v.726h-5.807v-.726q1.6 0 1.6-1.286v-6.782q0-.788-1.576-.788v-.622z" class="cls-4" transform="translate(-286.842 -351.361)"/>
            </g>
            <g id="Group_3" transform="translate(0 20.493)">
                <path id="Path_11" d="M61.376 417.738l-.5.476a1.546 1.546 0 0 0-1.146-.539 1.256 1.256 0 0 0-1.273 1.273 1.341 1.341 0 0 0 .163.666 1.17 1.17 0 0 0 .461.457 1.337 1.337 0 0 0 .662.166 1.363 1.363 0 0 0 .568-.116 2.032 2.032 0 0 0 .565-.422l.484.5a2.656 2.656 0 0 1-.785.562 2.139 2.139 0 0 1-.844.157 1.941 1.941 0 0 1-1.431-.554 1.919 1.919 0 0 1-.557-1.421 1.945 1.945 0 0 1 .254-1 1.888 1.888 0 0 1 .726-.7 2.048 2.048 0 0 1 1.018-.265 2.161 2.161 0 0 1 1.634.753z" class="cls-3" transform="translate(-57.744 -416.913)"/>
                <path id="Path_12" d="M73.5 420.909h.6v.349a.742.742 0 0 1 .257-.313.621.621 0 0 1 .352-.107.652.652 0 0 1 .283.071l-.217.6a.479.479 0 0 0-.2-.061.318.318 0 0 0-.271.2 1.815 1.815 0 0 0-.111.78V423.685H73.5z" class="cls-3" transform="translate(-69.412 -419.767)"/>
                <path id="Path_13" d="M83.233 422.5H81a.745.745 0 0 0 .259.47.814.814 0 0 0 .537.174.928.928 0 0 0 .67-.273l.586.275a1.386 1.386 0 0 1-.525.46 1.64 1.64 0 0 1-.727.149 1.435 1.435 0 0 1-1.063-.412 1.4 1.4 0 0 1-.41-1.031 1.449 1.449 0 0 1 .409-1.054 1.374 1.374 0 0 1 1.026-.419 1.425 1.425 0 0 1 1.065.419 1.515 1.515 0 0 1 .41 1.107zm-.7-.548a.7.7 0 0 0-.272-.377.787.787 0 0 0-.471-.145.833.833 0 0 0-.511.163.911.911 0 0 0-.255.359z" class="cls-3" transform="translate(-74.47 -419.767)"/>
                <path id="Path_14" d="M95.657 420.909h.7v2.773h-.7v-.293a1.366 1.366 0 0 1-.409.279 1.146 1.146 0 0 1-.444.085 1.235 1.235 0 0 1-.929-.417 1.455 1.455 0 0 1-.392-1.036 1.49 1.49 0 0 1 .379-1.052 1.208 1.208 0 0 1 .922-.41 1.172 1.172 0 0 1 .468.094 1.281 1.281 0 0 1 .4.283zm-.731.571a.7.7 0 0 0-.536.228.911.911 0 0 0 0 1.176.7.7 0 0 0 .535.232.717.717 0 0 0 .543-.228.834.834 0 0 0 .216-.6.81.81 0 0 0-.216-.586.726.726 0 0 0-.542-.222z" class="cls-3" transform="translate(-84.216 -419.767)"/>
                <path id="Path_15" d="M106.831 417.171h.7v1.022h.413v.6h-.413v2.174h-.7v-2.174h-.357v-.6h.357z" class="cls-3" transform="translate(-93.839 -417.051)"/>
                <path id="Path_16" d="M113.606 416.709a.425.425 0 0 1 .314.133.441.441 0 0 1 .131.321.435.435 0 0 1-.13.317.421.421 0 0 1-.31.131.426.426 0 0 1-.316-.134.447.447 0 0 1-.131-.325.443.443 0 0 1 .442-.444zm-.348 1.142h.7v2.773h-.7z" class="cls-3" transform="translate(-98.794 -416.709)"/>
                <path id="Path_17" d="M118.911 420.909h.7v.284a1.662 1.662 0 0 1 .429-.277 1.04 1.04 0 0 1 .393-.078.952.952 0 0 1 .7.288.989.989 0 0 1 .242.724v1.833h-.688v-1.214a3.08 3.08 0 0 0-.045-.659.454.454 0 0 0-.155-.248.435.435 0 0 0-.273-.085.513.513 0 0 0-.362.141.756.756 0 0 0-.21.391 3.169 3.169 0 0 0-.03.562v1.113h-.7z" class="cls-3" transform="translate(-103.051 -419.767)"/>
                <path id="Path_18" d="M132.953 420.909h.693v2.375a1.572 1.572 0 0 1-.283 1.035 1.416 1.416 0 0 1-1.144.449 2 2 0 0 1-.686-.1 1.195 1.195 0 0 1-.752-.78h.767a.632.632 0 0 0 .263.177 1.086 1.086 0 0 0 .38.06 1 1 0 0 0 .451-.087.523.523 0 0 0 .241-.224 1.138 1.138 0 0 0 .07-.474 1.147 1.147 0 0 1-.385.264 1.225 1.225 0 0 1-.456.08 1.254 1.254 0 0 1-.943-.4 1.563 1.563 0 0 1 .023-2.08 1.217 1.217 0 0 1 .882-.362 1.174 1.174 0 0 1 .452.088 1.43 1.43 0 0 1 .427.289zm-.721.579a.725.725 0 0 0-.543.22.764.764 0 0 0-.214.555.773.773 0 0 0 .219.568.741.741 0 0 0 .55.222.712.712 0 0 0 .534-.217.781.781 0 0 0 .21-.568.772.772 0 0 0-.212-.563.729.729 0 0 0-.544-.217z" class="cls-3" transform="translate(-111.844 -419.767)"/>
                <path id="Path_19" d="M151.77 421.3l-.431.431a.728.728 0 0 0-.477-.26.3.3 0 0 0-.184.049.15.15 0 0 0-.066.124.151.151 0 0 0 .042.1.781.781 0 0 0 .208.129l.255.128a1.505 1.505 0 0 1 .553.405.844.844 0 0 1-.121 1.1 1.038 1.038 0 0 1-.728.247 1.157 1.157 0 0 1-.969-.474l.428-.466a.99.99 0 0 0 .287.231.636.636 0 0 0 .292.088.347.347 0 0 0 .222-.066.192.192 0 0 0 .084-.153q0-.161-.3-.314l-.234-.117q-.673-.339-.673-.849a.737.737 0 0 1 .254-.562.921.921 0 0 1 .648-.233 1.126 1.126 0 0 1 .912.459z" class="cls-3" transform="translate(-125.97 -419.767)"/>
                <path id="Path_20" d="M159.807 421.113h.7v1.336a1.85 1.85 0 0 0 .054.542.473.473 0 0 0 .172.236.494.494 0 0 0 .292.084.514.514 0 0 0 .3-.083.486.486 0 0 0 .18-.243 1.865 1.865 0 0 0 .043-.512v-1.359h.7v1.175a2.882 2.882 0 0 1-.115.994 1.083 1.083 0 0 1-.413.5 1.263 1.263 0 0 1-.693.175 1.232 1.232 0 0 1-.738-.2 1.076 1.076 0 0 1-.4-.569 3.438 3.438 0 0 1-.082-.918z" class="cls-3" transform="translate(-133.343 -419.971)"/>
                <path id="Path_21" d="M173.231 421.3l-.431.431a.727.727 0 0 0-.477-.26.3.3 0 0 0-.184.049.15.15 0 0 0-.066.124.152.152 0 0 0 .042.1.781.781 0 0 0 .208.129l.255.128a1.5 1.5 0 0 1 .553.405.844.844 0 0 1-.121 1.1 1.038 1.038 0 0 1-.728.247 1.156 1.156 0 0 1-.968-.474l.428-.466a.993.993 0 0 0 .287.231.638.638 0 0 0 .292.088.348.348 0 0 0 .222-.066.192.192 0 0 0 .084-.153q0-.161-.3-.314l-.234-.117q-.673-.339-.673-.849a.737.737 0 0 1 .254-.562.921.921 0 0 1 .648-.233 1.126 1.126 0 0 1 .913.459z" class="cls-3" transform="translate(-141.866 -419.767)"/>
                <path id="Path_22" d="M180.583 417.171h.7v1.022h.413v.6h-.413v2.174h-.7v-2.174h-.357v-.6h.357z" class="cls-3" transform="translate(-148.468 -417.051)"/>
                <path id="Path_23" d="M189.257 420.909h.7v2.773h-.7v-.293a1.365 1.365 0 0 1-.408.279 1.148 1.148 0 0 1-.444.085 1.234 1.234 0 0 1-.929-.417 1.455 1.455 0 0 1-.392-1.036 1.489 1.489 0 0 1 .379-1.052 1.208 1.208 0 0 1 .921-.41 1.172 1.172 0 0 1 .468.094 1.281 1.281 0 0 1 .4.283zm-.731.571a.7.7 0 0 0-.536.228.91.91 0 0 0 0 1.176.7.7 0 0 0 .535.232.717.717 0 0 0 .543-.228.833.833 0 0 0 .216-.6.809.809 0 0 0-.216-.586.725.725 0 0 0-.543-.222z" class="cls-3" transform="translate(-153.547 -419.767)"/>
                <path id="Path_24" d="M200.909 416.709a.426.426 0 0 1 .314.133.441.441 0 0 1 .131.321.435.435 0 0 1-.13.317.42.42 0 0 1-.31.131.426.426 0 0 1-.316-.134.447.447 0 0 1-.131-.325.444.444 0 0 1 .442-.444zm-.348 1.142h.7v2.773h-.7z" class="cls-3" transform="translate(-163.46 -416.709)"/>
                <path id="Path_25" d="M206.214 420.909h.7v.284a1.668 1.668 0 0 1 .429-.277 1.04 1.04 0 0 1 .393-.078.952.952 0 0 1 .7.288.989.989 0 0 1 .242.724v1.833h-.688v-1.214a3.065 3.065 0 0 0-.045-.659.451.451 0 0 0-.155-.248.434.434 0 0 0-.273-.085.513.513 0 0 0-.363.141.754.754 0 0 0-.21.391 3.129 3.129 0 0 0-.031.562v1.113h-.7z" class="cls-3" transform="translate(-167.717 -419.767)"/>
                <path id="Path_26" d="M220.239 420.909h.7v2.773h-.7v-.293a1.363 1.363 0 0 1-.409.279 1.145 1.145 0 0 1-.444.085 1.234 1.234 0 0 1-.929-.417 1.455 1.455 0 0 1-.392-1.036 1.489 1.489 0 0 1 .379-1.052 1.208 1.208 0 0 1 .922-.41 1.172 1.172 0 0 1 .468.094 1.282 1.282 0 0 1 .4.283zm-.731.571a.7.7 0 0 0-.536.228.911.911 0 0 0 0 1.176.7.7 0 0 0 .535.232.717.717 0 0 0 .543-.228.833.833 0 0 0 .216-.6.809.809 0 0 0-.216-.586.725.725 0 0 0-.543-.222z" class="cls-3" transform="translate(-176.495 -419.767)"/>
                <path id="Path_27" d="M232.8 416.984v1.377a1.311 1.311 0 0 1 .408-.283 1.177 1.177 0 0 1 .469-.094 1.211 1.211 0 0 1 .923.41 1.489 1.489 0 0 1 .38 1.052 1.454 1.454 0 0 1-.393 1.036 1.237 1.237 0 0 1-.93.417 1.158 1.158 0 0 1-.446-.085 1.358 1.358 0 0 1-.41-.279v.293h-.691v-3.844zm.731 1.642a.726.726 0 0 0-.545.224.808.808 0 0 0-.217.586.833.833 0 0 0 .217.6.721.721 0 0 0 .545.228.707.707 0 0 0 .537-.232.828.828 0 0 0 .218-.591.82.82 0 0 0-.214-.585.709.709 0 0 0-.543-.23z" class="cls-3" transform="translate(-186.896 -416.913)"/>
                <path id="Path_28" d="M245.364 416.984h.7v3.844h-.7z" class="cls-3" transform="translate(-196.716 -416.913)"/>
                <path id="Path_29" d="M253.153 422.5h-2.235a.744.744 0 0 0 .259.47.812.812 0 0 0 .536.174.929.929 0 0 0 .671-.273l.586.275a1.385 1.385 0 0 1-.525.46 1.638 1.638 0 0 1-.726.149 1.436 1.436 0 0 1-1.063-.412 1.4 1.4 0 0 1-.41-1.031 1.449 1.449 0 0 1 .409-1.054 1.374 1.374 0 0 1 1.026-.419 1.425 1.425 0 0 1 1.065.419 1.516 1.516 0 0 1 .41 1.107zm-.7-.548a.7.7 0 0 0-.272-.377.788.788 0 0 0-.471-.145.834.834 0 0 0-.511.163.914.914 0 0 0-.255.359z" class="cls-3" transform="translate(-200.331 -419.767)"/>
                <path id="Path_30" d="M269.493 416.984h.7v3.844h-.7z" class="cls-3" transform="translate(-214.589 -416.913)"/>
                <path id="Path_31" d="M274.661 416.709a.425.425 0 0 1 .314.133.44.44 0 0 1 .131.321.435.435 0 0 1-.129.317.421.421 0 0 1-.31.131.427.427 0 0 1-.316-.134.448.448 0 0 1-.131-.325.443.443 0 0 1 .442-.444zm-.348 1.142h.7v2.773h-.7z" class="cls-3" transform="translate(-218.089 -416.709)"/>
                <path id="Path_32" d="M278.819 421.113h.709l.7 1.636.7-1.636h.706l-1.18 2.773H280z" class="cls-3" transform="translate(-221.496 -419.971)"/>
                <path id="Path_33" d="M293.908 422.5h-2.235a.744.744 0 0 0 .259.47.812.812 0 0 0 .536.174.929.929 0 0 0 .671-.273l.586.275a1.385 1.385 0 0 1-.525.46 1.638 1.638 0 0 1-.726.149 1.436 1.436 0 0 1-1.063-.412 1.4 1.4 0 0 1-.41-1.031 1.448 1.448 0 0 1 .409-1.054 1.374 1.374 0 0 1 1.026-.419 1.425 1.425 0 0 1 1.065.419 1.516 1.516 0 0 1 .41 1.107zm-.7-.548a.7.7 0 0 0-.272-.377.788.788 0 0 0-.471-.145.834.834 0 0 0-.51.163.913.913 0 0 0-.255.359z" class="cls-3" transform="translate(-230.519 -419.767)"/>
                <path id="Path_34" d="M304.354 416.984h.7v3.844h-.7z" class="cls-3" transform="translate(-240.41 -416.913)"/>
                <path id="Path_35" d="M309.521 416.709a.425.425 0 0 1 .314.133.439.439 0 0 1 .131.321.435.435 0 0 1-.129.317.42.42 0 0 1-.31.131.427.427 0 0 1-.317-.134.448.448 0 0 1-.131-.325.443.443 0 0 1 .442-.444zm-.348 1.142h.7v2.773h-.7z" class="cls-3" transform="translate(-243.91 -416.709)"/>
                <path id="Path_36" d="M314.835 416.984h.691v1.351a1.587 1.587 0 0 1 .41-.264 1.058 1.058 0 0 1 .418-.088.942.942 0 0 1 .7.285 1 1 0 0 1 .242.726v1.833h-.685v-1.216a2.994 2.994 0 0 0-.046-.652.455.455 0 0 0-.157-.255.44.44 0 0 0-.274-.084.516.516 0 0 0-.363.14.743.743 0 0 0-.21.382 3.155 3.155 0 0 0-.031.571v1.114h-.691z" class="cls-3" transform="translate(-248.174 -416.913)"/>
                <path id="Path_37" d="M328.085 420.838a1.468 1.468 0 0 1 .738.2 1.417 1.417 0 0 1 .539.533 1.431 1.431 0 0 1 .194.726 1.454 1.454 0 0 1-.2.734 1.407 1.407 0 0 1-.531.534 1.47 1.47 0 0 1-.742.192 1.384 1.384 0 0 1-1.019-.424 1.47 1.47 0 0 1 .055-2.114 1.393 1.393 0 0 1 .966-.381zm.011.655a.716.716 0 0 0-.54.226.8.8 0 0 0-.216.577.816.816 0 0 0 .213.586.712.712 0 0 0 .54.224.72.72 0 0 0 .543-.227.894.894 0 0 0 0-1.163.72.72 0 0 0-.536-.223z" class="cls-3" transform="translate(-256.923 -419.767)"/>
                <path id="Path_38" d="M341.233 420.838a1.468 1.468 0 0 1 .738.2 1.439 1.439 0 0 1 .733 1.259 1.454 1.454 0 0 1-.2.734 1.409 1.409 0 0 1-.531.534 1.47 1.47 0 0 1-.742.192 1.384 1.384 0 0 1-1.018-.424 1.47 1.47 0 0 1 .055-2.114 1.392 1.392 0 0 1 .965-.381zm.011.655a.716.716 0 0 0-.54.226.8.8 0 0 0-.216.577.816.816 0 0 0 .213.586.713.713 0 0 0 .54.224.721.721 0 0 0 .544-.227.894.894 0 0 0 0-1.163.72.72 0 0 0-.541-.223z" class="cls-3" transform="translate(-266.662 -419.767)"/>
                <path id="Path_39" d="M355.147 416.984h.7v3.844h-.7v-.293a1.364 1.364 0 0 1-.409.279 1.145 1.145 0 0 1-.444.085 1.234 1.234 0 0 1-.929-.417 1.455 1.455 0 0 1-.392-1.036 1.49 1.49 0 0 1 .379-1.052 1.209 1.209 0 0 1 .922-.41 1.174 1.174 0 0 1 .469.094 1.284 1.284 0 0 1 .4.283zm-.731 1.642a.7.7 0 0 0-.536.228.911.911 0 0 0 0 1.176.7.7 0 0 0 .535.232.718.718 0 0 0 .544-.228.836.836 0 0 0 .216-.6.811.811 0 0 0-.216-.586.726.726 0 0 0-.544-.222z" class="cls-3" transform="translate(-276.423 -416.913)"/>
                <path id="Path_40" d="M368.087 421.3l-.431.431a.728.728 0 0 0-.477-.26.3.3 0 0 0-.183.049.148.148 0 0 0-.024.227.785.785 0 0 0 .207.129l.255.128a1.505 1.505 0 0 1 .553.405.844.844 0 0 1-.121 1.1 1.039 1.039 0 0 1-.728.247 1.157 1.157 0 0 1-.968-.474l.428-.466a1 1 0 0 0 .287.231.638.638 0 0 0 .292.088.347.347 0 0 0 .222-.066.192.192 0 0 0 .084-.153q0-.161-.3-.314l-.234-.117q-.673-.339-.673-.849a.737.737 0 0 1 .254-.562.92.92 0 0 1 .648-.233 1.126 1.126 0 0 1 .913.459z" class="cls-3" transform="translate(-286.198 -419.767)"/>
                <path id="Path_41" d="M376.052 429.085l.5.25-.63 1.076-.347-.165z" class="cls-3" transform="translate(-293.163 -425.876)"/>
                <path id="Path_42" d="M387.227 417.171h.7v1.022h.413v.6h-.413v2.174h-.7v-2.174h-.357v-.6h.357z" class="cls-3" transform="translate(-301.531 -417.051)"/>
                <path id="Path_43" d="M395.135 420.838a1.468 1.468 0 0 1 .738.2 1.416 1.416 0 0 1 .539.533 1.431 1.431 0 0 1 .194.726 1.454 1.454 0 0 1-.2.734 1.407 1.407 0 0 1-.531.534 1.469 1.469 0 0 1-.742.192 1.384 1.384 0 0 1-1.018-.424 1.47 1.47 0 0 1 .055-2.114 1.392 1.392 0 0 1 .965-.381zm.011.655a.716.716 0 0 0-.54.226.8.8 0 0 0-.216.577.815.815 0 0 0 .213.586.713.713 0 0 0 .54.224.72.72 0 0 0 .544-.227.894.894 0 0 0 0-1.163.72.72 0 0 0-.54-.223z" class="cls-3" transform="translate(-306.588 -419.767)"/>
                <path id="Path_44" d="M409.05 416.984h.7v3.844h-.7v-.293a1.37 1.37 0 0 1-.409.279 1.147 1.147 0 0 1-.444.085 1.234 1.234 0 0 1-.929-.417 1.455 1.455 0 0 1-.392-1.036 1.489 1.489 0 0 1 .379-1.052 1.208 1.208 0 0 1 .922-.41 1.173 1.173 0 0 1 .468.094 1.285 1.285 0 0 1 .4.283zm-.732 1.642a.7.7 0 0 0-.536.228.912.912 0 0 0 0 1.176.7.7 0 0 0 .535.232.718.718 0 0 0 .544-.228.834.834 0 0 0 .216-.6.81.81 0 0 0-.216-.586.726.726 0 0 0-.543-.222z" class="cls-3" transform="translate(-316.349 -416.913)"/>
                <path id="Path_45" d="M422.6 420.909h.7v2.773h-.7v-.293a1.367 1.367 0 0 1-.409.279 1.146 1.146 0 0 1-.444.085 1.235 1.235 0 0 1-.929-.417 1.456 1.456 0 0 1-.392-1.036 1.489 1.489 0 0 1 .379-1.052 1.208 1.208 0 0 1 .921-.41 1.173 1.173 0 0 1 .469.094 1.284 1.284 0 0 1 .4.283zm-.732.571a.7.7 0 0 0-.536.228.912.912 0 0 0 0 1.176.7.7 0 0 0 .535.232.717.717 0 0 0 .544-.228.835.835 0 0 0 .216-.6.811.811 0 0 0-.216-.586.727.727 0 0 0-.542-.222z" class="cls-3" transform="translate(-326.387 -419.767)"/>
                <path id="Path_46" d="M433.283 421.113h.711l.721 1.74.795-1.74h.713l-1.737 3.787h-.719l.57-1.221z" class="cls-3" transform="translate(-335.909 -419.971)"/>
            </g>
        </g>
    </g>
</svg>
