<svg xmlns="http://www.w3.org/2000/svg" width="74.802" height="75.367" viewBox="0 0 74.802 75.367">
    <defs>
        <style>
            .cls-1{fill:#7c40de}.cls-2{fill:#ffcc9e}.cls-5{fill:#ffb654}.cls-6{fill:#ff9812}
        </style>
    </defs>
    <g id="Group_473" transform="translate(-1295 -355)">
        <g id="field" transform="translate(1295 354.999)">
            <path id="Path_73" d="M307.478 400.957a46.684 46.684 0 0 0-32.856 13.731 1.461 1.461 0 0 0 2.072 2.061 43.742 43.742 0 0 1 30.784-12.87 1.461 1.461 0 1 0 0-2.922zm0 0" class="cls-1" transform="translate(-234.138 -342.378)"/>
            <path id="Path_74" d="M188.5 387.935a1.46 1.46 0 0 0-2.028-.393 57.664 57.664 0 0 0-15.683 15.693 1.461 1.461 0 1 0 2.426 1.629 54.743 54.743 0 0 1 14.892-14.9 1.461 1.461 0 0 0 .393-2.029zm0 0" class="cls-1" transform="translate(-145.627 -330.709)"/>
            <path id="Path_75" d="M384 320.457a57.456 57.456 0 0 0-19.215 3.316 1.461 1.461 0 1 0 .975 2.754 54.546 54.546 0 0 1 18.24-3.148 1.461 1.461 0 1 0 0-2.922zm0 0" class="cls-1" transform="translate(-310.662 -273.639)"/>
            <path id="Path_76" d="M20.932 64.777A66.589 66.589 0 0 1 59.81 40.283h.008a65.115 65.115 0 0 1 13.522-1.426 1.461 1.461 0 1 0 0-2.922 68.75 68.75 0 0 0-12.36 1.124V33.9c5.281-4.47 8.179-10.328 8.179-16.565 0-6.449-3.1-12.492-8.725-17.016a1.462 1.462 0 0 0-1.831 0c-5.625 4.528-8.724 10.571-8.724 17.021 0 6.238 2.9 12.1 8.179 16.565v3.751a69.176 69.176 0 0 0-8.191 2.407v-8.554a1.456 1.456 0 0 0-.425-1.03l-8.181-8.23a1.462 1.462 0 0 0-1.036-.431h-16.7a1.461 1.461 0 0 0-1.036.431L14.3 30.478a1.457 1.457 0 0 0-.425 1.03v5.579q-1.527-.28-3.068-.491v-5.207A16.674 16.674 0 0 0 17 18.7a16.828 16.828 0 0 0-6.73-13.143 1.461 1.461 0 0 0-1.831 0A16.827 16.827 0 0 0 1.705 18.7a16.674 16.674 0 0 0 6.184 12.688v4.873q-3.2-.3-6.428-.3a1.461 1.461 0 0 0 0 2.922 65.894 65.894 0 0 1 33.182 8.955 68.966 68.966 0 0 0-6.9 5.36 58.123 58.123 0 0 0-26.282-6.355 1.461 1.461 0 1 0 0 2.922 55.154 55.154 0 0 1 23.985 5.552 69.047 69.047 0 0 0-6.213 6.877A45.7 45.7 0 0 0 1.461 58.6a1.461 1.461 0 0 0 0 2.922 42.757 42.757 0 0 1 15.952 3.088q-1.514 2.1-2.871 4.323l-2.227 3.647a1.461 1.461 0 1 0 2.494 1.52l2.226-3.647a64.857 64.857 0 0 1 3.752-5.489 1.383 1.383 0 0 0 .145-.187zM52.8 17.34a18.643 18.643 0 0 1 6.719-13.966 18.643 18.643 0 0 1 6.719 13.966 18.187 18.187 0 0 1-5.258 12.549V18.7a1.461 1.461 0 1 0-2.922 0v11.189A18.185 18.185 0 0 1 52.8 17.34zM4.627 18.7A13.671 13.671 0 0 1 9.35 8.623 13.67 13.67 0 0 1 14.073 18.7a13.208 13.208 0 0 1-3.262 8.553v-9.721a1.461 1.461 0 0 0-2.922 0v9.722A13.208 13.208 0 0 1 4.627 18.7zm40.267 11.348H32.311l-5.277-5.308h12.584zm-21.373-4.7l4.669 4.7h-9.337zM16.8 32.97h13.442v9.29q-1.016-.467-2.045-.9v-4.909a1.461 1.461 0 0 0-1.461-1.461h-6.429a1.462 1.462 0 0 0-1.461 1.461v1.737q-1.019-.265-2.045-.5zm8.474 7.236q-1.738-.64-3.506-1.186v-1.108h3.506zm7.889 3.485V32.97h13.783v8.23a68.569 68.569 0 0 0-7.319 3.551q-1.137.638-2.247 1.32-2.071-1.271-4.216-2.381zm0 0" class="cls-1"/>
            <path id="Path_77" d="M398.859 82.922a1.463 1.463 0 1 0-1.032-.429 1.471 1.471 0 0 0 1.032.429zm0 0" class="cls-1" transform="translate(-339.34 -68.311)"/>
            <path id="Path_78" d="M318.1 362.764a1.459 1.459 0 1 0 1.033-.429 1.474 1.474 0 0 0-1.033.429zm0 0" class="cls-1" transform="translate(-271.258 -309.399)"/>
        </g>
        <g id="farmer" transform="translate(1261.801 377)">
            <path id="Path_59" d="M197.356 264.059a1.564 1.564 0 0 0-1.681.263 7.472 7.472 0 0 1-9.987 0 1.563 1.563 0 0 0-2.607 1.164v6.5a1.564 1.564 0 0 0 .268.875l6.037 8.939a1.564 1.564 0 0 0 2.591 0l6.037-8.939a1.563 1.563 0 0 0 .268-.875v-6.495a1.564 1.564 0 0 0-.926-1.432z" class="cls-2" transform="translate(-113.199 -236.413)"/>
            <path id="Path_60" fill="#ffae7b" d="M262.676 264.061a1.564 1.564 0 0 0-1.681.264 7.472 7.472 0 0 1-4.995 1.913v16.248a1.564 1.564 0 0 0 1.3-.688l6.037-8.939a1.563 1.563 0 0 0 .268-.875v-6.495a1.564 1.564 0 0 0-.929-1.428z" transform="translate(-178.518 -236.415)"/>
            <path id="Path_61" fill="#ffe9c0" d="M168.557 134.97l-3.8 9.959a10.629 10.629 0 0 1-10.617-10.617v-7.738a1.563 1.563 0 0 1 1.564-1.563h9.054z" transform="translate(-87.275 -111.98)"/>
            <path id="Path_62" d="M265.054 125.007H256v19.92a10.629 10.629 0 0 0 10.617-10.617v-7.74a1.563 1.563 0 0 0-1.563-1.563z" class="cls-2" transform="translate(-178.517 -111.977)"/>
            <path id="Path_63" d="M175.274 9.354l-3.127-8.339a1.564 1.564 0 0 0-1.735-.991l-5.656.995L159.1.024a1.564 1.564 0 0 0-1.735.991l-3.127 8.339a1.563 1.563 0 0 0 1.464 2.112h18.108a1.563 1.563 0 0 0 1.464-2.112z" class="cls-5" transform="translate(-87.273)"/>
            <path id="Path_64" d="M138.186 80H110.7a1.564 1.564 0 0 0-1.563 1.563v1.564a4.7 4.7 0 0 0 4.69 4.69h21.236a4.7 4.7 0 0 0 4.69-4.69v-1.559A1.563 1.563 0 0 0 138.186 80z" class="cls-5" transform="translate(-46.959 -71.665)"/>
            <path id="Path_65" d="M266.518 9.354l-3.127-8.339a1.564 1.564 0 0 0-1.735-.991L256 1.019v10.448h9.054a1.564 1.564 0 0 0 1.464-2.112z" class="cls-5" transform="translate(-178.517)"/>
            <path id="Path_66" d="M269.745 80H256v7.818h10.618a4.7 4.7 0 0 0 4.69-4.69v-1.56A1.563 1.563 0 0 0 269.745 80z" class="cls-5" transform="translate(-178.517 -71.665)"/>
            <path id="Path_67" d="M94.286 334.065l-5.412-1.965-1.568.473-1.559-1.608-.664-.241-7.6 8.471-7.6-8.471-.663.241-1.524 1.6-1.6-.461-5.413 1.965a6.376 6.376 0 0 0-3.968 5.663v8.327a1.564 1.564 0 0 0 1.563 1.564h5.733l13.476-1.042 13.476 1.042h5.734a1.564 1.564 0 0 0 1.563-1.564v-8.327a6.376 6.376 0 0 0-3.969-5.663z" class="cls-6" transform="translate(0 -296.251)"/>
            <path id="Path_68" d="M272.8 334.065l-5.413-1.965-1.568.473-1.559-1.608-.664-.241L256 339.2v9.381l13.476 1.042h5.734a1.564 1.564 0 0 0 1.564-1.564v-8.327a6.376 6.376 0 0 0-3.974-5.667z" class="cls-6" transform="translate(-178.517 -296.251)"/>
            <path id="Path_69" d="M336.846 344.391a1.563 1.563 0 0 0 1.563-1.563v-8.659l-3.127-1.135v9.794a1.563 1.563 0 0 0 1.564 1.563z" class="cls-5" transform="translate(-249.537 -298.321)"/>
            <path id="Path_70" d="M148.281 344.391a1.563 1.563 0 0 0 1.563-1.563v-9.794l-3.127 1.135v8.659a1.564 1.564 0 0 0 1.564 1.563z" class="cls-5" transform="translate(-80.626 -298.321)"/>
            <path id="Path_71" d="M152.1 412h-23.821a1.563 1.563 0 0 0-1.563 1.563v8.86h26.951v-8.86A1.563 1.563 0 0 0 152.1 412z" class="cls-5" transform="translate(-62.709 -369.053)"/>
        </g>
    </g>
</svg>
