<svg xmlns="http://www.w3.org/2000/svg" width="16.572" height="19.029" viewBox="0 0 16.572 19.029">
  <g id="manage-inventory" transform="translate(-27.27 -369)">
    <g id="Group_860" data-name="Group 860" transform="translate(-27.631 -39.737)">
      <g id="sent" transform="translate(54.9 408.737)">
        <g id="Group_13" data-name="Group 13" transform="translate(0 0)">
          <g id="Group_12" data-name="Group 12">
            <path id="Path_54" data-name="Path 54" d="M276.421.535A1.073,1.073,0,0,0,275.495,0h-3.979V4.707h7.318Z" transform="translate(-262.653)" fill="#3c4e71"/>
            <path id="Path_55" data-name="Path 55" d="M51.149,0H47.132a1.073,1.073,0,0,0-.927.536L43.8,4.707h7.348V0Z" transform="translate(-43.402)" fill="#3c4e71"/>
            <path id="Path_56" data-name="Path 56" d="M33.057,156.648v11.9a1.313,1.313,0,0,0,1.312,1.311H48.317a1.313,1.313,0,0,0,1.312-1.311v-11.9Zm10.817,5-2.884,2.884a.557.557,0,0,1-.789,0l-1.352-1.352a.558.558,0,0,1,.789-.789l.957.958,2.49-2.49a.558.558,0,1,1,.789.789Z" transform="translate(-33.057 -150.826)" fill="#3c4e71"/>
          </g>
        </g>
      </g>
      <rect id="Rectangle_819" data-name="Rectangle 819" width="10" height="7" transform="translate(58.204 417.383)" fill="#3c4e71"/>
      <path id="Path_518" data-name="Path 518" d="M18.926,22.385H13.385V21H12v2.771h8.312V21H18.926Z" transform="translate(47.055 400.42)" fill="#eaeaea"/>
    </g>
    <path id="setting" d="M6.993,11.276l.186.741A.675.675,0,0,0,7.8,12.5h.5a.675.675,0,0,0,.621-.485l.186-.741a.481.481,0,0,1,.6-.347l.734.21a.675.675,0,0,0,.731-.3l.25-.434a.676.676,0,0,0-.11-.781L10.765,9.1a.48.48,0,0,1,0-.7l.548-.531a.676.676,0,0,0,.11-.781l-.251-.434a.675.675,0,0,0-.731-.3l-.734.21a.482.482,0,0,1-.6-.347l-.185-.74A.675.675,0,0,0,8.3,5H7.8a.675.675,0,0,0-.621.485l-.185.74a.482.482,0,0,1-.6.348l-.734-.21a.675.675,0,0,0-.731.3l-.25.434a.676.676,0,0,0,.11.781l.548.53a.483.483,0,0,1,0,.7l-.549.531a.676.676,0,0,0-.11.781l.251.434a.675.675,0,0,0,.731.3l.734-.21a.48.48,0,0,1,.6.347ZM8.05,7.751a1,1,0,1,1-1,1A1,1,0,0,1,8.05,7.751Z" transform="translate(27.506 368.763)" fill="#fff"/>
  </g>
</svg>
