<svg xmlns="http://www.w3.org/2000/svg" width="17.128" height="17.729" viewBox="0 0 17.128 17.729">
    <defs>
        <style>
            .cls-1{fill:#3c4e71}
        </style>
    </defs>
    <g id="managebuyers" transform="translate(0 -1)">
        <path id="Path_343" d="M66.351 176h.533l1.917 1.917a.336.336 0 0 0 .475 0L71.192 176h.533a2.354 2.354 0 0 1 2.351 2.351v5.27l-1.679.769v-5.368h-.672v3.878a1.329 1.329 0 0 0-.672-.187h-2.5a5.2 5.2 0 0 0-2.206-.625v-3.065h-.672v3.077a5.16 5.16 0 0 0-1.679.419v-4.165A2.354 2.354 0 0 1 66.351 176zm0 0" class="cls-1" transform="translate(-59.634 -168.691)"/>
        <path id="Path_344" d="M2.079 336.727a4.558 4.558 0 0 1 2.152.553l.081.045a.336.336 0 0 0 .165.043h2.576a.672.672 0 0 1 .672.669.284.284 0 0 0 0 .033.669.669 0 0 1-.669.641H4.03v.672h3.695a.337.337 0 0 0 .14-.031l2.666-1.223.03-.015.165-.076h.02v-.009l.936-.427a.761.761 0 0 1 1.079.692v.074a.754.754 0 0 1-.421.678L8 341.221a1.71 1.71 0 0 1-.753.177H0v-4.165a4.489 4.489 0 0 1 2.018-.5.343.343 0 0 0 .061-.006zm0 0" class="cls-1" transform="translate(4.366 -322.67)"/>
        <path id="Path_345" d="M156.517 177.2l-1.2-1.2h2.409zm0 0" class="cls-1" transform="translate(-147.113 -168.691)"/>
        <path id="Path_346" d="M323.694 352v4.03H320V352zm-1.343 3.359h.672v-.672h-.672zm0 0" class="cls-1" transform="translate(-320 -337.302)"/>
        <path id="Path_347" d="M138.015 5.374A2.017 2.017 0 0 1 136 3.359V2.015a2.015 2.015 0 1 1 4.03 0v1.344a2.017 2.017 0 0 1-2.015 2.015zm1.343-3.359a1.346 1.346 0 0 0-.9-1.267l-.224.633a.674.674 0 0 1 .448.634v.336h.672zm0 0" class="cls-1" transform="translate(-128.611 1)"/>
    </g>
</svg>
