<svg xmlns="http://www.w3.org/2000/svg" width="17.242" height="18.969" viewBox="0 0 17.242 18.969">
    <defs>
        <style>
            .cls-1{fill:#3c4e71}
        </style>
    </defs>
    <g id="manageusers" transform="translate(-30.296 -252.725)">
        <g id="Group_480" transform="translate(30.296 252.725)">
            <path id="Path_343" d="M67.034 176h.687l2.473 2.473a.434.434 0 0 0 .613 0L73.28 176h.687A3.037 3.037 0 0 1 77 179.034v6.694h-2.166V179.9h.232v5.828c-.014.005-1.576 0-1.881 0h-3.3c0-.013-2.81.026-2.849 0V179.9h-.867v5.828c.009-.011-2.152.024-2.167 0v-6.694A3.037 3.037 0 0 1 67.034 176zm0 0" class="cls-1" transform="translate(-64 -167.859)"/>
            <path id="Path_345" d="M156.867 177.554L155.313 176h3.108zm0 0" class="cls-1" transform="translate(-150.367 -167.859)"/>
            <path id="Path_347" d="M138.6 6.934a2.6 2.6 0 0 1-2.6-2.6V2.6a2.6 2.6 0 1 1 5.2 0v1.734a2.6 2.6 0 0 1-2.6 2.6zm1.734-4.334a1.737 1.737 0 0 0-1.156-1.634l-.289.817a.87.87 0 0 1 .578.817v.433h.867zm0 0" class="cls-1" transform="translate(-132.1)"/>
        </g>
        <circle id="Ellipse_272" cx="2.746" cy="2.746" r="2.746" fill="#028292" transform="translate(39.857 264.012)"/>
        <g id="black-settings-button" transform="translate(37.508 261.664)">
            <g id="Path_348" fill="#3c4e71" stroke="none">
                <path d="M4.765 9.78c-.459 0-.933-.323-1.08-.735-.09-.25-.316-.503-.46-.563-.024-.01-.095-.033-.227-.033-.17 0-.356.04-.495.106-.129.061-.28.093-.438.093-.32 0-.636-.125-.847-.336-.324-.324-.43-.889-.243-1.284.114-.24.133-.579.073-.722-.06-.145-.306-.37-.562-.46-.413-.147-.736-.622-.736-1.08 0-.46.324-.934.737-1.08.255-.09.5-.315.56-.46.06-.144.042-.484-.072-.723-.188-.396-.081-.96.243-1.285.211-.21.527-.336.847-.336.158 0 .31.032.438.093.14.067.325.107.496.107.132 0 .202-.024.226-.034.144-.06.371-.312.46-.562.147-.413.621-.736 1.08-.736.46 0 .934.323 1.08.736.09.25.316.503.46.562.024.01.095.034.227.034.17 0 .356-.04.495-.107.129-.06.28-.093.439-.093.32 0 .635.126.846.336.324.325.431.89.243 1.285-.114.239-.132.579-.073.724.06.144.312.37.562.459.413.146.736.62.736 1.08 0 .458-.323.932-.736 1.08-.25.088-.503.315-.562.46-.06.143-.04.482.073.722.188.395.081.96-.243 1.284-.21.21-.527.337-.846.337-.159 0-.31-.033-.439-.094-.14-.066-.324-.106-.495-.106-.132 0-.203.023-.227.033-.144.06-.37.314-.46.563-.147.412-.621.735-1.08.735zm0-6.511c-.826 0-1.498.672-1.498 1.498 0 .825.672 1.497 1.498 1.497.825 0 1.497-.672 1.497-1.497 0-.826-.672-1.498-1.497-1.498z"/>
                <path fill="#fff" d="M4.765 0c-.354 0-.732.255-.845.57-.112.315-.384.62-.6.71-.083.034-.196.052-.321.052-.196 0-.42-.043-.604-.13-.098-.048-.213-.07-.33-.07-.243 0-.501.094-.67.263-.25.25-.337.699-.194 1 .144.302.167.711.077.926-.089.215-.393.489-.708.6-.315.112-.57.49-.57.844 0 .355.255.733.57.845.315.112.62.385.709.6.089.214.066.623-.078.925-.143.302-.057.75.194 1 .169.169.427.263.67.263.118 0 .232-.022.33-.069.184-.087.408-.13.603-.13.125 0 .239.018.323.052.215.09.487.396.6.71.112.314.49.57.844.57.355 0 .733-.256.845-.57.112-.314.385-.62.6-.71.083-.034.197-.052.322-.052.195 0 .42.043.603.13.098.047.213.07.33.07.243 0 .501-.095.67-.263.25-.251.338-.7.194-1-.143-.303-.167-.712-.078-.926.089-.215.394-.488.71-.6.314-.112.57-.49.57-.845 0-.354-.256-.732-.57-.844-.316-.111-.62-.384-.71-.6-.089-.214-.065-.624.078-.926.144-.301.057-.75-.194-1-.168-.169-.427-.263-.67-.263-.117 0-.231.022-.33.07-.184.087-.408.13-.603.13-.125 0-.239-.018-.322-.053-.215-.088-.488-.394-.6-.709C5.498.255 5.12 0 4.765 0m0 6.514c-.967 0-1.748-.782-1.748-1.747 0-.967.781-1.748 1.748-1.748.965 0 1.747.781 1.747 1.748 0 .965-.782 1.747-1.747 1.747m0-7.014c.567 0 1.133.388 1.316.902.07.2.248.383.32.416.01.003.055.014.13.014.134 0 .283-.032.389-.082.162-.077.35-.118.546-.118.384 0 .766.153 1.023.41.4.4.526 1.075.292 1.568-.092.192-.095.447-.067.522.032.071.214.248.413.318.515.182.903.748.903 1.315s-.387 1.133-.902 1.316c-.2.071-.382.248-.415.32-.028.074-.023.328.068.52.234.492.109 1.167-.292 1.568-.257.257-.64.41-1.023.41-.195 0-.384-.041-.546-.118-.106-.05-.255-.082-.388-.082-.076 0-.121.01-.132.015-.07.032-.248.215-.319.415-.183.514-.749.901-1.316.901-.567 0-1.132-.387-1.316-.901-.07-.2-.248-.383-.32-.416-.01-.003-.055-.014-.131-.014-.133 0-.282.031-.388.082-.162.077-.35.117-.545.117-.384 0-.767-.153-1.023-.409C.64 8.088.515 7.413.75 6.92c.09-.19.095-.444.067-.519-.033-.072-.215-.25-.414-.32C-.112 5.898-.5 5.332-.5 4.765c0-.567.388-1.133.903-1.315.199-.07.38-.248.414-.32C.844 3.055.84 2.8.75 2.61c-.235-.493-.11-1.167.292-1.568.256-.257.638-.41 1.023-.41.195 0 .383.04.545.118.106.05.255.082.389.082.076 0 .12-.011.131-.015.072-.032.248-.215.32-.415.182-.514.748-.902 1.315-.902zm0 6.514c.688 0 1.247-.56 1.247-1.247 0-.688-.56-1.248-1.247-1.248-.688 0-1.248.56-1.248 1.248s.56 1.247 1.248 1.247z"/>
            </g>
        </g>
    </g>
</svg>
