<svg xmlns="http://www.w3.org/2000/svg" width="17.845" height="17.525" viewBox="0 0 17.845 17.525">
  <g id="manage_yield_outcomes" transform="translate(-71 -679.43)">
    <path id="Path_436" data-name="Path 436" d="M16.418,4.671H14.7a.7.7,0,0,1-.7-.7V3.187A3.191,3.191,0,0,1,17.187,0H18.9a.7.7,0,0,1,.7.7v.783a3.191,3.191,0,0,1-3.187,3.187Z" transform="translate(68.105 679.43)" fill="#3c4e71"/>
    <path id="Path_437" data-name="Path 437" d="M14.7,11.69a.7.7,0,0,1-.7-.7V4.451a.7.7,0,1,1,1.4,0V10.99A.7.7,0,0,1,14.7,11.69Z" transform="translate(68.105 679.182)" fill="#3c4e71"/>
    <path id="Path_438" data-name="Path 438" d="M14.339,8.6H12.594A4.1,4.1,0,0,1,8.5,4.511V3.7A.7.7,0,0,1,9.2,3h1.744a4.1,4.1,0,0,1,4.094,4.094V7.9A.7.7,0,0,1,14.339,8.6Z" transform="translate(68.468 679.232)" fill="#3c4e71"/>
    <path id="Path_439" data-name="Path 439" d="M.365,12A.372.372,0,0,0,0,12.373v6.876a.186.186,0,0,0,.186.186H1.95a.371.371,0,0,0,.358-.27l1.645-5.8a.744.744,0,0,0-.461-.9A8.7,8.7,0,0,0,.365,12Z" transform="translate(71 676.033)" fill="#3c4e71"/>
    <path id="Path_440" data-name="Path 440" d="M17.576,16.556c-1.487,0-4.461,1.882-5.948,1.882A6.848,6.848,0,0,1,8.468,17.3a23.163,23.163,0,0,0,3.16.372c1.157,0,1.487-.395,1.487-.929,0-1.3-2.21-1.5-3.328-1.674A6.838,6.838,0,0,0,6.3,13.82a1.792,1.792,0,0,1-.057.317L4.751,19.4c1.692.77,4.6,1.988,6.133,1.988,2.231,0,8.179-2.974,8.179-3.718S18.32,16.556,17.576,16.556Z" transform="translate(69.782 675.566)" fill="#3c4e71"/>
  </g>
</svg>
