<svg xmlns="http://www.w3.org/2000/svg" width="17.614" height="16.51" viewBox="0 0 17.614 16.51">
    <defs>
        <style>
            .cls-1{fill:#3c4e71}
        </style>
    </defs>
    <g id="managesuppliers" transform="translate(-28.573 -178.479)">
        <g id="Group_485" transform="translate(28.573 178.479)">
            <path id="Path_350" d="M7.67 55H6.033v1.308H5v.819h3.7v-.819H7.67z" class="cls-1" transform="translate(-3.577 -40.946)"/>
            <path id="Path_353" d="M8.731 42.731H6.275a2.458 2.458 0 0 1-2.456-2.456v-2.866a.409.409 0 1 0-.819 0v3.684a2.458 2.458 0 0 0 2.456 2.456H9.14v-.409a.41.41 0 0 0-.409-.409z" class="cls-1" transform="translate(-3 -30.313)"/>
            <circle id="Ellipse_274" cx="2.028" cy="2.028" r="2.028" class="cls-1" transform="translate(1.606)"/>
            <path id="Path_354" d="M12.811 35.5h-.934a.815.815 0 0 1-.815-.744l-.172-1.888A2.046 2.046 0 0 0 8.842 31 1.844 1.844 0 0 0 7 32.842v3.889a1.639 1.639 0 0 0 1.637 1.637h2.456a1.229 1.229 0 0 1 1.228 1.232v3.07a.614.614 0 1 0 1.228 0v-3.893a1.639 1.639 0 0 0-1.637-1.637h-.551a2.036 2.036 0 0 1-2.038-1.861l-.274-2 .815-.074.274 2a1.222 1.222 0 0 0 1.223 1.117h1.45a.409.409 0 0 0 0-.819z" class="cls-1" transform="translate(-5.363 -26.77)"/>
        </g>
        <g id="Group_486" transform="translate(38 178.479)">
            <path id="Path_350-2" d="M6.033 55H7.67v1.308H8.7v.819H5v-.819h1.033z" class="cls-1" transform="translate(-1.939 -40.946)"/>
            <path id="Path_353-2" d="M3.409 42.731h2.456a2.458 2.458 0 0 0 2.456-2.456v-2.866a.409.409 0 1 1 .819 0v3.684a2.458 2.458 0 0 1-2.456 2.456H3v-.409a.41.41 0 0 1 .409-.409z" class="cls-1" transform="translate(-.953 -30.313)"/>
            <circle id="Ellipse_274-2" cx="2.028" cy="2.028" r="2.028" class="cls-1" transform="translate(2.525)"/>
            <path id="Path_354-2" d="M7.738 35.5h.934a.815.815 0 0 0 .815-.744l.173-1.886A2.046 2.046 0 0 1 11.707 31a1.844 1.844 0 0 1 1.842 1.842v3.889a1.639 1.639 0 0 1-1.637 1.637H9.456A1.229 1.229 0 0 0 8.228 39.6v3.07a.614.614 0 1 1-1.228 0v-3.893a1.639 1.639 0 0 1 1.637-1.637h.551a2.036 2.036 0 0 0 2.038-1.861l.274-2-.815-.074-.274 2a1.222 1.222 0 0 1-1.223 1.117h-1.45a.409.409 0 1 1 0-.819z" class="cls-1" transform="translate(-7 -26.77)"/>
        </g>
    </g>
</svg>
