<svg xmlns="http://www.w3.org/2000/svg" width="16.5" height="19.092" viewBox="0 0 16.5 19.092">
  <g id="manage_sup_branches" transform="translate(-27 -634.5)">
    <g id="Group_480" data-name="Group 480" transform="translate(27 634.5)">
      <path id="Path_343" data-name="Path 343" d="M67.034,176h.687l2.473,2.473a.434.434,0,0,0,.613,0L73.28,176h.687A3.037,3.037,0,0,1,77,179.034v6.694H74.834V179.9h.232v5.828c-.014.005-1.576,0-1.881,0h-3.3c0-.013-2.81.026-2.849,0V179.9h-.867v5.828c.009-.011-2.152.024-2.167,0v-6.694A3.037,3.037,0,0,1,67.034,176Zm0,0" transform="translate(-64 -167.859)" fill="#3c4e71"/>
      <path id="Path_345" data-name="Path 345" d="M156.867,177.554,155.313,176h3.108Zm0,0" transform="translate(-150.367 -167.859)" fill="#3c4e71"/>
      <path id="Path_347" data-name="Path 347" d="M138.6,6.934a2.6,2.6,0,0,1-2.6-2.6V2.6a2.6,2.6,0,1,1,5.2,0V4.334A2.6,2.6,0,0,1,138.6,6.934ZM140.334,2.6A1.737,1.737,0,0,0,139.178.966l-.289.817a.87.87,0,0,1,.578.817v.433h.867Zm0,0" transform="translate(-132.1)" fill="#3c4e71"/>
    </g>
    <circle id="Ellipse_276" data-name="Ellipse 276" cx="2" cy="2" r="2" transform="translate(37 645)" fill="#fff"/>
    <g id="map" transform="translate(-144 365)">
      <g id="Group_525" data-name="Group 525" transform="translate(-108.92 277.908)">
        <g id="Group_524" data-name="Group 524" transform="translate(288)">
          <g id="Path_389" data-name="Path 389" transform="translate(-288)" fill="#3c4e71">
            <path d="M 291.9602966308594 10.43359661102295 C 291.7302856445312 10.43359661102295 291.50927734375 10.3351469039917 291.3539733886719 10.16348648071289 C 290.7515258789062 9.491376876831055 287.75 6.037646770477295 287.75 3.960286855697632 C 287.75 1.638726830482483 289.6387329101562 -0.2500031292438507 291.9602966308594 -0.2500031292438507 C 294.2818603515625 -0.2500031292438507 296.1705627441406 1.638726830482483 296.1705627441406 3.960286855697632 C 296.1705627441406 6.037646770477295 293.1690368652344 9.491376876831055 292.5673522949219 10.16263675689697 C 292.4112854003906 10.3351469039917 292.1903076171875 10.43359661102295 291.9602966308594 10.43359661102295 Z M 291.9602966308594 2.513016939163208 C 291.1622619628906 2.513016939163208 290.5130310058594 3.162256956100464 290.5130310058594 3.960286855697632 C 290.5130310058594 4.758316993713379 291.1622619628906 5.407557010650635 291.9602966308594 5.407557010650635 C 292.7583312988281 5.407557010650635 293.4075622558594 4.758316993713379 293.4075622558594 3.960286855697632 C 293.4075622558594 3.162256956100464 292.7583312988281 2.513016939163208 291.9602966308594 2.513016939163208 Z" stroke="none"/>
            <path d="M 291.9602966308594 -2.86102294921875e-06 C 289.7764892578125 -2.86102294921875e-06 288 1.776467323303223 288 3.960287094116211 C 288 5.992476940155029 291.1772766113281 9.591816902160645 291.5393676757812 9.995766639709473 C 291.6468505859375 10.11456680297852 291.7996215820312 10.18359661102295 291.9602966308594 10.18359661102295 C 292.1209716796875 10.18359661102295 292.2737121582031 10.114577293396 292.3811950683594 9.995766639709473 C 292.7432861328125 9.591816902160645 295.9205627441406 5.992476940155029 295.9205627441406 3.960287094116211 C 295.9205627441406 1.776467323303223 294.1441040039062 -2.86102294921875e-06 291.9602966308594 -2.86102294921875e-06 M 291.9602966308594 5.657557010650635 C 291.0234069824219 5.657557010650635 290.2630310058594 4.897176742553711 290.2630310058594 3.960287094116211 C 290.2630310058594 3.023396968841553 291.0234069824219 2.263016700744629 291.9602966308594 2.263016700744629 C 292.8971862792969 2.263016700744629 293.6575622558594 3.023396968841553 293.6575622558594 3.960287094116211 C 293.6575622558594 4.897176742553711 292.8971862792969 5.657557010650635 291.9602966308594 5.657557010650635 M 291.9602966308594 -0.5000028610229492 C 294.4197082519531 -0.5000028610229492 296.4205627441406 1.500876426696777 296.4205627441406 3.960287094116211 C 296.4205627441406 6.128676891326904 293.3658752441406 9.646356582641602 292.7535095214844 10.32950687408447 C 292.5493774414062 10.55515670776367 292.2608337402344 10.68359661102295 291.9602966308594 10.68359661102295 C 291.6597595214844 10.68359661102295 291.3711853027344 10.55515670776367 291.1685791015625 10.33121681213379 C 290.5546875 9.646356582641602 287.5 6.128676891326904 287.5 3.960287094116211 C 287.5 1.500876426696777 289.5008850097656 -0.5000028610229492 291.9602966308594 -0.5000028610229492 Z M 291.9602966308594 5.157557010650635 C 292.6204833984375 5.157557010650635 293.1575622558594 4.620466709136963 293.1575622558594 3.960287094116211 C 293.1575622558594 3.300107002258301 292.6204833984375 2.763016700744629 291.9602966308594 2.763016700744629 C 291.3001098632812 2.763016700744629 290.7630310058594 3.300107002258301 290.7630310058594 3.960287094116211 C 290.7630310058594 4.620466709136963 291.3001098632812 5.157557010650635 291.9602966308594 5.157557010650635 Z" stroke="none" fill="#fff"/>
          </g>
        </g>
      </g>
    </g>
  </g>
</svg>
