<svg xmlns="http://www.w3.org/2000/svg" width="16.127" height="14.878" viewBox="0 0 16.127 14.878">
    <defs>
        <style>
            .cls-1{fill:#3c4e71}
        </style>
    </defs>
    <g id="map" transform="translate(-4.931 -2.058)">
        <g id="Group_498" transform="translate(6.438 12.4)">
            <g id="Group_497">
                <path id="Path_379" d="M73.216 376.964l-6.592-3.49a.529.529 0 0 0-.544.031l-5.041 3.49a.524.524 0 0 0 .3.954H72.97a.524.524 0 0 0 .246-.986z" class="cls-1" transform="translate(-60.814 -373.412)"/>
            </g>
        </g>
        <g id="Group_500" transform="translate(13.419 7.566)">
            <g id="Group_499">
                <path id="Path_380" d="M281.7 233.134l-1.55-6.98a.525.525 0 0 0-.81-.317l-5.042 3.49a.523.523 0 0 0 .053.893l6.591 3.49a.525.525 0 0 0 .245.062.517.517 0 0 0 .317-.108.524.524 0 0 0 .196-.53z" class="cls-1" transform="translate(-274.069 -225.744)"/>
            </g>
        </g>
        <g id="Group_502" transform="translate(4.931 6.461)">
            <g id="Group_501">
                <path id="Path_381" d="M27.252 192.368a.525.525 0 0 0-.5-.368H21.97a21.861 21.861 0 0 1-2.685 3.668 1.571 1.571 0 0 1-2.338 0c-.2-.227-.521-.591-.883-1.041l-1.268 5.7a.523.523 0 0 0 .511.637.519.519 0 0 0 .3-.093l11.442-7.923a.522.522 0 0 0 .203-.58z" class="cls-1" transform="translate(-14.784 -192)"/>
            </g>
        </g>
        <g id="Group_504" transform="translate(5.349 2.058)">
            <g id="Group_503">
                <path id="Path_382" d="M7.479 0a2.917 2.917 0 0 0-2.914 2.914c0 1.5 2.337 4.143 2.6 4.44a.416.416 0 0 0 .619 0c.266-.3 2.6-2.945 2.6-4.44A2.917 2.917 0 0 0 7.479 0zm0 4.162a1.249 1.249 0 1 1 1.248-1.248 1.249 1.249 0 0 1-1.248 1.248z" class="cls-1" transform="translate(-4.565)"/>
            </g>
        </g>
    </g>
</svg>
