<svg xmlns="http://www.w3.org/2000/svg" id="sent" width="11.963" height="13.737" viewBox="0 0 11.963 13.737">
    <defs>
        <style>
            .cls-1{fill:#3c4e71}
        </style>
    </defs>
    <g id="Group_13">
        <g id="Group_12">
            <path id="Path_54" d="M275.057.386a.775.775 0 0 0-.669-.386h-2.872v3.4h5.284z" class="cls-1" transform="translate(-265.118)"/>
            <path id="Path_55" d="M49.105 0h-2.9a.775.775 0 0 0-.669.387L43.8 3.4h5.3V0z" class="cls-1" transform="translate(-43.513)"/>
            <path id="Path_56" d="M33.057 156.648v8.587a.948.948 0 0 0 .947.947h10.069a.948.948 0 0 0 .947-.947v-8.587zm7.809 3.611l-2.082 2.082a.4.4 0 0 1-.569 0l-.976-.976a.4.4 0 1 1 .57-.569l.691.691 1.8-1.8a.4.4 0 1 1 .569.569z" class="cls-1" transform="translate(-33.057 -152.445)"/>
        </g>
    </g>
</svg>
