<svg xmlns="http://www.w3.org/2000/svg" id="route_1_" width="18" height="18" viewBox="0 0 18 18">
    <defs>
        <style>
            .cls-1{fill:#61a734}
        </style>
    </defs>
    <path id="Path_407" d="M284.4 71.031a1.582 1.582 0 1 0-1.582 1.583 1.584 1.584 0 0 0 1.582-1.583zm-1.582.528a.528.528 0 1 1 .527-.528.529.529 0 0 1-.526.529z" class="cls-1" transform="translate(-271.35 -67.006)"/>
    <path id="Path_408" d="M16.013 12.423H6.236a.9.9 0 0 1 0-1.8h5.233a.545.545 0 0 0 .455-.252L14.7 6.558a4.073 4.073 0 1 0-6.473-.023l2.249 3.035h-4.24a1.954 1.954 0 0 0 0 3.907h9.778a.933.933 0 0 1 0 1.866H4.188a2.129 2.129 0 1 0 0 1.055h11.825a1.988 1.988 0 0 0 0-3.976zM9.067 5.9a3.018 3.018 0 1 1 4.786.023l-2.36 3.248L9.067 5.9zm-6.94 11.045A1.074 1.074 0 1 1 3.2 15.871a1.074 1.074 0 0 1-1.073 1.074z" class="cls-1"/>
</svg>
