<svg xmlns="http://www.w3.org/2000/svg" width="17" height="13.81" viewBox="0 0 17 13.81">
  <g id="twitter-logo-silhouette" transform="translate(-0.001 -57.441)">
    <g id="Group_49" data-name="Group 49" transform="translate(0.001 57.441)">
      <path id="Path_93" data-name="Path 93" d="M17,59.075a6.965,6.965,0,0,1-2,.549A3.5,3.5,0,0,0,16.532,57.7a7.031,7.031,0,0,1-2.216.847,3.49,3.49,0,0,0-5.943,3.18,9.9,9.9,0,0,1-7.188-3.644,3.492,3.492,0,0,0,1.079,4.655A3.488,3.488,0,0,1,.685,62.3v.044a3.491,3.491,0,0,0,2.8,3.42,3.532,3.532,0,0,1-.919.122,3.348,3.348,0,0,1-.657-.065,3.489,3.489,0,0,0,3.257,2.422,7,7,0,0,1-4.331,1.49A7.408,7.408,0,0,1,0,69.681,9.858,9.858,0,0,0,5.347,71.25a9.854,9.854,0,0,0,9.922-9.922l-.012-.451A6.964,6.964,0,0,0,17,59.075Z" transform="translate(-0.001 -57.441)" fill="#fff"/>
    </g>
  </g>
</svg>
