<svg xmlns="http://www.w3.org/2000/svg" id="x-mark" width="16.191" height="16.191" viewBox="0 0 16.191 16.191">
    <defs>
        <style>
            .cls-1{fill:#8193b4}
        </style>
    </defs>
    <path id="Path_409" d="M8.1 16.191a8.1 8.1 0 1 1 8.1-8.1 8.1 8.1 0 0 1-8.1 8.1zm0-15.035A6.939 6.939 0 1 0 15.035 8.1 6.947 6.947 0 0 0 8.1 1.156zm0 0" class="cls-1"/>
    <path id="Path_410" d="M152.647 153.227a.576.576 0 0 1-.409-.169l-5.783-5.783a.578.578 0 0 1 .818-.818l5.783 5.783a.578.578 0 0 1-.409.987zm0 0" class="cls-1" transform="translate(-141.66 -141.661)"/>
    <path id="Path_411" d="M146.864 153.225a.578.578 0 0 1-.409-.987l5.783-5.783a.578.578 0 0 1 .818.818l-5.783 5.783a.576.576 0 0 1-.409.169zm0 0" class="cls-1" transform="translate(-141.66 -141.66)"/>
</svg>
