<svg xmlns="http://www.w3.org/2000/svg" width="16.875" height="13.5" viewBox="0 0 16.875 13.5">
  <g id="youtube-logo" transform="translate(0 -51)">
    <g id="video-youtube" transform="translate(0 51)">
      <path id="Path_98" data-name="Path 98" d="M15.188,51.337A46.711,46.711,0,0,0,8.438,51a46.711,46.711,0,0,0-6.75.337C.338,51.759,0,54.712,0,57.75s.338,5.991,1.688,6.412a46.71,46.71,0,0,0,6.75.338,46.71,46.71,0,0,0,6.75-.338c1.35-.422,1.688-3.375,1.688-6.412S16.538,51.759,15.188,51.337ZM6.75,61.547V53.953l5.063,3.8Z" transform="translate(0 -51)" fill="#fff"/>
    </g>
  </g>
</svg>
