<svg xmlns="http://www.w3.org/2000/svg" width="12.889" height="16.776" viewBox="0 0 12.889 16.776">
    <path fill="#3c4e71" d="M138.423 13.985h.036v-1.622a5.146 5.146 0 0 1 5.121-5.169 5.049 5.049 0 0 1 4.954 5.037v.155a.425.425 0 0 1-.423.423h-1.353a.425.425 0 0 1-.423-.423v-.046a2.907 2.907 0 0 0-2.654-2.94 2.837 2.837 0 0 0-3.016 2.826v1.753h4.173v.006h3.857a1.33 1.33 0 0 1 1.294 1.323v7.333a1.331 1.331 0 0 1-1.329 1.329h-10.23a1.331 1.331 0 0 1-1.329-1.329v-7.327a1.322 1.322 0 0 1 1.322-1.329zm4.328 5.324a.286.286 0 0 1 .131.268c-.006.537-.006 1.073 0 1.616a.566.566 0 0 0 .3.542.63.63 0 0 0 .942-.542v-1.622a.281.281 0 0 1 .119-.256 1.225 1.225 0 0 0 .405-1.514 1.253 1.253 0 0 0-2.4.495 1.135 1.135 0 0 0 .503 1.013z" transform="translate(-137.1 -7.194)"/>
</svg>
