<svg xmlns="http://www.w3.org/2000/svg" width="17.722" height="19.948" viewBox="0 0 17.722 19.948">
  <g id="commodity" transform="translate(-43.059 -28.918)">
    <path id="Path_416" data-name="Path 416" d="M173.5,334.861H157.581v2.966a4.434,4.434,0,0,0,4.434,4.434l3.528.682,3.528-.682a4.434,4.434,0,0,0,4.434-4.434Z" transform="translate(-113.623 -296.082)" fill="#3c4e71"/>
    <path id="Path_420" data-name="Path 420" d="M167.916,251.873l4.805-3.7a2.213,2.213,0,0,1,2.7,0l4.835,3.7Z" transform="translate(-122.164 -218.793)" fill="#3c4e71"/>
    <path id="Path_423" data-name="Path 423" d="M163.2,297.741h-16.39a.666.666,0,0,1-.666-.666v-2.368a.666.666,0,0,1,.666-.666H163.2a.666.666,0,0,1,.666.666v2.368A.666.666,0,0,1,163.2,297.741Z" transform="translate(-103.089 -259.961)" fill="#3c4e71"/>
    <path id="Path_425" data-name="Path 425" d="M212.048,463.314h-7.565a.533.533,0,0,1-.509-.689l.612-2h7.359l.612,2A.533.533,0,0,1,212.048,463.314Z" transform="translate(-156.345 -414.448)" fill="#3c4e71"/>
  </g>
</svg>
