<svg xmlns="http://www.w3.org/2000/svg" width="30" height="30" viewBox="0 0 30 30">
    <defs>
        <style>
            .cls-2{fill:#8193b4}
        </style>
    </defs>
    <g id="Group_640" transform="translate(-1298 -236)">
        <rect id="Rectangle_738" width="30" height="30" fill="#ebf2fd" rx="15" transform="translate(1298 236)"/>
        <g id="trash" transform="translate(1259 244)">
            <path id="Path_403" d="M58.22 1.74h-2.392V1.3a1.306 1.306 0 0 0-1.3-1.3h-1.74a1.306 1.306 0 0 0-1.3 1.3v.44h-2.401A1.088 1.088 0 0 0 48 2.827v1.522a.435.435 0 0 0 .435.435h.238l.376 7.89a1.3 1.3 0 0 0 1.3 1.243h6.6a1.3 1.3 0 0 0 1.3-1.243l.376-7.89h.238a.435.435 0 0 0 .435-.435V2.827A1.088 1.088 0 0 0 58.22 1.74zm-5.871-.44a.435.435 0 0 1 .435-.43h1.74a.435.435 0 0 1 .435.435v.435h-2.61zM48.87 2.827a.218.218 0 0 1 .217-.217h9.133a.218.218 0 0 1 .217.217v1.087H48.87zm8.521 9.806a.434.434 0 0 1-.434.414h-6.6a.434.434 0 0 1-.434-.414l-.374-7.849h8.221z" class="cls-2"/>
            <path id="Path_404" d="M240.435 214.524a.435.435 0 0 0 .435-.435v-5.654a.435.435 0 0 0-.87 0v5.654a.435.435 0 0 0 .435.435z" class="cls-2" transform="translate(-186.781 -202.346)"/>
            <path id="Path_405" d="M320.435 214.524a.435.435 0 0 0 .435-.435v-5.654a.435.435 0 1 0-.87 0v5.654a.435.435 0 0 0 .435.435z" class="cls-2" transform="translate(-264.607 -202.346)"/>
            <path id="Path_406" d="M160.435 214.524a.435.435 0 0 0 .435-.435v-5.654a.435.435 0 0 0-.87 0v5.654a.435.435 0 0 0 .435.435z" class="cls-2" transform="translate(-108.956 -202.346)"/>
        </g>
    </g>
</svg>
