<svg xmlns="http://www.w3.org/2000/svg" width="120" height="120" viewBox="0 0 120 120">
    <g>
        <g fill="#fff" stroke="#c2c9d8" transform="translate(-740 -1196) translate(740 1196)">
            <circle cx="60" cy="60" r="60" stroke="none"/>
            <circle cx="60" cy="60" r="59.5" fill="none"/>
        </g>
        <path fill="#61a734" d="M49.6 60.8a22.4 22.4 0 1 0-22.4-22.4c0 .54.02 1.084.059 1.624a6.469 6.469 0 0 0-1.166 1.567.933.933 0 0 0-1.594.125l-1.763 3.525a6.514 6.514 0 0 0-.684 2.609.933.933 0 0 0-1.367.633l-.512 2.561a6.561 6.561 0 0 0-.112.855l-.914-.366a.933.933 0 0 0-1.28.867v2.429a6.561 6.561 0 0 0 1.473 4.125 3.733 3.733 0 0 0-2.594 5.946l2.24 2.986a.933.933 0 0 0 1.662-.377L21 65.74a4.133 4.133 0 0 1 1.1-2.088l1.378 7.578a.933.933 0 0 0 .922.77h2.8a.933.933 0 0 0 .468-.126.932.932 0 0 0 .466.126H49.6a.933.933 0 0 0 .777-1.451l-1.71-2.565v-7.2c.308.005.62.016.933.016zm20.529-22.4a20.435 20.435 0 0 1-4.613 12.95l-1.085-2.17a.934.934 0 0 0-1.018-.5l-4.007.8-2.88-5.04 5.574-2.384a.933.933 0 0 0 .5-1.2l-1.87-4.671a.931.931 0 0 0-.982-.579l-5.9.737 1.279-3.2a.933.933 0 0 0-.15-.944l-4.264-5.117 4.5-8.436A20.569 20.569 0 0 1 70.129 38.4zM53.335 18.208l-4.561 8.552a.933.933 0 0 0 .107 1.037l4.31 5.172-1.66 4.15a.933.933 0 0 0 .982 1.273l6.751-.844 1.261 3.152-5.7 2.441a.933.933 0 0 0-.443 1.321l3.733 6.533a.933.933 0 0 0 .993.452l3.967-.793 1.095 2.189A20.469 20.469 0 0 1 49.6 58.93c-.311 0-.622-.008-.933-.022V47.08l1.71-2.565a.933.933 0 0 0-.777-1.451h-3.12l-.723-2.164a.933.933 0 0 0-.468-.54l-3.733-1.86a.934.934 0 0 0-1.077.175l-.356.356-2.423-1.846 1.22-2.52h1.28a.933.933 0 0 0 .66-.273l3.74-3.733a.934.934 0 0 0 .242-.42l.993-3.733a.934.934 0 0 0 0-.5l-2.083-7.292a20.565 20.565 0 0 1 9.583-.506zM27.688 47.4a4.639 4.639 0 0 1 3.238-2.054l1.175-.168-.966 1.932a4.669 4.669 0 0 1-.5.792l-1.835.258a6.6 6.6 0 0 0-1.209.292 6.445 6.445 0 0 0 .097-1.052zm20.166-2.464l-.622.933h-4.167v1.867H46.8v2.8H31.975l.725-1.449a.932.932 0 0 0-.032-.89c.046-.083.094-.166.136-.251l1.5-3.009zM33.752 60.1l-.168.419a18.778 18.778 0 0 0-2.86-3.457h2.591a3.066 3.066 0 0 1 .437 3.038zm-4.693-10.092l1.175-.168-.966 1.932a4.671 4.671 0 0 1-.379.625h-.1a6.524 6.524 0 0 0-3.351.918q-.019-.213-.053-.424a4.642 4.642 0 0 1 3.669-2.884zm-.266 4.256h.629l-.09.179a4.665 4.665 0 0 1-.474.754h-.932a6.157 6.157 0 0 0-2.545.547 4.638 4.638 0 0 1 3.412-1.48zm2.139 5.772a16.784 16.784 0 0 1 1.746 2.628h-1.746zm3.46-4.565a.933.933 0 0 0-.66-.273h-2.69l.725-1.449a.932.932 0 0 0-.728-1.344v-.007H46.8v10.265H34.737l.748-1.869a4.931 4.931 0 0 0-1.093-5.323zm7.588-36.138l1.983 6.942-.863 3.242-3.282 3.283h-1.48a.933.933 0 0 0-.84.527l-1.807 3.733a.933.933 0 0 0 .274 1.149l3.673 2.8a.933.933 0 0 0 1.226-.082l.458-.458 2.786 1.393.4 1.2h-12.4c.052-.21.094-.423.125-.64l.556-3.894a.933.933 0 0 0-1.341-.967l-2.378 1.192v-.354a20.564 20.564 0 0 1 12.91-19.066zm-12.2 21.153l.911-.456-.3 2.131a4.635 4.635 0 0 1-.478 1.486 6.48 6.48 0 0 0-2.622 1.393l-.091-.26v-.121a4.641 4.641 0 0 1 2.58-4.174zm-5.38 5.588l.755-1.51.42 1.262a4.635 4.635 0 0 1-.253 3.562l-.393.785q-.193.208-.367.433-.094-.158-.2-.312l-.219-.658a4.636 4.636 0 0 1 .253-3.562zM22 51.408l.17-.851.061.061a4.643 4.643 0 0 1 1.287 4.153 6.481 6.481 0 0 0-1.565-1.815A4.636 4.636 0 0 1 22 51.408zm-2.27 2.37a4.643 4.643 0 0 1 2.8 4.277v.345a6.247 6.247 0 0 0-.277.583L22 58.828a4.69 4.69 0 0 1-2.266-4zm-.5 11.328l-.992-1.323a1.867 1.867 0 0 1 1.495-2.983h1.919l.149.089a6.134 6.134 0 0 0-.014.627 5.974 5.974 0 0 0-2.555 3.594zm7.076-4.614a7.556 7.556 0 0 0-.753 4.223l.6 5.414h-.978L23.719 62.1a4.276 4.276 0 0 1 4.1-5.04l.144.108q.357.268.7.555a7.623 7.623 0 0 0-2.358 2.764zm1.669 9.121l-.567-5.1a5.676 5.676 0 0 1 1.656-4.678v8.145zm1.9.516l.625-.929h4.167v-1.87h-3.735v-2.8H46.8v2.8h-3.735v1.87h4.167l.622.933z" transform="translate(-740 -1196) translate(756 1212)"/>
    </g>
</svg>
