<svg xmlns="http://www.w3.org/2000/svg" width="7.146" height="15.333" viewBox="0 0 7.146 15.333">
  <g id="facebook-logo" transform="translate(-125.619)">
    <path id="Path_97" data-name="Path 97" d="M130.374,5.024V3.7a2.912,2.912,0,0,1,.028-.46.9.9,0,0,1,.126-.321.513.513,0,0,1,.316-.219,2.252,2.252,0,0,1,.582-.061h1.321V0h-2.112A3.438,3.438,0,0,0,128,.87a3.664,3.664,0,0,0-.8,2.563V5.024h-1.582V7.667H127.2v7.667h3.173V7.667h2.112l.279-2.642Z" transform="translate(0)" fill="#fff"/>
  </g>
</svg>
