<?xml version="1.0" encoding="utf-8"?>
<!-- Generator: Adobe Illustrator 24.1.2, SVG Export Plug-In . SVG Version: 6.00 Build 0)  -->
<svg version="1.1" id="Layer_1" xmlns="http://www.w3.org/2000/svg" xmlns:xlink="http://www.w3.org/1999/xlink" x="0px" y="0px"
	 viewBox="0 0 60 60" style="enable-background:new 0 0 60 60;" xml:space="preserve">
<style type="text/css">
	.st0{fill:#0064BD;}
</style>
<g id="Group_1312" transform="translate(-1085 -311)">
	<g id="farmer-icon" transform="translate(1083 309)">
		<circle id="Ellipse_530" class="st0" cx="23" cy="25" r="1"/>
		<path id="Path_4733" class="st0" d="M21,20h4v2h-4V20z"/>
		<circle id="Ellipse_531" class="st0" cx="33" cy="25" r="1"/>
		<path id="Path_4734" class="st0" d="M31,20h4v2h-4V20z"/>
		<path id="Path_4735" class="st0" d="M27,26h2v4h-2V26z"/>
		<path id="Path_4736" class="st0" d="M24.9,31.1l-1,1.7c2.5,1.5,5.7,1.5,8.2,0l-1-1.7C29.2,32.3,26.8,32.3,24.9,31.1z"/>
		<path id="Path_4737" class="st0" d="M5,18h11v9c0,4.7,2.7,8.9,7,10.9v1.8c-1-0.3-2.1,0-2.9,0.8l-1.7,1.7L9.6,47
			C8,47.9,7,49.5,7,51.4V62h2V51.4c0-1.1,0.6-2.1,1.6-2.6l8.3-4.5l4.7,3.9c0.4,0.3,0.8,0.5,1.3,0.5c0.1,0,0.2,0,0.2,0
			c0.5-0.1,1-0.3,1.4-0.8L27,47v15h2V47l0.6,0.8c0.3,0.4,0.8,0.7,1.4,0.8c0.1,0,0.2,0,0.2,0c0.5,0,0.9-0.2,1.3-0.5l4.7-3.9l2.4,1.3
			l1-1.8l-2.9-1.6l-1.7-1.7c-0.7-0.7-1.8-1-2.9-0.8v-1.8c4.3-2,7-6.2,7-10.9v-9h11c1.7,0,3-1.3,3-3s-1.3-3-3-3H38
			c0-5.5-4.5-10-10-10S18,6.5,18,12H5c-1.7,0-3,1.3-3,3S3.3,18,5,18z M24.8,46.6l-4.4-3.6l1.1-1.1c0.3-0.3,0.9-0.4,1.3-0.1l3.8,2.5
			L24.8,46.6z M28,42.8l-3-2v-2.2c2,0.5,4,0.5,6,0v2.2L28,42.8z M33.2,41.7c0.4-0.3,0.9-0.2,1.3,0.1l1.1,1.1l-4.4,3.6l-1.7-2.3
			L33.2,41.7z M38,27c0,5.5-4.5,10-10,10s-10-4.5-10-10v-9h20V27z M28,4c4.4,0,8,3.6,8,8H20C20,7.6,23.6,4,28,4z M5,14h46
			c0.6,0,1,0.4,1,1s-0.4,1-1,1H5c-0.6,0-1-0.4-1-1S4.4,14,5,14z"/>
		<path id="Path_4738" class="st0" d="M14,54h2v8h-2V54z"/>
		<path id="Path_4739" class="st0" d="M51,26h-2c0-1.7-1.3-3-3-3s-3,1.3-3,3v36h2V26c0-0.6,0.4-1,1-1s1,0.4,1,1v36h2V33h2
			c2.8,0,5,2.2,5,5c0,2.2,1.8,4,4,4h2v-5C62,30.9,57.1,26,51,26z M60,40c-1.1,0-2-0.9-2-2c0-3.9-3.1-7-7-7h-2v-3h2c5,0,9,4,9,9V40z"
			/>
	</g>
</g>
</svg>
