<svg xmlns="http://www.w3.org/2000/svg" width="57.942" height="47.733" viewBox="0 0 57.942 47.733">
  <g id="Group_471" data-name="Group 471" transform="translate(-1298.707 -202.267)">
    <g id="farmer_1_" data-name="farmer (1)" transform="translate(1219.919 202.267)">
      <path id="Path_266" data-name="Path 266" d="M122.1,339.688l-3.323-1.108H105.2l-3.323,1.108A4.071,4.071,0,0,0,99.1,343.55v7.922a1.357,1.357,0,0,0,1.357,1.357h23.069a1.357,1.357,0,0,0,1.357-1.357V343.55A4.071,4.071,0,0,0,122.1,339.688Z" transform="translate(-16.254 -310.761)" fill="#ffdc64"/>
      <g id="Group_245" data-name="Group 245" transform="translate(87.592 27.819)">
        <path id="Path_267" data-name="Path 267" d="M159.616,338.581h-1.357l-1.357.452v9.725h2.714Z" transform="translate(-156.902 -338.581)" fill="#a0d755"/>
        <path id="Path_268" data-name="Path 268" d="M322.064,338.581h1.357l1.357.452v9.725h-2.714Z" transform="translate(-308.494 -338.581)" fill="#a0d755"/>
      </g>
      <rect id="Rectangle_573" data-name="Rectangle 573" width="1.357" height="10.178" transform="translate(101.162 27.819)" fill="#8cc355"/>
      <path id="Path_269" data-name="Path 269" d="M170.072,0H159.424a1.357,1.357,0,0,0-1.341,1.151l-1.18,7.67h16.284l-1.793-7.769A1.357,1.357,0,0,0,170.072,0Z" transform="translate(-69.311)" fill="#ffdc64"/>
      <path id="Path_270" data-name="Path 270" d="M161.772,6l.924-6h-3.272a1.357,1.357,0,0,0-1.341,1.151l-1.18,7.67h16.284l-.47-2.036H162.442A.679.679,0,0,1,161.772,6Z" transform="translate(-69.31)" fill="#ffc850"/>
      <path id="Path_271" data-name="Path 271" d="M136.782,123.871h-19a65.037,65.037,0,0,0-2.023,13.3,1.347,1.347,0,0,0,.9,1.3,45.267,45.267,0,0,0,10.627,2.364,45.271,45.271,0,0,0,10.627-2.364,1.347,1.347,0,0,0,.9-1.3A65.042,65.042,0,0,0,136.782,123.871Z" transform="translate(-31.549 -113.693)" fill="#9b735a"/>
      <g id="Group_246" data-name="Group 246" transform="translate(84.212 10.178)">
        <path id="Path_272" data-name="Path 272" d="M139.411,125.907H151.5a17.6,17.6,0,0,0,3.852-.427c-.234-1.01-.4-1.608-.4-1.608h-19s-.163.6-.4,1.608A17.6,17.6,0,0,0,139.411,125.907Z" transform="translate(-133.932 -123.871)" fill="#8c5f50"/>
        <path id="Path_273" data-name="Path 273" d="M137.391,138.653a17.941,17.941,0,0,0-8.75-14.1l-10.856-.678a65.037,65.037,0,0,0-2.023,13.3,1.347,1.347,0,0,0,.9,1.3,45.267,45.267,0,0,0,10.627,2.364,45.681,45.681,0,0,0,10.107-2.181Z" transform="translate(-115.761 -123.871)" fill="#8c5f50"/>
      </g>
      <rect id="Rectangle_574" data-name="Rectangle 574" width="8.142" height="8.142" transform="translate(91.663 21.034)" fill="#f5af73"/>
      <path id="Path_274" data-name="Path 274" d="M210.521,260.75a8.719,8.719,0,0,0,4.071-1.012V256H206.45v3.737A8.721,8.721,0,0,0,210.521,260.75Z" transform="translate(-114.787 -234.966)" fill="#f5965f"/>
      <path id="Path_275" data-name="Path 275" d="M244.969,352.945h-.678a.678.678,0,0,1-.678-.678v-5.428h2.035v5.428A.678.678,0,0,1,244.969,352.945Z" transform="translate(-148.896 -318.341)" fill="#ffc850"/>
      <path id="Path_276" data-name="Path 276" d="M180.766,134.843h-.679a1.357,1.357,0,0,1-1.357-1.357v-1.357H165.16v6.107a7.459,7.459,0,0,0,14.9.477,1.333,1.333,0,0,0,.975.173,1.424,1.424,0,0,0,1.084-1.416V136.2A1.357,1.357,0,0,0,180.766,134.843Z" transform="translate(-76.89 -121.273)" fill="#f5c882"/>
      <path id="Path_277" data-name="Path 277" d="M172.624,125.907h6.107v-2.036H165.16v6.785c.008,0,.017.482.024.477a7.442,7.442,0,0,0,8.8,6.858,7.461,7.461,0,0,1-6.113-7.335h0A4.75,4.75,0,0,1,172.624,125.907Z" transform="translate(-76.89 -113.693)" fill="#f5af73"/>
      <g id="Group_248" data-name="Group 248" transform="translate(88.949 25.622)">
        <path id="Path_281" data-name="Path 281" d="M176.534,312.1l3.671,2.622-2.444,1.955a1.357,1.357,0,0,1-1.807-.1l-2.534-2.534,1.24-1.653A1.357,1.357,0,0,1,176.534,312.1Z" transform="translate(-173.42 -311.85)" fill="#fff082"/>
        <path id="Path_282" data-name="Path 282" d="M259.67,312.1,256,314.725l2.444,1.955a1.357,1.357,0,0,0,1.807-.1l2.534-2.534-1.24-1.653A1.357,1.357,0,0,0,259.67,312.1Z" transform="translate(-249.214 -311.85)" fill="#fff082"/>
      </g>
      <path id="Path_283" data-name="Path 283" d="M126.6,123.871h-8.821a65.045,65.045,0,0,0-2.023,13.3,1.345,1.345,0,0,0,.893,1.295q.233.085.522.184A19.847,19.847,0,0,1,126.6,123.871Z" transform="translate(-31.549 -113.693)" fill="#9b735a"/>
      <path id="Path_284" data-name="Path 284" d="M135.559,125.479a17.6,17.6,0,0,0,3.852.427H142a16.874,16.874,0,0,1,2.777-2.036h-8.821S135.793,124.469,135.559,125.479Z" transform="translate(-49.721 -113.693)" fill="#8c5f50"/>
      <path id="Path_285" data-name="Path 285" d="M101.777,101.811H89.691a16.284,16.284,0,0,1-6.614-1.4l-1.488-.661a.339.339,0,0,1,.138-.649h28.014a.339.339,0,0,1,.138.649l-1.488.661A16.285,16.285,0,0,1,101.777,101.811Z" transform="translate(0 -90.955)" fill="#e1a546"/>
      <g id="Group_249" data-name="Group 249" transform="translate(82.842 28.271)">
        <path id="Path_286" data-name="Path 286" d="M103.846,344.086l-1.966.655A4.071,4.071,0,0,0,99.1,348.6v7.922a1.357,1.357,0,0,0,1.357,1.357h3.393Z" transform="translate(-99.096 -344.086)" fill="#ffc850"/>
        <path id="Path_287" data-name="Path 287" d="M355.1,344.086l1.966.655a4.071,4.071,0,0,1,2.784,3.862v7.922a1.357,1.357,0,0,1-1.357,1.357H355.1Z" transform="translate(-334.062 -344.086)" fill="#ffc850"/>
      </g>
      <g id="Group_250" data-name="Group 250" transform="translate(86.235 34.604)">
        <path id="Path_288" data-name="Path 288" d="M141.743,428.625h-1.357V421.84a.678.678,0,0,1,.678-.679h0a.678.678,0,0,1,.679.679v6.785Z" transform="translate(-140.386 -421.161)" fill="#e1a546"/>
        <path id="Path_289" data-name="Path 289" d="M356.453,428.625H355.1V421.84a.679.679,0,0,1,.678-.679h0a.679.679,0,0,1,.678.679Z" transform="translate(-337.455 -421.161)" fill="#e1a546"/>
      </g>
      <path id="Path_290" data-name="Path 290" d="M156.9,348.759h1.357V338.581l-1.357.452Z" transform="translate(-69.31 -310.762)" fill="#8cc355"/>
      <path id="Path_291" data-name="Path 291" d="M171.83,445.935H158.26a1.357,1.357,0,0,0-1.357,1.357v4.071h16.284v-4.071A1.357,1.357,0,0,0,171.83,445.935Z" transform="translate(-69.311 -409.296)" fill="#b4e66e"/>
      <g id="Group_251" data-name="Group 251" transform="translate(89.289 38.336)">
        <circle id="Ellipse_255" data-name="Ellipse 255" cx="1.018" cy="1.018" r="1.018" transform="translate(0)" fill="#fff082"/>
        <circle id="Ellipse_256" data-name="Ellipse 256" cx="1.018" cy="1.018" r="1.018" transform="translate(10.855)" fill="#fff082"/>
      </g>
    </g>
    <g id="farmer" transform="translate(1257.034 208.235)">
      <path id="Path_59" data-name="Path 59" d="M194.253,264.029a1.224,1.224,0,0,0-1.316.206,5.848,5.848,0,0,1-7.816,0,1.224,1.224,0,0,0-2.04.911v5.083a1.224,1.224,0,0,0,.21.685l4.725,7a1.224,1.224,0,0,0,2.028,0l4.725-7a1.223,1.223,0,0,0,.21-.685v-5.083A1.224,1.224,0,0,0,194.253,264.029Z" transform="translate(-116.063 -242.394)" fill="#ffcc9e"/>
      <path id="Path_60" data-name="Path 60" d="M261.224,264.031a1.224,1.224,0,0,0-1.316.206,5.847,5.847,0,0,1-3.908,1.5V278.45a1.224,1.224,0,0,0,1.014-.539l4.725-7a1.223,1.223,0,0,0,.21-.685v-5.083A1.224,1.224,0,0,0,261.224,264.031Z" transform="translate(-183.035 -242.396)" fill="#ffae7b"/>
      <path id="Path_61" data-name="Path 61" d="M165.423,132.805l-2.974,7.794a8.318,8.318,0,0,1-8.309-8.309v-6.056a1.223,1.223,0,0,1,1.224-1.224h7.085Z" transform="translate(-89.482 -114.813)" fill="#ffe9c0"/>
      <path id="Path_62" data-name="Path 62" d="M263.086,125.007H256V140.6a8.318,8.318,0,0,0,8.309-8.309v-6.056A1.223,1.223,0,0,0,263.086,125.007Z" transform="translate(-183.034 -114.81)" fill="#ffcc9e"/>
      <path id="Path_63" data-name="Path 63" d="M170.679,7.32,168.232.794a1.224,1.224,0,0,0-1.358-.775L162.448.8,158.022.019a1.224,1.224,0,0,0-1.358.775L154.217,7.32a1.224,1.224,0,0,0,1.146,1.653h14.171a1.224,1.224,0,0,0,1.146-1.653Z" transform="translate(-89.481 0)" fill="#3c4e71"/>
      <path id="Path_64" data-name="Path 64" d="M131.87,80H110.357a1.224,1.224,0,0,0-1.224,1.224v1.224a3.675,3.675,0,0,0,3.671,3.671h16.619a3.675,3.675,0,0,0,3.671-3.671V81.229A1.223,1.223,0,0,0,131.87,80Z" transform="translate(-48.147 -73.478)" fill="#3c4e71"/>
      <path id="Path_65" data-name="Path 65" d="M264.231,7.32,261.784.794a1.224,1.224,0,0,0-1.358-.775L256,.8V8.974h7.086a1.224,1.224,0,0,0,1.146-1.653Z" transform="translate(-183.034 0)" fill="#2c3d5f"/>
      <path id="Path_66" data-name="Path 66" d="M266.757,80H256v6.118h8.309a3.675,3.675,0,0,0,3.671-3.671V81.229A1.223,1.223,0,0,0,266.757,80Z" transform="translate(-183.034 -73.478)" fill="#2c3d5f"/>
      <path id="Path_67" data-name="Path 67" d="M86.117,333.339,81.881,331.8l-1.227.37-1.22-1.259-.519-.189-5.948,6.63-5.948-6.63-.519.188-1.193,1.249-1.254-.36-4.237,1.538a4.99,4.99,0,0,0-3.106,4.432v6.516a1.224,1.224,0,0,0,1.224,1.224H62.42l10.546-.816,10.546.816H88a1.224,1.224,0,0,0,1.224-1.224v-6.516a4.99,4.99,0,0,0-3.106-4.432Z" transform="translate(0 -303.746)" fill="#8947f5"/>
      <path id="Path_68" data-name="Path 68" d="M269.151,333.339l-4.236-1.538-1.227.37-1.22-1.259-.519-.189L256,337.354V344.7l10.546.816h4.487a1.224,1.224,0,0,0,1.224-1.224v-6.516A4.99,4.99,0,0,0,269.151,333.339Z" transform="translate(-183.034 -303.746)" fill="#6f29e3"/>
      <path id="Path_69" data-name="Path 69" d="M336.507,341.922a1.224,1.224,0,0,0,1.224-1.224v-6.776l-2.447-.888V340.7A1.224,1.224,0,0,0,336.507,341.922Z" transform="translate(-255.849 -305.867)" fill="#a787db"/>
      <path id="Path_70" data-name="Path 70" d="M147.942,341.922a1.224,1.224,0,0,0,1.224-1.224v-7.665l-2.447.888V340.7A1.224,1.224,0,0,0,147.942,341.922Z" transform="translate(-82.666 -305.867)" fill="#a787db"/>
      <path id="Path_71" data-name="Path 71" d="M146.584,412H127.94a1.224,1.224,0,0,0-1.224,1.224v6.934h21.092v-6.934A1.223,1.223,0,0,0,146.584,412Z" transform="translate(-64.296 -378.389)" fill="#a787db"/>
    </g>
    <g id="farmer-2" data-name="farmer" transform="translate(1279.154 223.3)">
      <path id="Path_59-2" data-name="Path 59" d="M190.223,263.991a.782.782,0,0,0-.841.132,3.738,3.738,0,0,1-5,0,.782.782,0,0,0-1.3.582v3.25a.782.782,0,0,0,.134.438l3.02,4.472a.782.782,0,0,0,1.3,0l3.02-4.472a.782.782,0,0,0,.134-.438v-3.249A.782.782,0,0,0,190.223,263.991Z" transform="translate(-119.781 -250.159)" fill="#ffcc9e"/>
      <path id="Path_60-2" data-name="Path 60" d="M259.34,263.993a.782.782,0,0,0-.841.132,3.738,3.738,0,0,1-2.5.957v8.129a.782.782,0,0,0,.648-.344l3.02-4.472a.782.782,0,0,0,.134-.438v-3.249A.783.783,0,0,0,259.34,263.993Z" transform="translate(-188.898 -250.161)" fill="#ffae7b"/>
      <path id="Path_61-2" data-name="Path 61" d="M161.353,129.994l-1.9,4.983a5.318,5.318,0,0,1-5.312-5.312v-3.871a.782.782,0,0,1,.782-.782h4.53Z" transform="translate(-92.349 -118.492)" fill="#ffe9c0"/>
      <path id="Path_62-2" data-name="Path 62" d="M260.53,125.007H256v9.966a5.318,5.318,0,0,0,5.312-5.312v-3.872A.782.782,0,0,0,260.53,125.007Z" transform="translate(-188.897 -118.488)" fill="#ffcc9e"/>
      <path id="Path_63-2" data-name="Path 63" d="M164.713,4.68,163.148.508a.782.782,0,0,0-.868-.5l-2.83.5-2.83-.5a.782.782,0,0,0-.868.5L154.188,4.68a.782.782,0,0,0,.732,1.057h9.059a.782.782,0,0,0,.732-1.057Z" transform="translate(-92.348 0)" fill="#ffb654"/>
      <path id="Path_64-2" data-name="Path 64" d="M123.668,80H109.915a.782.782,0,0,0-.782.782v.782a2.349,2.349,0,0,0,2.347,2.347H122.1a2.349,2.349,0,0,0,2.347-2.347v-.782A.782.782,0,0,0,123.668,80Z" transform="translate(-49.689 -75.832)" fill="#ffb654"/>
      <path id="Path_65-2" data-name="Path 65" d="M261.262,4.68,259.7.508a.782.782,0,0,0-.868-.5L256,.51V5.737h4.53a.782.782,0,0,0,.733-1.057Z" transform="translate(-188.897 0)" fill="#ffb654"/>
      <path id="Path_66-2" data-name="Path 66" d="M262.877,80H256v3.911h5.312a2.349,2.349,0,0,0,2.347-2.347v-.782A.782.782,0,0,0,262.877,80Z" transform="translate(-188.897 -75.832)" fill="#ffb654"/>
      <path id="Path_67-2" data-name="Path 67" d="M75.51,332.4l-2.708-.983-.784.237-.78-.8-.332-.121-3.8,4.238-3.8-4.238-.332.12-.763.8-.8-.23L58.7,332.4a3.19,3.19,0,0,0-1.985,2.833v4.166a.782.782,0,0,0,.782.782h2.868l6.742-.522,6.742.522h2.869a.782.782,0,0,0,.782-.782v-4.166A3.19,3.19,0,0,0,75.51,332.4Z" transform="translate(0 -313.477)" fill="#ff9812"/>
      <path id="Path_68-2" data-name="Path 68" d="M264.407,332.4l-2.708-.983-.784.237-.78-.8-.332-.121-3.8,4.238v4.693l6.742.522h2.869a.782.782,0,0,0,.782-.782v-4.166A3.19,3.19,0,0,0,264.407,332.4Z" transform="translate(-188.897 -313.477)" fill="#ff9812"/>
      <path id="Path_69-2" data-name="Path 69" d="M336.065,338.716a.782.782,0,0,0,.782-.782V333.6l-1.564-.568v4.9A.782.782,0,0,0,336.065,338.716Z" transform="translate(-264.046 -315.667)" fill="#ffb654"/>
      <path id="Path_70-2" data-name="Path 70" d="M147.5,338.716a.782.782,0,0,0,.782-.782v-4.9l-1.564.568v4.332A.782.782,0,0,0,147.5,338.716Z" transform="translate(-85.314 -315.667)" fill="#ffb654"/>
      <path id="Path_71-2" data-name="Path 71" d="M139.418,412H127.5a.782.782,0,0,0-.782.782v4.433H140.2v-4.433A.782.782,0,0,0,139.418,412Z" transform="translate(-66.355 -390.512)" fill="#ffb654"/>
    </g>
    <g id="farmer-3" data-name="farmer" transform="translate(1241.997 225.148)">
      <path id="Path_59-3" data-name="Path 59" d="M189.729,263.986a.728.728,0,0,0-.783.123,3.48,3.48,0,0,1-4.651,0,.728.728,0,0,0-1.214.542v3.025a.728.728,0,0,0,.125.407l2.811,4.163a.728.728,0,0,0,1.207,0l2.811-4.163a.728.728,0,0,0,.125-.407v-3.025A.728.728,0,0,0,189.729,263.986Z" transform="translate(-120.237 -251.112)" fill="#ffcc9e"/>
      <path id="Path_60-3" data-name="Path 60" d="M259.109,263.988a.728.728,0,0,0-.783.123A3.479,3.479,0,0,1,256,265v7.566a.728.728,0,0,0,.6-.321l2.811-4.163a.728.728,0,0,0,.125-.407v-3.025A.728.728,0,0,0,259.109,263.988Z" transform="translate(-189.618 -251.114)" fill="#ffae7b"/>
      <path id="Path_61-3" data-name="Path 61" d="M160.854,129.649l-1.77,4.638a4.95,4.95,0,0,1-4.944-4.944v-3.6a.728.728,0,0,1,.728-.728h4.216Z" transform="translate(-92.701 -118.943)" fill="#ffe9c0"/>
      <path id="Path_62-3" data-name="Path 62" d="M260.216,125.007H256v9.276a4.95,4.95,0,0,0,4.944-4.944v-3.6A.728.728,0,0,0,260.216,125.007Z" transform="translate(-189.617 -118.939)" fill="#ffcc9e"/>
      <path id="Path_63-3" data-name="Path 63" d="M163.981,4.356,162.525.473a.728.728,0,0,0-.808-.461l-2.634.463L156.449.011a.728.728,0,0,0-.808.461l-1.456,3.883a.728.728,0,0,0,.682.984H163.3a.728.728,0,0,0,.682-.984Z" transform="translate(-92.7 0)" fill="#657eae"/>
      <path id="Path_64-3" data-name="Path 64" d="M122.663,80h-12.8a.728.728,0,0,0-.728.728v.728a2.187,2.187,0,0,0,2.184,2.184h9.889a2.187,2.187,0,0,0,2.184-2.184v-.728A.728.728,0,0,0,122.663,80Z" transform="translate(-49.878 -76.121)" fill="#657eae"/>
      <path id="Path_65-3" data-name="Path 65" d="M260.9,4.356,259.442.473a.728.728,0,0,0-.808-.461L256,.475V5.34h4.216a.728.728,0,0,0,.682-.984Z" transform="translate(-189.617 0)" fill="#3c4e71"/>
      <path id="Path_66-3" data-name="Path 66" d="M262.4,80H256v3.641h4.945a2.187,2.187,0,0,0,2.184-2.184v-.728A.728.728,0,0,0,262.4,80Z" transform="translate(-189.617 -76.121)" fill="#3c4e71"/>
      <path id="Path_67-3" data-name="Path 67" d="M74.209,332.28l-2.521-.915-.73.22-.726-.749-.309-.112-3.539,3.945-3.539-3.945-.309.112-.71.743-.746-.214-2.521.915a2.969,2.969,0,0,0-1.848,2.637v3.878a.728.728,0,0,0,.728.728h2.67l6.275-.485,6.275.485h2.67a.728.728,0,0,0,.728-.728v-3.878A2.969,2.969,0,0,0,74.209,332.28Z" transform="translate(0 -314.67)" fill="#1f93b7"/>
      <path id="Path_68-3" data-name="Path 68" d="M263.825,332.28l-2.521-.915-.73.22-.726-.749-.309-.112L256,334.669v4.369l6.275.485h2.67a.728.728,0,0,0,.728-.728v-3.878A2.969,2.969,0,0,0,263.825,332.28Z" transform="translate(-189.617 -314.67)" fill="#1c8caf"/>
      <path id="Path_69-3" data-name="Path 69" d="M336.011,338.323a.728.728,0,0,0,.728-.728v-4.032l-1.456-.529v4.561A.728.728,0,0,0,336.011,338.323Z" transform="translate(-265.051 -316.868)" fill="#ffb654"/>
      <path id="Path_70-3" data-name="Path 70" d="M147.446,338.323a.728.728,0,0,0,.728-.728v-4.561l-1.456.529v4.032A.728.728,0,0,0,147.446,338.323Z" transform="translate(-85.639 -316.868)" fill="#2aaad1"/>
      <path id="Path_71-3" data-name="Path 71" d="M138.539,412H127.444a.728.728,0,0,0-.728.728v4.126h12.551v-4.126A.728.728,0,0,0,138.539,412Z" transform="translate(-66.608 -391.999)" fill="#2aaad1"/>
    </g>
  </g>
</svg>
