<svg xmlns="http://www.w3.org/2000/svg" width="124.692" height="119.112" viewBox="0 0 124.692 119.112">
  <g id="image-not-availablev1" transform="translate(-164 -116)">
    <g id="Layer_2" transform="translate(164 116)">
      <g id="Layer_3" transform="translate(0)">
        <path id="Path_511" data-name="Path 511" d="M5.4,5.6v99.574H130.092V5.6ZM124.859,99.76H10.814V11.014H124.679V99.76Z" transform="translate(-5.4 -5.6)" fill="#d0d8e6"/>
        <path id="Path_512" data-name="Path 512" d="M38.678,31.159,57.987,50.468l3.97-3.789L38.678,23.4,15.4,46.678l3.97,3.789Z" transform="translate(2.645 8.72)" fill="#d0d8e6"/>
        <path id="Path_513" data-name="Path 513" d="M47.029,31.159,84.022,68.152l3.789-3.789L47.029,23.4,35.3,35.129l3.789,3.789Z" transform="translate(18.655 8.72)" fill="#d0d8e6"/>
        <path id="Path_514" data-name="Path 514" d="M63.744,31.789a9.744,9.744,0,1,0,0-19.489A9.82,9.82,0,0,0,54,22.044a9.941,9.941,0,0,0,9.744,9.744Zm0-13.895a4.331,4.331,0,1,1-4.331,4.331,4.275,4.275,0,0,1,4.331-4.331Z" transform="translate(33.7 -0.21)" fill="#d0d8e6"/>
      </g>
    </g>
    <path id="Path_515" data-name="Path 515" d="M-61.832-2.372H-62.9V-8.563h1.072Zm2.717-6.192,1.786,4.746,1.782-4.746h1.391v6.192h-1.072V-4.413l.106-2.73L-56.95-2.372h-.77l-1.824-4.767.106,2.726v2.041h-1.072V-8.563Zm9.7,4.75h-2.4l-.5,1.442h-1.118L-51.1-8.563h.965l2.343,6.192h-1.123Zm-2.1-.868h1.795l-.9-2.569Zm9.173,1.505a2.057,2.057,0,0,1-.931.663,3.8,3.8,0,0,1-1.352.225A2.665,2.665,0,0,1-46-2.64a2.351,2.351,0,0,1-.925-1.01,3.534,3.534,0,0,1-.338-1.533v-.485a3.277,3.277,0,0,1,.672-2.192,2.33,2.33,0,0,1,1.875-.789,2.472,2.472,0,0,1,1.641.51,2.2,2.2,0,0,1,.731,1.471H-43.4a1.187,1.187,0,0,0-1.3-1.118,1.271,1.271,0,0,0-1.1.521,2.656,2.656,0,0,0-.389,1.529v.476A2.522,2.522,0,0,0-45.763-3.7a1.4,1.4,0,0,0,1.176.555,1.55,1.55,0,0,0,1.174-.374V-4.732H-44.69v-.816h2.347Zm4.8-1.96h-2.543v1.905h2.973v.859H-41.16V-8.563h4.019V-7.7h-2.943v1.71h2.543Zm8.386,2.764h-1.076l-2.76-4.393v4.393h-1.076V-8.563h1.076l2.768,4.41v-4.41h1.067Zm6.213-2.934a3.8,3.8,0,0,1-.315,1.6,2.379,2.379,0,0,1-.9,1.055,2.474,2.474,0,0,1-1.346.368,2.48,2.48,0,0,1-1.342-.368,2.416,2.416,0,0,1-.91-1.048,3.68,3.68,0,0,1-.325-1.569v-.349a3.766,3.766,0,0,1,.321-1.6,2.413,2.413,0,0,1,.906-1.061,2.466,2.466,0,0,1,1.342-.368,2.488,2.488,0,0,1,1.342.364,2.383,2.383,0,0,1,.9,1.046,3.758,3.758,0,0,1,.323,1.588Zm-1.076-.323a2.707,2.707,0,0,0-.389-1.578,1.273,1.273,0,0,0-1.1-.549,1.269,1.269,0,0,0-1.091.546A2.654,2.654,0,0,0-27-5.663v.357a2.686,2.686,0,0,0,.4,1.578,1.28,1.28,0,0,0,1.1.557,1.265,1.265,0,0,0,1.1-.544,2.744,2.744,0,0,0,.385-1.59Zm6.26-2.067h-1.931v5.324h-1.067V-7.7H-22.67v-.868h4.912Zm6.192,3.883h-2.4l-.5,1.442h-1.118l2.339-6.192h.965l2.343,6.192H-11.06Zm-2.1-.868h1.795l-.9-2.569Zm6.281.961,1.573-4.844h1.182L-6.854-2.372H-7.9l-2.22-6.192h1.178Zm6.6-.094h-2.4l-.5,1.442H-4.8l2.339-6.192H-1.5L.847-2.372H-.276Zm-2.1-.868h1.795l-.9-2.569ZM2.684-2.372H1.612V-8.563H2.684Zm2.4-.859H7.893v.859H4.007V-8.563H5.083Zm7.183-.583h-2.4l-.5,1.442H8.246l2.339-6.192h.965l2.343,6.192H12.771Zm-2.1-.868h1.795l-.9-2.569ZM14.6-2.372V-8.563h2.122a2.591,2.591,0,0,1,1.6.421,1.483,1.483,0,0,1,.549,1.255,1.337,1.337,0,0,1-.23.765,1.478,1.478,0,0,1-.672.527,1.367,1.367,0,0,1,.776.512,1.492,1.492,0,0,1,.274.9,1.648,1.648,0,0,1-.559,1.34,2.431,2.431,0,0,1-1.6.468Zm1.076-2.794v1.935h1.195a1.156,1.156,0,0,0,.791-.251.881.881,0,0,0,.285-.7.884.884,0,0,0-.987-.987Zm0-.791h1.055a1.22,1.22,0,0,0,.785-.228.78.78,0,0,0,.283-.644.79.79,0,0,0-.262-.663,1.321,1.321,0,0,0-.814-.2H15.671Zm5.494,2.726h2.811v.859H20.09V-8.563h1.076Zm7.255-1.905H25.878v1.905H28.85v.859H24.8V-8.563H28.82V-7.7H25.878v1.71h2.543Z" transform="translate(243.666 237.398)" fill="#a6b7d5"/>
  </g>
</svg>
