<svg xmlns="http://www.w3.org/2000/svg" width="61.657" height="84.827" viewBox="0 0 61.657 84.827">
  <g id="man" transform="translate(-75.623 -7.84)">
    <g id="Group_1235" data-name="Group 1235" transform="translate(75.623 7.84)">
      <g id="Group_1234" data-name="Group 1234">
        <path id="Path_3256" data-name="Path 3256" d="M124.437,58.882h0a13.556,13.556,0,0,0-2.636-1.354l-7.668-3.2-5.406-3.567a1.339,1.339,0,0,0-.161-.089V48.364a14.106,14.106,0,0,0,7.677-10.692,6.4,6.4,0,0,0,4.212-10.7v-8.2A18.785,18.785,0,0,0,101.691,0h-1.453A18.785,18.785,0,0,0,81.475,18.764v8.111a6.4,6.4,0,0,0,4.124,10.8,14.106,14.106,0,0,0,7.678,10.692v2.162l-5.635,3.718a1.34,1.34,0,0,0-.227.071l-7.71,3.213a15.048,15.048,0,0,0-4.9,3.133,15.9,15.9,0,0,0-4.881,11.97V83.479a1.347,1.347,0,0,0,1.347,1.347H87.18a1.347,1.347,0,1,0,0-2.694H83.031v-10a1.347,1.347,0,1,0-2.694,0v10h-7.72v-9.5c0-9.7,7.678-12.458,8-12.569.03-.01.06-.021.089-.033l6.422-2.676,6.942,24.782H91.395a1.347,1.347,0,1,0,0,2.694h38.839a1.349,1.349,0,0,0,1.347-1.349V72.63A15.723,15.723,0,0,0,124.437,58.882Zm-12.48-2.759L107.9,64.461l-5.032-3.7,5.32-5.522a1.343,1.343,0,0,0,.365-1.108,1.359,1.359,0,0,0,.012-.171v-.071Zm-8.183,8.645-1.058,2.818H99.09L97.9,64.745l2.922-2.15ZM95.95,54.182a1.354,1.354,0,0,0,.021-.226V49.379a14.038,14.038,0,0,0,3.57.46H102.3a14.044,14.044,0,0,0,3.57-.46v4.379l-5.014,5.2Zm23.488-22.9a3.72,3.72,0,0,1-3.062,3.655V27.629A3.72,3.72,0,0,1,119.438,31.285ZM85.467,34.94a3.713,3.713,0,0,1,0-7.311Zm1.352-11.36h-.006a1.344,1.344,0,0,0-.137.007l-.042.006c-.031,0-.061.008-.091.014l-.057.015c-.024.006-.048.011-.072.019s-.043.016-.064.023-.04.013-.059.022-.048.023-.072.034l-.046.022c-.023.013-.045.027-.068.041l-.043.026c-.021.014-.041.03-.062.046l-.042.031c-.019.015-.035.032-.053.048s-.029.025-.043.039-.031.034-.046.051-.028.029-.04.045-.027.035-.04.053-.026.033-.038.051-.022.036-.033.053-.024.038-.035.057-.017.036-.026.054-.021.042-.03.064-.013.036-.02.054-.018.046-.026.069-.01.037-.015.056-.014.048-.019.073-.006.04-.009.06-.009.049-.011.074,0,.042,0,.063,0,.038,0,.058a6.356,6.356,0,0,0-1.3.272V18.764a16.088,16.088,0,0,1,16.07-16.07h1.452a16.089,16.089,0,0,1,16.071,16.071v6.445a6.354,6.354,0,0,0-1.387-.3c0-.006,0-.011,0-.017,0-.03,0-.059,0-.088s0-.035-.007-.053-.007-.051-.012-.077-.009-.042-.015-.063-.01-.042-.016-.062-.015-.047-.024-.071-.012-.034-.019-.051-.021-.049-.032-.073-.014-.03-.022-.045-.025-.046-.039-.069-.018-.03-.027-.045-.028-.041-.042-.06l-.035-.046-.043-.051c-.014-.016-.029-.032-.044-.048l-.043-.042c-.017-.016-.034-.032-.052-.047l-.045-.036c-.019-.015-.038-.029-.058-.043l-.051-.033-.059-.036-.061-.031-.055-.027c-.024-.011-.049-.02-.074-.029l-.049-.018c-.028-.009-.056-.017-.085-.024l-.036-.01c-5.271-1.2-6.861-7.838-6.876-7.9a1.347,1.347,0,0,0-2.4-.492c-5.99,8.281-19.013,8.36-19.226,8.36Zm1.341,12.186v-9.54c3.443-.212,12.592-1.357,18.477-7.517,1.015,2.388,3.117,5.875,7.045,7.23v9.827a11.393,11.393,0,0,1-11.38,11.38H99.541A11.393,11.393,0,0,1,88.161,35.766Zm5.117,17.986v.2a1.349,1.349,0,0,0,.064.409,1.346,1.346,0,0,0,.343,1.37l5.127,4.994L93.74,64.462l-4.056-8.338Zm2.215,23.469-2.641-9.429c.021.006.041.014.063.019a1.348,1.348,0,0,0,1.121-.223l1.632-1.2L96.8,69.1Zm1.936,4.912L99.34,70.28H102.5l1.912,11.853Zm7.608-13.061.993-2.645,1.578,1.161a1.335,1.335,0,0,0,1.438.1l-2.685,9.586Zm23.851,13.061h-7.72v-10a1.347,1.347,0,0,0-2.694,0v10H107.795l6.9-24.647,6.1,2.542c.026.011.058.023.084.032a10.787,10.787,0,0,1,2.088,1.082h0c2.7,1.752,5.917,5.168,5.917,11.489Z" transform="translate(-69.924)" fill="#2f2c2c"/>
      </g>
    </g>
  </g>
</svg>
