<svg xmlns="http://www.w3.org/2000/svg" width="24.175" height="23.588" viewBox="0 0 24.175 23.588">
    <defs>
        <style>
            .cls-1{fill:#5e5c6d}
        </style>
    </defs>
    <g id="_753919_tools_working_options_preferences_settings_icon" transform="translate(-0.155 -0.929)">
        <path id="Path_507" d="M34.062 30.625l-7.492-7.494c-.992-.992-.513-1.721-.513-1.721a1.825 1.825 0 0 0-.346-2.091L22.79 16.4a1.833 1.833 0 0 0-2.593 0l-.446.445-.047.048s-.2.407.728.461a1.5 1.5 0 0 1 .848.455l1.032 1.032a1.161 1.161 0 0 1 .37.947 2.456 2.456 0 0 1-2 2.009 1.333 1.333 0 0 1-1.07-.467l-.783-.784a2.3 2.3 0 0 1-.6-1.129c-.191-.865-.452-.6-.452-.6l-.493.493a1.834 1.834 0 0 0 0 2.593l2.916 2.92a1.83 1.83 0 0 0 2.2.293l.005.006s.642-.406 1.506.459l7.776 7.777a1.293 1.293 0 0 0 1.837.037l.736-.736a1.357 1.357 0 0 0-.198-2.034z" class="cls-1" transform="translate(-10.293 -9.264)"/>
        <path id="Path_508" d="M15.645 20.341a1.068 1.068 0 0 0-1.212-.21c-.064.022-.126.047-.191.067-.02.008-.033.016-.057.025a1.365 1.365 0 0 0-1.03 1.152v.91a.91.91 0 0 1-.952.931h-.37c-.794.016-.936-.47-.957-.729v-1.053C10.874 20.47 9.8 20.2 9.8 20.2a7.869 7.869 0 0 1-1.65-.711c-.022-.009-.039-.015-.062-.027a1.361 1.361 0 0 0-1.519.179l-.74.74c-.517.515-.9.275-1.039.148l-.06-.06-.608-.608c-.476-.475.143-1.128.225-1.21l.722-.721a1.318 1.318 0 0 0 .117-1.43h.007a7.855 7.855 0 0 1-.67-1.6c-.005-.015-.011-.024-.017-.04a1.416 1.416 0 0 0-1.308-1h-.7c-.821 0-.968-.532-.99-.813v-.565a.855.855 0 0 1 .92-.9h.9a1.2 1.2 0 0 0 1.147-.863c0-.011.01-.017.014-.029a7.766 7.766 0 0 1 .778-1.876A1.372 1.372 0 0 0 5 7.224l-.611-.61a.822.822 0 0 1-.049-1.248l.318-.318a.935.935 0 0 1 1.383 0l.695.695a1.232 1.232 0 0 0 1.432.186h.007a7.837 7.837 0 0 1 1.579-.669c.015-.006.023-.013.039-.02.89-.35 1.056-.9 1.08-1.182V3.021a.82.82 0 0 1 .869-.856h.5a.892.892 0 0 1 .91.983v.782a1.345 1.345 0 0 0 .94 1.27 7.675 7.675 0 0 1 1.484.587 1.575 1.575 0 0 0 1.878-.143L18 5.1c.025-.025.756-.733 1.3-.186l.448.447a.983.983 0 0 1-.141 1.346l-.605.605a1.454 1.454 0 0 0-.173 1.627c.008.017.008.027.015.044a7.825 7.825 0 0 1 .662 1.624l.008-.006s.2.983 1.073.981H21.499c.025 0 1.039-.017 1.042.942v.5c-.008.237-.121.83-1.065.834h-.816a1.242 1.242 0 0 0-1.1.861.978.978 0 0 0 .273 1.06l.116.114h.005c.673.721 1.153-.289 1.153-.289a1.231 1.231 0 0 1 .99-.625h1.245a.685.685 0 0 0 .685-.685v-3.16a.686.686 0 0 0-.685-.685h-1.171A1.214 1.214 0 0 1 21 9.593V9.6a9.414 9.414 0 0 0-.485-1.162 1.226 1.226 0 0 1 .307-1.31l.758-.759a.686.686 0 0 0 0-.969l-2.239-2.242a.686.686 0 0 0-.969 0l-.55.55a1.448 1.448 0 0 1-1.665.447 9.849 9.849 0 0 0-.95-.4c-.015-.007-.026-.014-.041-.02a1.422 1.422 0 0 1-.822-1.329v-.8a.685.685 0 0 0-.685-.685h-3.291a.686.686 0 0 0-.685.685V2.6a1.088 1.088 0 0 1-.839 1.142 9.725 9.725 0 0 0-1.056.458h-.016a1 1 0 0 1-1.158-.087l-.024-.024-.927-.928a.687.687 0 0 0-.969 0L2.455 5.388a.685.685 0 0 0 0 .969L3.2 7.1a1.256 1.256 0 0 1 .325 1.317 9.436 9.436 0 0 0-.48 1.133c-.009.02-.019.036-.028.059a1.252 1.252 0 0 1-1.1.848H.84a.686.686 0 0 0-.685.685V14.3a.685.685 0 0 0 .685.685h1.23a.919.919 0 0 1 .879.642l.008-.017a9.525 9.525 0 0 0 .507 1.29s.435.737-.052 1.224l-.956.956a.685.685 0 0 0 0 .968l2.235 2.234a.684.684 0 0 0 .968 0l.86-.859.038-.038a1.174 1.174 0 0 1 1.328-.085l.021.008a9.75 9.75 0 0 0 .939.388 1.2 1.2 0 0 1 .842 1.1v1.037a.685.685 0 0 0 .685.685h3.289a.685.685 0 0 0 .685-.685v-1.138a1.061 1.061 0 0 1 .716-.955c.023-.009.037-.017.055-.025.228-.079.446-.176.667-.27.532-.3.039-.9.039-.9z" class="cls-1"/>
    </g>
</svg>
