<svg xmlns="http://www.w3.org/2000/svg" width="62" height="62" viewBox="0 0 62 62">
  <g id="shop" transform="translate(-42 176)">
    <g id="Group_1183" data-name="Group 1183" transform="translate(91.164 -124.414)">
      <g id="Group_1182" data-name="Group 1182">
        <path id="Path_3238" data-name="Path 3238" d="M407.211,426a1.211,1.211,0,1,0,1.211,1.211A1.211,1.211,0,0,0,407.211,426Z" transform="translate(-406 -426)" fill="#2f2c2c"/>
      </g>
    </g>
    <g id="Group_1185" data-name="Group 1185" transform="translate(42 -176)">
      <g id="Group_1184" data-name="Group 1184">
        <path id="Path_3239" data-name="Path 3239" d="M54.008,5.744V3.633A3.637,3.637,0,0,0,50.375,0H11.625A3.637,3.637,0,0,0,7.992,3.633V5.744C.094,20.331,0,19.9,0,20.585H0v2.422a6.027,6.027,0,0,0,3.148,5.161v32.62A1.211,1.211,0,0,0,4.359,62H57.641a1.211,1.211,0,0,0,1.211-1.211V28.169A6.094,6.094,0,0,0,62,23.008V20.586h0C62,19.891,61.829,20.189,54.008,5.744Zm4.733,13.631H51.248L47.211,7.266h4.87ZM41.9,21.8h7.266v1.211a3.633,3.633,0,0,1-7.266,0Zm-.185-2.422L39.7,7.266h4.963l4.036,12.109ZM10.414,3.633a1.212,1.212,0,0,1,1.211-1.211h38.75a1.212,1.212,0,0,1,1.211,1.211V4.844H10.414ZM39.477,21.8v1.211a3.633,3.633,0,0,1-7.266,0V21.8Zm-7.266-2.422V7.266H37.24l2.018,12.109Zm-9.469,0L24.76,7.266h5.029V19.375ZM29.789,21.8v1.211a3.633,3.633,0,0,1-7.266,0V21.8ZM13.305,19.375,17.341,7.266H22.3L20.287,19.375ZM20.1,21.8v1.211a3.633,3.633,0,0,1-7.266,0V21.8ZM9.919,7.266h4.87L10.752,19.375H3.259Zm-7.5,15.742V21.8h7.992v1.211a3.979,3.979,0,0,1-4,3.633,4.059,4.059,0,0,1-1.582-.332A3.766,3.766,0,0,1,2.422,23.008Zm22.523,36.57H12.836V49.164H24.945Zm0-12.836H12.836V36.328H24.945ZM56.43,59.578H27.367V35.117a1.211,1.211,0,0,0-1.211-1.211H11.625a1.211,1.211,0,0,0-1.211,1.211V59.578H5.57V29a6.292,6.292,0,0,0,.848.059,6.675,6.675,0,0,0,4.42-1.732,6.547,6.547,0,0,0,.728-.777,6.047,6.047,0,0,0,9.747.083,6.048,6.048,0,0,0,9.688,0,6.048,6.048,0,0,0,9.688,0,6.047,6.047,0,0,0,9.747-.083,6.556,6.556,0,0,0,.728.777,6.675,6.675,0,0,0,4.42,1.732A6.265,6.265,0,0,0,56.43,29Zm3.148-36.57a3.769,3.769,0,0,1-2.5,3.339,4.023,4.023,0,0,1-1.493.294,3.979,3.979,0,0,1-4-3.633V21.8h7.992Z" fill="#2f2c2c"/>
      </g>
    </g>
    <g id="Group_1187" data-name="Group 1187" transform="translate(74.211 -142.094)">
      <g id="Group_1186" data-name="Group 1186">
        <path id="Path_3240" data-name="Path 3240" d="M286.586,292.836h-1.211V281.211A1.211,1.211,0,0,0,284.164,280H269.633a1.211,1.211,0,0,0-1.211,1.211v11.625h-1.211a1.211,1.211,0,0,0,0,2.422h19.375a1.211,1.211,0,0,0,0-2.422Zm-3.633,0H270.844V282.422h12.109Z" transform="translate(-266 -280)" fill="#2f2c2c"/>
      </g>
    </g>
    <g id="Group_1189" data-name="Group 1189" transform="translate(76.633 -124.414)">
      <g id="Group_1188" data-name="Group 1188">
        <path id="Path_3241" data-name="Path 3241" d="M296.9,426h-9.687a1.211,1.211,0,0,0,0,2.422H296.9a1.211,1.211,0,0,0,0-2.422Z" transform="translate(-286 -426)" fill="#2f2c2c"/>
      </g>
    </g>
  </g>
</svg>
