<svg xmlns="http://www.w3.org/2000/svg" width="16.038" height="16.038" viewBox="0 0 16.038 16.038">
  <path id="crop_pricing" d="M8.3,9.339a.4.4,0,1,1-.567.567l-1.6-1.6A.4.4,0,1,1,6.7,7.735ZM5.5,8.938a.4.4,0,1,0-.567.567l1.6,1.6a.4.4,0,1,0,.567-.567ZM16.037,2.4v4.36a2.383,2.383,0,0,1-.7,1.7L8.457,15.334a2.4,2.4,0,0,1-3.393,0L.7,10.974a2.4,2.4,0,0,1,0-3.393L7.58.7a2.384,2.384,0,0,1,1.7-.7h4.36a2.4,2.4,0,0,1,2.4,2.4ZM10.931,7.705l-2.6-2.6a1.006,1.006,0,0,0-1.423,0L3.5,8.511a1.006,1.006,0,0,0,0,1.423l2.6,2.6a1.006,1.006,0,0,0,1.423,0l3.407-3.4a1.006,1.006,0,0,0,0-1.424Zm3.1-4.9a.8.8,0,1,0-.8.8A.8.8,0,0,0,14.032,2.806ZM7.9,6.532a.4.4,0,1,0-.567.567l1.6,1.6A.4.4,0,1,0,9.5,8.136Z" transform="translate(0 0)" fill="#3c4e71"/>
</svg>
