<svg xmlns="http://www.w3.org/2000/svg" width="15.22" height="22.033" viewBox="0 0 15.22 22.033">
  <g id="crop" transform="translate(-69.539 -623.559)">
    <path id="Path_428" data-name="Path 428" d="M23.461,55A11.661,11.661,0,0,0,16.2,57.546l-.352.281h15.22l-.352-.281A11.661,11.661,0,0,0,23.461,55Z" transform="translate(53.688 587.764)" fill="#3c4e71"/>
    <path id="Path_429" data-name="Path 429" d="M28.885,26.446v4.289h.942V26.446a2.36,2.36,0,0,0,1.885-2.309V19.944a2.36,2.36,0,0,0-1.885,2.309V19.021a2.36,2.36,0,0,0,1.885-2.309V14.4a2.36,2.36,0,0,0-1.885,2.309V12h-.942v4.712A2.36,2.36,0,0,0,27,14.4v2.309a2.36,2.36,0,0,0,1.885,2.309v3.231A2.36,2.36,0,0,0,27,19.944v4.194a2.36,2.36,0,0,0,1.885,2.309Z" transform="translate(47.793 611.559)" fill="#3c4e71"/>
    <path id="Path_432" data-name="Path 432" d="M46.885,32.446v2.4h.942v-2.4a2.36,2.36,0,0,0,1.885-2.309V25.944a2.36,2.36,0,0,0-1.885,2.309V24.021a2.36,2.36,0,0,0,1.885-2.309V19.4a2.36,2.36,0,0,0-1.885,2.309V17h-.942v4.712A2.36,2.36,0,0,0,45,19.4v2.309a2.36,2.36,0,0,0,1.885,2.309v4.231A2.36,2.36,0,0,0,45,25.944v4.194a2.36,2.36,0,0,0,1.885,2.309Z" transform="translate(35.046 608.386)" fill="#3c4e71"/>
    <path id="Path_435" data-name="Path 435" d="M10.885,32.446v2.4h.942v-2.4a2.36,2.36,0,0,0,1.885-2.309V25.944a2.36,2.36,0,0,0-1.885,2.309V25.021a2.36,2.36,0,0,0,1.885-2.309V20.4a2.36,2.36,0,0,0-1.885,2.309V18h-.942v4.712A2.36,2.36,0,0,0,9,20.4v2.309a2.36,2.36,0,0,0,1.885,2.309v3.231A2.36,2.36,0,0,0,9,25.944v4.194a2.36,2.36,0,0,0,1.885,2.309Z" transform="translate(60.54 608.386)" fill="#3c4e71"/>
  </g>
</svg>
