<svg id="customer" xmlns="http://www.w3.org/2000/svg" width="62" height="67.636" viewBox="0 0 62 67.636">
  <path id="Path_3224" data-name="Path 3224" d="M102.327,197.418V186.145A10.157,10.157,0,0,0,92.182,176H74.145A10.157,10.157,0,0,0,64,186.145V200.8h2.255V186.145a7.9,7.9,0,0,1,7.891-7.891h1.788l6.433,6.433a1.128,1.128,0,0,0,1.594,0l6.433-6.433h1.788a7.9,7.9,0,0,1,7.891,7.891v11.273ZM83.164,182.3l-4.042-4.042h8.085Zm0,0" transform="translate(-54.982 -151.2)" fill="#2f2c2c"/>
  <path id="Path_3225" data-name="Path 3225" d="M120,264h2.255v10.145H120Zm0,0" transform="translate(-103.091 -226.8)" fill="#2f2c2c"/>
  <path id="Path_3226" data-name="Path 3226" d="M264,264h2.255v7.891H264Zm0,0" transform="translate(-226.8 -226.8)" fill="#2f2c2c"/>
  <path id="Path_3227" data-name="Path 3227" d="M60.873,338.942H46.5a17.359,17.359,0,0,0-8.1-2.131c-.085-.008-.174-.011-.254-.011a17.452,17.452,0,0,0-8.352,2.128l-8.377.014a4.509,4.509,0,0,0-4.509,4.509,1.883,1.883,0,0,0,.016.267,4.429,4.429,0,0,0,.146.914l-6.355-2.912-.1-.051-3.8-1.734A4.809,4.809,0,0,0,0,344.308v.248a4.768,4.768,0,0,0,2.662,4.3l14.576,7.3a7.987,7.987,0,0,0,3.526.824H60.873A1.127,1.127,0,0,0,62,355.852V340.07a1.127,1.127,0,0,0-1.127-1.127ZM45.091,354.724H20.764a5.747,5.747,0,0,1-2.527-.591l-14.569-7.3a2.529,2.529,0,0,1-1.414-2.277v-.248a2.555,2.555,0,0,1,3.623-2.322l3.764,1.719.1.05,8.949,4.1a1.133,1.133,0,0,0,.471.1h12.4v-2.255H21.418a2.243,2.243,0,0,1-2.244-2.152,1.09,1.09,0,0,0-.01-.112,2.255,2.255,0,0,1,2.255-2.245h8.646a1.125,1.125,0,0,0,.552-.144l.27-.152a15.306,15.306,0,0,1,7.225-1.855,1.09,1.09,0,0,0,.208.021,15.072,15.072,0,0,1,6.772,1.68Zm14.655,0h-12.4V341.2h12.4Zm0,0" transform="translate(0 -289.342)" fill="#2f2c2c"/>
  <path id="Path_3228" data-name="Path 3228" d="M352,432h2.255v2.255H352Zm0,0" transform="translate(-302.4 -371.127)" fill="#2f2c2c"/>
  <path id="Path_3229" data-name="Path 3229" d="M145.018,22.545a9.028,9.028,0,0,0,9.018-9.018V9.018a9.018,9.018,0,1,0-18.036,0v4.509A9.029,9.029,0,0,0,145.018,22.545ZM138.255,9.018a6.764,6.764,0,1,1,13.527,0v4.509a6.764,6.764,0,1,1-13.527,0Zm0,0" transform="translate(-116.836)" fill="#2f2c2c"/>
  <path id="Path_3230" data-name="Path 3230" d="M170.255,38.083a2.262,2.262,0,0,1,1.5-2.126l-.753-2.125A4.518,4.518,0,0,0,168,38.083V39.21h2.255Zm0,0" transform="translate(-144.327 -29.065)" fill="#2f2c2c"/>
</svg>
