<svg xmlns="http://www.w3.org/2000/svg" width="78.668" height="100" viewBox="0 0 78.668 100">
    <g>
        <path fill="#fff06e" d="M0 0H40V100H0z" transform="translate(-837 -868) translate(856 868)"/>
        <g>
            <path d="M81.727 474.7l-2.313-3.258a1.536 1.536 0 1 0-2.506 1.779l2.313 3.258a1.536 1.536 0 0 0 2.506-1.779z" transform="translate(-837 -868) translate(-177 -690) translate(949.149 1180.545)"/>
            <path d="M58.681 442.233l-.01-.014A1.536 1.536 0 0 0 56.17 444l.01.014a1.536 1.536 0 1 0 2.5-1.785z" transform="translate(-837 -868) translate(-177 -690) translate(966.702 1205.272)"/>
            <g>
                <g>
                    <path d="M34.6 209.229l-2.517-12a22.628 22.628 0 0 0-9.57-14.206l-5.375-3.614a5.407 5.407 0 0 0-6.854.7V161.6a5.144 5.144 0 0 0-8.363-4.012A5.119 5.119 0 0 0 0 161.6v23.82a14.883 14.883 0 0 0 2.762 8.661l2.74 3.86a1.536 1.536 0 0 0 2.506-1.779l-2.74-3.86a11.826 11.826 0 0 1-2.195-6.883V161.6a2.071 2.071 0 1 1 4.141 0v18.9a10.736 10.736 0 0 0 2.769 7.208c.077.092.155.183.238.271 1.02 1.081 2.22 2.355 3.35 3.556l1.582 1.684.016.015 2.372 2.524a1.536 1.536 0 1 0 2.24-2.1c-.028-.03-1.827-1.945-3.881-4.128l-3.523-3.749-.026-.029a2.593 2.593 0 0 1 .05-3.4 2.323 2.323 0 0 1 3.025-.386l5.374 3.614a19.57 19.57 0 0 1 8.277 12.287l2.518 12a1.536 1.536 0 1 0 3.007-.631z" transform="translate(-837 -868) translate(-177 -690) translate(1013.999 1446.588)"/>
                    <path d="M319.291 157.587a5.144 5.144 0 0 0-8.363 4.012v18.514a5.407 5.407 0 0 0-6.854-.7l-5.375 3.614a22.627 22.627 0 0 0-9.57 14.206l-2.517 12a1.536 1.536 0 1 0 3.007.631l2.517-12a19.57 19.57 0 0 1 8.277-12.286l5.375-3.614a2.323 2.323 0 0 1 3.025.386 2.593 2.593 0 0 1 .053 3.394l-.029.033-7.4 7.878a1.536 1.536 0 1 0 2.24 2.1c.021-.022 6.3-6.7 7.32-7.779.083-.088.162-.179.238-.271A10.736 10.736 0 0 0 314 180.5v-18.9a2.071 2.071 0 1 1 4.141 0v23.824a11.826 11.826 0 0 1-2.195 6.883l-11.606 16.35a1.536 1.536 0 1 0 2.506 1.779l11.608-16.352a14.883 14.883 0 0 0 2.762-8.661V161.6a5.121 5.121 0 0 0-1.925-4.013z" transform="translate(-837 -868) translate(-177 -690) translate(771.453 1446.585)"/>
                    <path d="M137.836 75.151L135.1 74.5v-.49a6.872 6.872 0 0 0 2.942-5.634V64.82a6.871 6.871 0 0 0-11.338-5.227 8.971 8.971 0 0 0-16.627.012 6.871 6.871 0 0 0-11.352 5.215v3.554a6.872 6.872 0 0 0 2.942 5.634v.49l-2.734.653a7.2 7.2 0 0 0-5.543 7.024v2.87a1.537 1.537 0 0 0 1.536 1.536h7.06c-.011.186-.018.374-.018.563v5.525a1.537 1.537 0 0 0 1.536 1.536h9.236a1.536 1.536 0 1 0 0-3.073h-1.588v-3.176a1.536 1.536 0 0 0-3.073 0v3.175h-3.039v-3.988a6.362 6.362 0 0 1 4.894-6.206l4.216-1.01 2.822 6.42a1.536 1.536 0 0 0 1.406.918 1.536 1.536 0 0 0 1.407-.918s1.063-5.059 2.819-6.41 4.2 1 4.2 1a6.361 6.361 0 0 1 4.9 6.207v3.984h-3.039v-3.172a1.536 1.536 0 0 0-3.073 0v3.175h-1.741a1.536 1.536 0 0 0 0 3.073h9.39a1.537 1.537 0 0 0 1.536-1.536v-5.52c0-.19-.008-.379-.019-.567h7.08a1.537 1.537 0 0 0 1.536-1.536v-2.87a7.2 7.2 0 0 0-5.538-7.024zm-6.669-14.135a3.809 3.809 0 0 1 3.8 3.553h-2.136a11.2 11.2 0 0 1-5.152-1.256 3.809 3.809 0 0 1 3.488-2.297zm-3.8 7.133c0-.075.006-.149.006-.225v-1.368a14.273 14.273 0 0 0 5.457 1.086h2.144v.732a3.8 3.8 0 1 1-7.607 0zm-14.871-5.174a5.9 5.9 0 0 1 11.729-.938l-2.587-1.52a1.536 1.536 0 0 0-1.956.338 6.62 6.62 0 0 1-5.086 2.374h-2.1zm-6.89-1.959a3.809 3.809 0 0 1 3.492 2.3 11.2 11.2 0 0 1-5.152 1.256h-2.136a3.809 3.809 0 0 1 3.79-3.556zm-3.8 6.626h2.144a14.273 14.273 0 0 0 5.463-1.088v1.82a3.8 3.8 0 0 1-7.607 0v-.732zm7.422 10.308a9.423 9.423 0 0 0-6.529 5.559h-6.236v-1.334a4.135 4.135 0 0 1 3.184-4.035l3.913-.935a1.536 1.536 0 0 0 1.18-1.494v-.517a6.67 6.67 0 0 0 1.718 0v.507a1.539 1.539 0 0 0 1.249 1.512l2.292.549zm4.286-2.385a7.209 7.209 0 0 0-1.23-.415l-2.745-.658v-.479a6.933 6.933 0 0 0 1.332-1.217 9.046 9.046 0 0 0 2.643 2.65v.118zm6.673 2.258l-1.8 4.089-1.8-4.1v-1.1a9 9 0 0 0 3.6.006zm-1.785-4a5.908 5.908 0 0 1-5.9-5.9V66.3h2.1a9.681 9.681 0 0 0 6.529-2.522l3.169 1.862v2.508a5.908 5.908 0 0 1-5.906 5.678zm4.858 1.743v-.1a9.042 9.042 0 0 0 2.665-2.656 6.932 6.932 0 0 0 1.32 1.2v.479l-2.745.658a7.235 7.235 0 0 0-1.248.422zm17.054 7.939h-6.249a9.421 9.421 0 0 0-6.534-5.556l-.771-.184 2.3-.552a1.538 1.538 0 0 0 1.255-1.513v-.507a6.671 6.671 0 0 0 1.718 0v.517a1.536 1.536 0 0 0 1.18 1.494l3.913.935a4.135 4.135 0 0 1 3.185 4.035v1.333z" transform="translate(-837 -868) translate(-177 -690) translate(934.959 1533.297)"/>
                </g>
                <path d="M247.529 0a1.537 1.537 0 0 0-1.536 1.536v2.3a1.536 1.536 0 0 0 3.073 0v-2.3A1.536 1.536 0 0 0 247.529 0z" transform="translate(-837 -868) translate(-177 -690) translate(805.803 1579)"/>
                <path d="M195.834 21.273l-1.612-1.61a1.536 1.536 0 1 0-2.172 2.174l1.612 1.61a1.536 1.536 0 1 0 2.172-2.174z" transform="translate(-837 -868) translate(-177 -690) translate(851.84 1562.739)"/>
                <path d="M293.967 19.919a1.536 1.536 0 0 0-2.173 0l-1.6 1.6a1.536 1.536 0 1 0 2.174 2.172l1.6-1.6a1.536 1.536 0 0 0-.001-2.172z" transform="translate(-837 -868) translate(-177 -690) translate(768.773 1562.522)"/>
            </g>
        </g>
    </g>
</svg>
