<svg xmlns="http://www.w3.org/2000/svg" width="9.93" height="13.035" viewBox="0 0 9.93 13.035">
    <g>
        <g>
            <g>
                <path d="M70.66 3.415A4.859 4.859 0 0 0 67.51.239a4.994 4.994 0 0 0-6.539 4.749 4.924 4.924 0 0 0 .991 2.977l3.975 5.07 3.97-5.064v-.006a5.02 5.02 0 0 0 .753-4.55zM69.3 7.5l-3.363 4.3-3.366-4.3a4.166 4.166 0 0 1-.836-2.515A4.231 4.231 0 0 1 67.284.969a4.085 4.085 0 0 1 2.646 2.672A4.265 4.265 0 0 1 69.3 7.5z" transform="translate(-60.971) translate(60.971) translate(-60.971)"/>
            </g>
        </g>
        <g>
            <g>
                <path d="M153.668 90.895a2.674 2.674 0 1 0 2.674 2.674 2.677 2.677 0 0 0-2.674-2.674zm0 4.584a1.91 1.91 0 1 1 1.91-1.91 1.912 1.912 0 0 1-1.91 1.91z" transform="translate(-60.971) translate(63.263 2.314) translate(-150.994 -90.895)"/>
            </g>
        </g>
    </g>
</svg>
