<svg xmlns="http://www.w3.org/2000/svg" width="76.651" height="54.934" viewBox="0 0 76.651 54.934">
  <g id="truck" transform="translate(0 -72.533)">
    <g id="Group_1191" data-name="Group 1191" transform="translate(10.22 112.137)">
      <g id="Group_1190" data-name="Group 1190">
        <path id="Path_3242" data-name="Path 3242" d="M75.932,337.067a7.665,7.665,0,1,0,7.665,7.665A7.673,7.673,0,0,0,75.932,337.067Zm0,12.775a5.11,5.11,0,1,1,5.11-5.11A5.115,5.115,0,0,1,75.932,349.842Z" transform="translate(-68.267 -337.067)" fill="#2f2c2c"/>
      </g>
    </g>
    <g id="Group_1193" data-name="Group 1193" transform="translate(53.656 112.137)">
      <g id="Group_1192" data-name="Group 1192">
        <path id="Path_3243" data-name="Path 3243" d="M366.065,337.067a7.665,7.665,0,1,0,7.665,7.665A7.673,7.673,0,0,0,366.065,337.067Zm0,12.775a5.11,5.11,0,1,1,5.11-5.11A5.115,5.115,0,0,1,366.065,349.842Z" transform="translate(-358.4 -337.067)" fill="#2f2c2c"/>
      </g>
    </g>
    <g id="Group_1195" data-name="Group 1195" transform="translate(48.546 86.586)">
      <g id="Group_1194" data-name="Group 1194" transform="translate(0 0)">
        <path id="Path_3244" data-name="Path 3244" d="M352.17,184.872l-11.5-17.886a1.278,1.278,0,0,0-1.074-.586H325.544a1.277,1.277,0,0,0-1.277,1.277v31.938a1.276,1.276,0,0,0,1.277,1.277h5.11v-2.555h-3.833V168.955H338.9l10.918,16.984v12.4H343.43v2.555H351.1a1.276,1.276,0,0,0,1.277-1.277V185.563A1.274,1.274,0,0,0,352.17,184.872Z" transform="translate(-324.267 -166.4)" fill="#2f2c2c"/>
      </g>
    </g>
    <g id="Group_1197" data-name="Group 1197" transform="translate(53.657 91.696)">
      <g id="Group_1196" data-name="Group 1196">
        <path id="Path_3245" data-name="Path 3245" d="M360.956,212.031v-8.943h10.22v-2.555h-11.5a1.277,1.277,0,0,0-1.278,1.277v11.5a1.276,1.276,0,0,0,1.278,1.277h19.163v-2.555H360.956Z" transform="translate(-358.401 -200.533)" fill="#2f2c2c"/>
      </g>
    </g>
    <g id="Group_1199" data-name="Group 1199" transform="translate(0 77.643)">
      <g id="Group_1198" data-name="Group 1198" transform="translate(0 0)">
        <path id="Path_3246" data-name="Path 3246" d="M49.824,106.667H1.277A1.278,1.278,0,0,0,0,107.944v40.881A1.277,1.277,0,0,0,1.277,150.1H11.5v-2.555H2.555V109.222H48.546v38.326H24.273V150.1H49.824a1.276,1.276,0,0,0,1.277-1.277V107.944A1.277,1.277,0,0,0,49.824,106.667Z" transform="translate(0 -106.667)" fill="#2f2c2c"/>
      </g>
    </g>
    <g id="Group_1201" data-name="Group 1201" transform="translate(1.277 113.414)">
      <g id="Group_1200" data-name="Group 1200">
        <rect id="Rectangle_72" data-name="Rectangle 72" width="7.665" height="2.555" fill="#2f2c2c"/>
      </g>
    </g>
    <g id="Group_1203" data-name="Group 1203" transform="translate(26.828 113.414)">
      <g id="Group_1202" data-name="Group 1202">
        <rect id="Rectangle_73" data-name="Rectangle 73" width="21.718" height="2.555" fill="#2f2c2c"/>
      </g>
    </g>
    <g id="Group_1205" data-name="Group 1205" transform="translate(70.264 113.414)">
      <g id="Group_1204" data-name="Group 1204">
        <rect id="Rectangle_74" data-name="Rectangle 74" width="5.11" height="2.555" fill="#2f2c2c"/>
      </g>
    </g>
    <g id="Group_1207" data-name="Group 1207" transform="translate(5.11 82.753)">
      <g id="Group_1206" data-name="Group 1206">
        <rect id="Rectangle_75" data-name="Rectangle 75" width="44.714" height="2.555" fill="#2f2c2c"/>
      </g>
    </g>
    <g id="Group_1209" data-name="Group 1209" transform="translate(16.608 118.524)">
      <g id="Group_1208" data-name="Group 1208">
        <rect id="Rectangle_76" data-name="Rectangle 76" width="2.555" height="2.555" fill="#2f2c2c"/>
      </g>
    </g>
    <g id="Group_1211" data-name="Group 1211" transform="translate(60.044 118.524)">
      <g id="Group_1210" data-name="Group 1210">
        <rect id="Rectangle_77" data-name="Rectangle 77" width="2.555" height="2.555" fill="#2f2c2c"/>
      </g>
    </g>
    <g id="Group_1213" data-name="Group 1213" transform="translate(5.11 72.533)">
      <g id="Group_1212" data-name="Group 1212" transform="translate(0 0)">
        <rect id="Rectangle_78" data-name="Rectangle 78" width="17.886" height="2.555" fill="#2f2c2c"/>
      </g>
    </g>
    <g id="Group_1215" data-name="Group 1215" transform="translate(0 72.533)">
      <g id="Group_1214" data-name="Group 1214" transform="translate(0 0)">
        <rect id="Rectangle_79" data-name="Rectangle 79" width="2.555" height="2.555" fill="#2f2c2c"/>
      </g>
    </g>
  </g>
</svg>
