<svg xmlns="http://www.w3.org/2000/svg" width="68.996" height="69.226" viewBox="0 0 68.996 69.226">
    <defs>
        <style>
            .cls-2{fill:#37474f}.cls-3{fill:#ffdc00}.cls-4{fill:#fec108}.cls-6{fill:#545c60}.cls-7{fill:#60a917}.cls-8{fill:none;stroke:#000;stroke-linecap:round;stroke-linejoin:round;stroke-width:2px;fill-rule:evenodd}.cls-14{fill:#f8aa43}
        </style>
    </defs>
    <g id="Page-1" opacity="0.652">
        <g id="_024---Smart-Tractor">
            <g id="Group_19" transform="translate(1.15 26.45)">
                <path id="Shape" d="M14.8 28A13.8 13.8 0 1 1 1.048 42.949C1.013 42.57 1 42.19 1 41.8A13.8 13.8 0 0 1 14.8 28zm0 23a9.2 9.2 0 1 0-9.2-9.2 9.2 9.2 0 0 0 9.2 9.2z" class="cls-2" transform="translate(38.096 -23.4)"/>
                <circle id="Oval" cx="9.2" cy="9.2" r="9.2" class="cls-3" transform="translate(43.698 9.2)"/>
                <path id="Shape-2" d="M20.724 32a9.176 9.176 0 0 1 1.725.168 9.2 9.2 0 0 0 0 18.063A9.2 9.2 0 1 1 20.724 32z" class="cls-4" transform="translate(32.173 -22.8)"/>
                <circle id="Oval-2" cx="2.3" cy="2.3" r="2.3" fill="#cfd8dc" transform="translate(50.597 16.099)"/>
                <path id="Shape-3" d="M42.15 39.623A10.337 10.337 0 0 1 51.349 34a10.758 10.758 0 0 1 2.3.253A10.359 10.359 0 0 1 61.63 43.2a9.5 9.5 0 0 1 .069 1.15 10.349 10.349 0 1 1-20.7 0 10.216 10.216 0 0 1 1.151-4.727zm9.2 10.476a5.75 5.75 0 1 0-5.75-5.75 5.75 5.75 0 0 0 5.749 5.751z" class="cls-2" transform="translate(-41 -22.501)"/>
                <circle id="Oval-3" cx="5.75" cy="5.75" r="5.75" class="cls-3" transform="translate(4.6 16.099)"/>
                <path id="Shape-4" d="M54.25 38a5.676 5.676 0 0 1 1.725.293 5.711 5.711 0 0 0 0 10.913 5.676 5.676 0 0 1-1.725.293 5.75 5.75 0 0 1 0-11.5z" class="cls-4" transform="translate(-43.9 -21.901)"/>
                <path id="Shape-5" d="M5.52 42.4v1.15h4.646c-.035-.379-.046-.759-.046-1.15a13.815 13.815 0 0 1 20.043-12.317l2.357-3.944A18.191 18.191 0 0 0 23.919 24 18.4 18.4 0 0 0 5.52 42.4z" class="cls-6" transform="translate(28.978 -24)"/>
                <path id="Shape-6" d="M4 25.86a16.718 16.718 0 0 1 1.748 1.046" class="cls-7" transform="translate(57.499 -23.721)"/>
            </g>
            <path id="Shape-7" d="M63.8 52H27" class="cls-8" transform="translate(-25.85 6.648)"/>
            <path id="Shape-8" d="M26.3 52H1" class="cls-8" transform="translate(41.548 6.648)"/>
            <path id="Shape-9" d="M30 52v9.2" class="cls-8" transform="translate(4.498 6.648)"/>
            <path id="Shape-10" d="M9 52l5.75 9.2" class="cls-8" transform="translate(43.897 6.648)"/>
            <path id="Shape-11" d="M51.75 52L46 61.2" class="cls-8" transform="translate(-35.651 6.648)"/>
            <path id="Shape-12" fill="#008a00" d="M13 20v16.352a10.359 10.359 0 0 1 7.981 8.948H33.7a1.15 1.15 0 0 0 1.15-1.15V43a18.4 18.4 0 0 1 18.4-18.4v-1.15A3.45 3.45 0 0 0 49.8 20z" transform="translate(.799 1.85)"/>
            <path id="Shape-13" fill="#007900" d="M41.51 20v16.352a10.359 10.359 0 0 1 7.98 8.948h-3.45a10.359 10.359 0 0 0-7.981-8.947V20z" transform="translate(-24.261 1.85)"/>
            <path id="Shape-14" fill="#7f8e94" d="M48 29v11.373a10.337 10.337 0 0 1 9.2-5.623 10.758 10.758 0 0 1 2.3.25v-6z" transform="translate(-45.7 3.2)"/>
            <path id="Shape-15" d="M58.45 29v7.518A10.385 10.385 0 0 0 55 40.373V29z" class="cls-6" transform="translate(-52.7 3.2)"/>
            <path id="Shape-16" d="M48.575 34.071v.171c-.187-.041-.382-.063-.575-.1.191-.031.382-.054.575-.076z" class="cls-6" transform="translate(-34.776 3.96)"/>
            <path id="Shape-17" d="M48 28.05v2.3h11.5V20h-3.45A8.05 8.05 0 0 0 48 28.05z" class="cls-7" transform="translate(-45.7 1.85)"/>
            <path id="Shape-18" fill="#549414" d="M56.05 20h3.45a8.05 8.05 0 0 0-8.05 8.05v2.3H48v-2.3A8.05 8.05 0 0 1 56.05 20z" transform="translate(-45.7 1.85)"/>
            <path id="Shape-19" d="M53 29.45V26" class="cls-8" transform="translate(-44.95 2.75)"/>
            <path id="Shape-20" fill="#02a9f4" d="M17 19.45v1.15h6.9v-1.15a3.45 3.45 0 1 0-6.9 0z" transform="translate(25.548 1.251)"/>
            <path id="Shape-21" d="M14.349 31A10.349 10.349 0 1 1 4 41.349 10.349 10.349 0 0 1 14.349 31zm0 18.4a8.05 8.05 0 1 0-8.05-8.05 8.05 8.05 0 0 0 8.05 8.05z" transform="translate(39.698 3.5)"/>
            <path id="Shape-22" d="M13.45 37A3.45 3.45 0 1 1 10 40.45 3.45 3.45 0 0 1 13.45 37zm0 4.6a1.15 1.15 0 1 0-1.15-1.15 1.15 1.15 0 0 0 1.15 1.15z" transform="translate(40.597 4.399)"/>
            <path id="Shape-23" d="M0 47.2a11.407 11.407 0 0 1 1.15-4.979V28.8a9.21 9.21 0 0 1 9.2-9.2H41.4a4.6 4.6 0 1 1 9.2 0 4.6 4.6 0 0 1 4.6 4.6v.043a19.371 19.371 0 0 1 8.02 2.257h.018l.008.009a19.3 19.3 0 0 1 1.8 1.076 1.152 1.152 0 1 1-1.3 1.9c-.23-.155-.46-.293-.69-.436l-1.191 1.98a14.908 14.908 0 0 1 .117 25.371h5.865a1.15 1.15 0 1 1 0 2.3h-12.88l4.655 7.44a1.152 1.152 0 1 1-1.955 1.219L52.26 58.7h-9.712a1.15 1.15 0 1 1 0-2.3h3.565a14.958 14.958 0 0 1-6.823-10.352h-2.815A2.292 2.292 0 0 1 34.5 47.2H23a11.479 11.479 0 0 1-4.629 9.2h19.577a1.15 1.15 0 1 1 0 2.3h-2.3v8.05a1.15 1.15 0 0 1-2.3 0V58.7H16.736l-5.412 8.659a1.152 1.152 0 0 1-1.954-1.221l4.66-7.44H1.15a1.15 1.15 0 1 1 0-2.3h3.479A11.479 11.479 0 0 1 0 47.2zm12.649-14.951H3.45V39a11.446 11.446 0 0 1 9.2-3.243zM3.45 28.8v1.15H6.9v-2.3a1.15 1.15 0 0 1 2.3 0v2.3h3.45V21.9h-2.3a6.907 6.907 0 0 0-6.9 6.9zM46 17.3a2.3 2.3 0 0 0-2.3 2.3h4.6a2.3 2.3 0 0 0-2.3-2.3zm8.05 39.1A12.649 12.649 0 1 0 41.4 43.748 12.649 12.649 0 0 0 54.047 56.4zm0-27.6a14.874 14.874 0 0 1 5.782 1.165l1.188-1.988A17.239 17.239 0 0 0 36.8 43.748h2.3A14.966 14.966 0 0 1 54.047 28.8zM34.5 44.9v-1.15c0-.389.036-.767.059-1.15h-3.511a1.15 1.15 0 1 1 0-2.3h3.773a19.338 19.338 0 0 1 .543-2.3H32.2a1.15 1.15 0 0 1 0-2.3h4.055a19.471 19.471 0 0 1 1.235-2.3H34.5a1.15 1.15 0 1 1 0-2.3h4.671A19.494 19.494 0 0 1 52.9 24.258V24.2a2.3 2.3 0 0 0-2.3-2.3H14.949v3.45H36.8a1.15 1.15 0 0 1 0 2.3H14.949v8.58a11.537 11.537 0 0 1 7.82 8.669zm-13.8 2.3a9.2 9.2 0 1 0-9.2 9.2 9.2 9.2 0 0 0 9.2-9.2z" transform="translate(0 1.101)"/>
            <path id="Shape-24" d="M50.9 37a6.9 6.9 0 1 1-6.9 6.9 6.9 6.9 0 0 1 6.9-6.9zm0 11.5a4.6 4.6 0 1 0-4.6-4.6 4.6 4.6 0 0 0 4.6 4.6z" transform="translate(-39.4 4.399)"/>
            <circle id="Oval-4" cx="1.15" cy="1.15" r="1.15" transform="translate(10.349 47.149)"/>
            <path id="Shape-25" d="M31.851 6.75a1.15 1.15 0 0 0 .719-2.05A17.715 17.715 0 0 0 21.5 1a17.723 17.723 0 0 0-11.07 3.7 1.15 1.15 0 0 0 1.437 1.8A15.42 15.42 0 0 1 21.5 3.3a15.409 15.409 0 0 1 9.633 3.2 1.15 1.15 0 0 0 .718.25z" class="cls-14" transform="translate(24.496 -.999)"/>
            <path id="Shape-26" d="M14.155 10.6a1.15 1.15 0 0 0 .718-.252A9.889 9.889 0 0 1 21.055 8.3a9.889 9.889 0 0 1 6.183 2.048 1.15 1.15 0 0 0 1.436-1.8A12.2 12.2 0 0 0 21.055 6a12.2 12.2 0 0 0-7.619 2.552 1.15 1.15 0 0 0 .72 2.048z" class="cls-14" transform="translate(24.943 -.249)"/>
            <path id="Shape-27" d="M24.044 14.45a1.15 1.15 0 0 0 .719-2.048 6.9 6.9 0 0 0-8.337 0 1.15 1.15 0 0 0 1.436 1.8 4.73 4.73 0 0 1 5.463 0 1.15 1.15 0 0 0 .719.248z" class="cls-14" transform="translate(25.403 .501)"/>
        </g>
    </g>
</svg>
