<svg xmlns="http://www.w3.org/2000/svg" width="15" height="17.152" viewBox="0 0 15 17.152">
    <defs>
        <style>
            .cls-1{fill:#3c4e71}
        </style>
    </defs>
    <g id="viewfarmers" transform="translate(-32)">
        <path id="Path_361" d="M99.064 4.507h9.514a.5.5 0 1 0 0-1.009h-1.454V3.2a3.2 3.2 0 0 0-3.2-3.2h-.215a3.2 3.2 0 0 0-3.109 2.489 3.951 3.951 0 0 0-.079 1.009h-1.457a.5.5 0 1 0 0 1.009z" class="cls-1" transform="translate(-64.321)"/>
        <path id="Path_362" d="M32 288.323v2.764a.5.5 0 0 0 .5.5h1.734v-2.152a.5.5 0 0 1 .5-.5h.183v-4.945A4.74 4.74 0 0 0 32 288.323z" class="cls-1" transform="translate(0 -274.439)"/>
        <path id="Path_363" d="M149 277.541h7.13v-5.254a5.027 5.027 0 0 0-.706-.086v.745a2.884 2.884 0 0 1-.779 1.976 2.843 2.843 0 0 1-4.159 0 2.886 2.886 0 0 1-.779-1.977v-.745a5.026 5.026 0 0 0-.706.086z" class="cls-1" transform="translate(-113.065 -263.045)"/>
        <path id="Path_364" d="M391 283.99v4.944h.183a.5.5 0 0 1 .5.5v2.152h1.734a.5.5 0 0 0 .5-.5v-2.764A4.739 4.739 0 0 0 391 283.99z" class="cls-1" transform="translate(-346.926 -274.439)"/>
        <path id="Path_365" d="M128.548 462.632h8.5v-1.648h-8.5v1.648z" class="cls-1" transform="translate(-93.3 -445.479)"/>
        <path id="Path_366" d="M160.581 170.254a1.861 1.861 0 0 0 1.767-1.869v-1.928a3.337 3.337 0 0 0 1.44-2.457h-6.578a3.336 3.336 0 0 0 1.439 2.456v1.928a1.859 1.859 0 0 0 1.932 1.87z" class="cls-1" transform="translate(-120.999 -158.484)"/>
    </g>
</svg>
