<svg xmlns="http://www.w3.org/2000/svg" width="15.562" height="14.135" viewBox="0 0 15.562 14.135">
  <g id="view_supp_branches" transform="translate(0 -2.415)">
    <g id="Group_527" data-name="Group 527" transform="translate(0 2.415)">
      <g id="Group_526" data-name="Group 526" transform="translate(0 0)">
        <path id="Path_390" data-name="Path 390" d="M9.887,14.258a4.878,4.878,0,0,1-4.624-3.343H2.674V9.96H5.051a4.808,4.808,0,0,1,.025-1.337h-2.4V7.668H5.33A4.872,4.872,0,0,1,6.1,6.331H2.674V5.376H7.128a4.856,4.856,0,0,1,4.523-.527V2.415H0V14.64a1.916,1.916,0,0,0,1.91,1.91H9.742a1.916,1.916,0,0,0,1.91-1.91v-.714A4.843,4.843,0,0,1,9.887,14.258Z" transform="translate(0 -2.415)" fill="#3c4e71"/>
      </g>
    </g>
    <g id="Group_529" data-name="Group 529" transform="translate(5.971 5.471)">
      <g id="Group_528" data-name="Group 528">
        <path id="Path_391" data-name="Path 391" d="M27.382,18.845a3.95,3.95,0,1,0-.924.967l2.4,2.4.945-.945Zm-3.258.789a2.961,2.961,0,1,1,2.961-2.961A2.964,2.964,0,0,1,24.124,19.634Z" transform="translate(-20.208 -12.758)" fill="#3c4e71"/>
      </g>
    </g>
  </g>
</svg>
